var midi ={
  "header": {
    "keySignatures": [],
    "meta": [],
    "name": "solo",
    "ppq": 128,
    "tempos": [
      {
        "bpm": 113.00009605008164,
        "ticks": 0
      },
      {
        "bpm": 113.00009605008164,
        "ticks": 0
      },
      {
        "bpm": 113.00009605008164,
        "ticks": 0
      },
      {
        "bpm": 113.00009605008164,
        "ticks": 0
      },
      {
        "bpm": 113.00009605008164,
        "ticks": 0
      },
      {
        "bpm": 113.00009605008164,
        "ticks": 0
      },
      {
        "bpm": 113.00009605008164,
        "ticks": 0
      },
      {
        "bpm": 113.00009605008164,
        "ticks": 0
      },
      {
        "bpm": 113.00009605008164,
        "ticks": 0
      },
      {
        "bpm": 113.00009605008164,
        "ticks": 0
      },
      {
        "bpm": 113.00009605008164,
        "ticks": 0
      },
      {
        "bpm": 113.00009605008164,
        "ticks": 0
      },
      {
        "bpm": 113.00009605008164,
        "ticks": 0
      },
      {
        "bpm": 113.00009605008164,
        "ticks": 0
      }
    ],
    "timeSignatures": []
  },
  "tracks": [
    {
      "channel": 0,
      "controlChanges": {},
      "pitchBends": [],
      "instrument": {
        "family": "piano",
        "name": "acoustic grand piano",
        "number": 0
      },
      "name": "solo",
      "notes": [
        {
          "duration": 0.7964595000000001,
          "durationTicks": 192,
          "midi": 95,
          "name": "B6",
          "ticks": 384,
          "time": 1.5929190000000002,
          "velocity": 0.3937007874015748
        },
        {
          "duration": 0.7964595000000001,
          "durationTicks": 192,
          "midi": 83,
          "name": "B5",
          "ticks": 384,
          "time": 1.5929190000000002,
          "velocity": 0.3937007874015748
        },
        {
          "duration": 0.7964595000000001,
          "durationTicks": 192,
          "midi": 83,
          "name": "B5",
          "ticks": 384,
          "time": 1.5929190000000002,
          "velocity": 0.3937007874015748
        },
        {
          "duration": 0.7964595000000001,
          "durationTicks": 192,
          "midi": 85,
          "name": "C#6",
          "ticks": 576,
          "time": 2.3893785000000003,
          "velocity": 0.3937007874015748
        },
        {
          "duration": 0.5309729999999999,
          "durationTicks": 128,
          "midi": 78,
          "name": "F#5",
          "ticks": 768,
          "time": 3.1858380000000004,
          "velocity": 0.3937007874015748
        },
        {
          "duration": 0.7964594999999997,
          "durationTicks": 192,
          "midi": 85,
          "name": "C#6",
          "ticks": 896,
          "time": 3.7168110000000003,
          "velocity": 0.3937007874015748
        },
        {
          "duration": 0.7964595000000001,
          "durationTicks": 192,
          "midi": 87,
          "name": "D#6",
          "ticks": 1088,
          "time": 4.5132705,
          "velocity": 0.3937007874015748
        },
        {
          "duration": 0.13274324999999987,
          "durationTicks": 32,
          "midi": 90,
          "name": "F#6",
          "ticks": 1280,
          "time": 5.30973,
          "velocity": 0.3937007874015748
        },
        {
          "duration": 0.13274324999999987,
          "durationTicks": 32,
          "midi": 90,
          "name": "F#6",
          "ticks": 1280,
          "time": 5.30973,
          "velocity": 0.3937007874015748
        },
        {
          "duration": 0.13274325000000076,
          "durationTicks": 32,
          "midi": 100,
          "name": "E7",
          "ticks": 1312,
          "time": 5.44247325,
          "velocity": 0.3937007874015748
        },
        {
          "duration": 0.13274325000000076,
          "durationTicks": 32,
          "midi": 88,
          "name": "E6",
          "ticks": 1312,
          "time": 5.44247325,
          "velocity": 0.3937007874015748
        },
        {
          "duration": 0.26548649999999974,
          "durationTicks": 64,
          "midi": 99,
          "name": "D#7",
          "ticks": 1344,
          "time": 5.575216500000001,
          "velocity": 0.3937007874015748
        },
        {
          "duration": 0.26548649999999974,
          "durationTicks": 64,
          "midi": 87,
          "name": "D#6",
          "ticks": 1344,
          "time": 5.575216500000001,
          "velocity": 0.3937007874015748
        },
        {
          "duration": 0.7964595000000001,
          "durationTicks": 192,
          "midi": 95,
          "name": "B6",
          "ticks": 1408,
          "time": 5.840703,
          "velocity": 0.3937007874015748
        },
        {
          "duration": 0.7964595000000001,
          "durationTicks": 192,
          "midi": 83,
          "name": "B5",
          "ticks": 1408,
          "time": 5.840703,
          "velocity": 0.3937007874015748
        },
        {
          "duration": 0.7964595000000001,
          "durationTicks": 192,
          "midi": 85,
          "name": "C#6",
          "ticks": 1600,
          "time": 6.6371625000000005,
          "velocity": 0.3937007874015748
        },
        {
          "duration": 1.3274324999999996,
          "durationTicks": 320,
          "midi": 78,
          "name": "F#5",
          "ticks": 1792,
          "time": 7.433622000000001,
          "velocity": 0.3937007874015748
        },
        {
          "duration": 0.13274325000000076,
          "durationTicks": 32,
          "midi": 90,
          "name": "F#6",
          "ticks": 2240,
          "time": 9.2920275,
          "velocity": 0.3937007874015748
        },
        {
          "duration": 0.13274325000000076,
          "durationTicks": 32,
          "midi": 78,
          "name": "F#5",
          "ticks": 2240,
          "time": 9.2920275,
          "velocity": 0.3937007874015748
        },
        {
          "duration": 0.13274325000000076,
          "durationTicks": 32,
          "midi": 90,
          "name": "F#6",
          "ticks": 2272,
          "time": 9.42477075,
          "velocity": 0.3937007874015748
        },
        {
          "duration": 0.13274325000000076,
          "durationTicks": 32,
          "midi": 78,
          "name": "F#5",
          "ticks": 2272,
          "time": 9.42477075,
          "velocity": 0.3937007874015748
        },
        {
          "duration": 0.13274324999999898,
          "durationTicks": 32,
          "midi": 92,
          "name": "G#6",
          "ticks": 2304,
          "time": 9.557514000000001,
          "velocity": 0.3937007874015748
        },
        {
          "duration": 0.13274324999999898,
          "durationTicks": 32,
          "midi": 80,
          "name": "G#5",
          "ticks": 2304,
          "time": 9.557514000000001,
          "velocity": 0.3937007874015748
        },
        {
          "duration": 0.26548649999999974,
          "durationTicks": 64,
          "midi": 95,
          "name": "B6",
          "ticks": 2336,
          "time": 9.69025725,
          "velocity": 0.3937007874015748
        },
        {
          "duration": 0.26548649999999974,
          "durationTicks": 64,
          "midi": 83,
          "name": "B5",
          "ticks": 2336,
          "time": 9.69025725,
          "velocity": 0.3937007874015748
        },
        {
          "duration": 0.13274325000000076,
          "durationTicks": 32,
          "midi": 83,
          "name": "B5",
          "ticks": 2400,
          "time": 9.95574375,
          "velocity": 0.3937007874015748
        },
        {
          "duration": 0.13274325000000076,
          "durationTicks": 32,
          "midi": 95,
          "name": "B6",
          "ticks": 2400,
          "time": 9.95574375,
          "velocity": 0.3937007874015748
        },
        {
          "duration": 0.7964594999999992,
          "durationTicks": 192,
          "midi": 95,
          "name": "B6",
          "ticks": 2432,
          "time": 10.088487,
          "velocity": 0.3937007874015748
        },
        {
          "duration": 0.7964594999999992,
          "durationTicks": 192,
          "midi": 83,
          "name": "B5",
          "ticks": 2432,
          "time": 10.088487,
          "velocity": 0.3937007874015748
        },
        {
          "duration": 0.7964594999999992,
          "durationTicks": 192,
          "midi": 83,
          "name": "B5",
          "ticks": 2432,
          "time": 10.088487,
          "velocity": 0.3937007874015748
        },
        {
          "duration": 0.796459500000001,
          "durationTicks": 192,
          "midi": 85,
          "name": "C#6",
          "ticks": 2624,
          "time": 10.8849465,
          "velocity": 0.3937007874015748
        },
        {
          "duration": 0.5309729999999995,
          "durationTicks": 128,
          "midi": 78,
          "name": "F#5",
          "ticks": 2816,
          "time": 11.681406,
          "velocity": 0.3937007874015748
        },
        {
          "duration": 0.796459500000001,
          "durationTicks": 192,
          "midi": 85,
          "name": "C#6",
          "ticks": 2944,
          "time": 12.212379,
          "velocity": 0.3937007874015748
        },
        {
          "duration": 0.7964594999999992,
          "durationTicks": 192,
          "midi": 87,
          "name": "D#6",
          "ticks": 3136,
          "time": 13.008838500000001,
          "velocity": 0.3937007874015748
        },
        {
          "duration": 0.13274325000000076,
          "durationTicks": 32,
          "midi": 90,
          "name": "F#6",
          "ticks": 3328,
          "time": 13.805298,
          "velocity": 0.3937007874015748
        },
        {
          "duration": 0.13274325000000076,
          "durationTicks": 32,
          "midi": 90,
          "name": "F#6",
          "ticks": 3328,
          "time": 13.805298,
          "velocity": 0.3937007874015748
        },
        {
          "duration": 0.13274324999999898,
          "durationTicks": 32,
          "midi": 100,
          "name": "E7",
          "ticks": 3360,
          "time": 13.938041250000001,
          "velocity": 0.3937007874015748
        },
        {
          "duration": 0.13274324999999898,
          "durationTicks": 32,
          "midi": 88,
          "name": "E6",
          "ticks": 3360,
          "time": 13.938041250000001,
          "velocity": 0.3937007874015748
        },
        {
          "duration": 0.26548649999999974,
          "durationTicks": 64,
          "midi": 99,
          "name": "D#7",
          "ticks": 3392,
          "time": 14.0707845,
          "velocity": 0.3937007874015748
        },
        {
          "duration": 0.26548649999999974,
          "durationTicks": 64,
          "midi": 87,
          "name": "D#6",
          "ticks": 3392,
          "time": 14.0707845,
          "velocity": 0.3937007874015748
        },
        {
          "duration": 0.796459500000001,
          "durationTicks": 192,
          "midi": 95,
          "name": "B6",
          "ticks": 3456,
          "time": 14.336271,
          "velocity": 0.3937007874015748
        },
        {
          "duration": 0.796459500000001,
          "durationTicks": 192,
          "midi": 83,
          "name": "B5",
          "ticks": 3456,
          "time": 14.336271,
          "velocity": 0.3937007874015748
        },
        {
          "duration": 0.7964594999999992,
          "durationTicks": 192,
          "midi": 85,
          "name": "C#6",
          "ticks": 3648,
          "time": 15.132730500000001,
          "velocity": 0.3937007874015748
        },
        {
          "duration": 1.3274325000000022,
          "durationTicks": 320,
          "midi": 78,
          "name": "F#5",
          "ticks": 3840,
          "time": 15.92919,
          "velocity": 0.3937007874015748
        },
        {
          "duration": 0.26548649999999796,
          "durationTicks": 64,
          "midi": 82,
          "name": "A#5",
          "ticks": 3968,
          "time": 16.460163,
          "velocity": 0.3937007874015748
        },
        {
          "duration": 0.2654865000000015,
          "durationTicks": 64,
          "midi": 83,
          "name": "B5",
          "ticks": 4032,
          "time": 16.7256495,
          "velocity": 0.3937007874015748
        },
        {
          "duration": 0.5309729999999995,
          "durationTicks": 128,
          "midi": 83,
          "name": "B5",
          "ticks": 4096,
          "time": 16.991136,
          "velocity": 0.3937007874015748
        },
        {
          "duration": 0.13274325000000076,
          "durationTicks": 32,
          "midi": 83,
          "name": "B5",
          "ticks": 4352,
          "time": 18.053082,
          "velocity": 0.3937007874015748
        },
        {
          "duration": 0.13274325000000076,
          "durationTicks": 32,
          "midi": 95,
          "name": "B6",
          "ticks": 4352,
          "time": 18.053082,
          "velocity": 0.3937007874015748
        },
        {
          "duration": 0.2654865000000015,
          "durationTicks": 64,
          "midi": 83,
          "name": "B5",
          "ticks": 4384,
          "time": 18.18582525,
          "velocity": 0.3937007874015748
        },
        {
          "duration": 0.2654865000000015,
          "durationTicks": 64,
          "midi": 95,
          "name": "B6",
          "ticks": 4384,
          "time": 18.18582525,
          "velocity": 0.3937007874015748
        },
        {
          "duration": 0.1327432499999972,
          "durationTicks": 32,
          "midi": 95,
          "name": "B6",
          "ticks": 4448,
          "time": 18.451311750000002,
          "velocity": 0.3937007874015748
        },
        {
          "duration": 0.1327432499999972,
          "durationTicks": 32,
          "midi": 83,
          "name": "B5",
          "ticks": 4448,
          "time": 18.451311750000002,
          "velocity": 0.3937007874015748
        },
        {
          "duration": 0.2654865000000015,
          "durationTicks": 64,
          "midi": 90,
          "name": "F#6",
          "ticks": 6016,
          "time": 24.955731,
          "velocity": 0.3937007874015748
        },
        {
          "duration": 0.2654865000000015,
          "durationTicks": 64,
          "midi": 78,
          "name": "F#5",
          "ticks": 6016,
          "time": 24.955731,
          "velocity": 0.3937007874015748
        },
        {
          "duration": 0.2654865000000015,
          "durationTicks": 64,
          "midi": 78,
          "name": "F#5",
          "ticks": 6016,
          "time": 24.955731,
          "velocity": 0.3937007874015748
        },
        {
          "duration": 0.2654865000000015,
          "durationTicks": 64,
          "midi": 90,
          "name": "F#6",
          "ticks": 6016,
          "time": 24.955731,
          "velocity": 0.3937007874015748
        },
        {
          "duration": 0.26548649999999796,
          "durationTicks": 64,
          "midi": 78,
          "name": "F#5",
          "ticks": 6272,
          "time": 26.017677000000003,
          "velocity": 0.3937007874015748
        },
        {
          "duration": 0.26548649999999796,
          "durationTicks": 64,
          "midi": 90,
          "name": "F#6",
          "ticks": 6400,
          "time": 26.548650000000002,
          "velocity": 0.3937007874015748
        },
        {
          "duration": 0.2654865000000015,
          "durationTicks": 64,
          "midi": 85,
          "name": "C#6",
          "ticks": 6464,
          "time": 26.8141365,
          "velocity": 0.3937007874015748
        },
        {
          "duration": 1.3274325000000005,
          "durationTicks": 320,
          "midi": 83,
          "name": "B5",
          "ticks": 8576,
          "time": 35.575191000000004,
          "velocity": 0.3937007874015748
        },
        {
          "duration": 0.2654864999999944,
          "durationTicks": 64,
          "midi": 85,
          "name": "C#6",
          "ticks": 8896,
          "time": 36.902623500000004,
          "velocity": 0.3937007874015748
        },
        {
          "duration": 0.2654865000000015,
          "durationTicks": 64,
          "midi": 87,
          "name": "D#6",
          "ticks": 8960,
          "time": 37.16811,
          "velocity": 0.3937007874015748
        },
        {
          "duration": 0.2654865000000015,
          "durationTicks": 64,
          "midi": 83,
          "name": "B5",
          "ticks": 9024,
          "time": 37.4335965,
          "velocity": 0.3937007874015748
        },
        {
          "duration": 0.2654865000000015,
          "durationTicks": 64,
          "midi": 85,
          "name": "C#6",
          "ticks": 9088,
          "time": 37.699083,
          "velocity": 0.3937007874015748
        },
        {
          "duration": 0.2654865000000015,
          "durationTicks": 64,
          "midi": 97,
          "name": "C#7",
          "ticks": 9088,
          "time": 37.699083,
          "velocity": 0.3937007874015748
        },
        {
          "duration": 0.2654865000000015,
          "durationTicks": 64,
          "midi": 85,
          "name": "C#6",
          "ticks": 9152,
          "time": 37.9645695,
          "velocity": 0.3937007874015748
        },
        {
          "duration": 0.2654865000000015,
          "durationTicks": 64,
          "midi": 97,
          "name": "C#7",
          "ticks": 9152,
          "time": 37.9645695,
          "velocity": 0.3937007874015748
        },
        {
          "duration": 0.2654864999999944,
          "durationTicks": 64,
          "midi": 97,
          "name": "C#7",
          "ticks": 9216,
          "time": 38.230056000000005,
          "velocity": 0.3937007874015748
        },
        {
          "duration": 0.2654864999999944,
          "durationTicks": 64,
          "midi": 85,
          "name": "C#6",
          "ticks": 9216,
          "time": 38.230056000000005,
          "velocity": 0.3937007874015748
        },
        {
          "duration": 0.2654865000000015,
          "durationTicks": 64,
          "midi": 99,
          "name": "D#7",
          "ticks": 9280,
          "time": 38.4955425,
          "velocity": 0.3937007874015748
        },
        {
          "duration": 0.2654865000000015,
          "durationTicks": 64,
          "midi": 87,
          "name": "D#6",
          "ticks": 9280,
          "time": 38.4955425,
          "velocity": 0.3937007874015748
        },
        {
          "duration": 0.530973000000003,
          "durationTicks": 128,
          "midi": 97,
          "name": "C#7",
          "ticks": 9344,
          "time": 38.761029,
          "velocity": 0.3937007874015748
        },
        {
          "duration": 0.530973000000003,
          "durationTicks": 128,
          "midi": 85,
          "name": "C#6",
          "ticks": 9344,
          "time": 38.761029,
          "velocity": 0.3937007874015748
        },
        {
          "duration": 0.5309729999999959,
          "durationTicks": 128,
          "midi": 90,
          "name": "F#6",
          "ticks": 9472,
          "time": 39.292002000000004,
          "velocity": 0.3937007874015748
        },
        {
          "duration": 0.5309729999999959,
          "durationTicks": 128,
          "midi": 78,
          "name": "F#5",
          "ticks": 9472,
          "time": 39.292002000000004,
          "velocity": 0.3937007874015748
        },
        {
          "duration": 0.2654864999999944,
          "durationTicks": 64,
          "midi": 80,
          "name": "G#5",
          "ticks": 9856,
          "time": 40.884921000000006,
          "velocity": 0.3937007874015748
        },
        {
          "duration": 0.2654865000000015,
          "durationTicks": 64,
          "midi": 82,
          "name": "A#5",
          "ticks": 9920,
          "time": 41.1504075,
          "velocity": 0.3937007874015748
        },
        {
          "duration": 0.2654865000000015,
          "durationTicks": 64,
          "midi": 83,
          "name": "B5",
          "ticks": 9984,
          "time": 41.415894,
          "velocity": 0.3937007874015748
        },
        {
          "duration": 0.2654865000000015,
          "durationTicks": 64,
          "midi": 80,
          "name": "G#5",
          "ticks": 10048,
          "time": 41.6813805,
          "velocity": 0.3937007874015748
        },
        {
          "duration": 0.1327432499999972,
          "durationTicks": 32,
          "midi": 78,
          "name": "F#5",
          "ticks": 10112,
          "time": 41.946867000000005,
          "velocity": 0.3937007874015748
        },
        {
          "duration": 0.2654865000000015,
          "durationTicks": 64,
          "midi": 97,
          "name": "C#7",
          "ticks": 10176,
          "time": 42.2123535,
          "velocity": 0.3937007874015748
        },
        {
          "duration": 0.2654865000000015,
          "durationTicks": 64,
          "midi": 85,
          "name": "C#6",
          "ticks": 10176,
          "time": 42.2123535,
          "velocity": 0.3937007874015748
        },
        {
          "duration": 0.2654865000000015,
          "durationTicks": 64,
          "midi": 99,
          "name": "D#7",
          "ticks": 10240,
          "time": 42.47784,
          "velocity": 0.3937007874015748
        },
        {
          "duration": 0.2654865000000015,
          "durationTicks": 64,
          "midi": 87,
          "name": "D#6",
          "ticks": 10240,
          "time": 42.47784,
          "velocity": 0.3937007874015748
        },
        {
          "duration": 0.7964594999999974,
          "durationTicks": 192,
          "midi": 97,
          "name": "C#7",
          "ticks": 10304,
          "time": 42.7433265,
          "velocity": 0.3937007874015748
        },
        {
          "duration": 0.7964594999999974,
          "durationTicks": 192,
          "midi": 85,
          "name": "C#6",
          "ticks": 10304,
          "time": 42.7433265,
          "velocity": 0.3937007874015748
        },
        {
          "duration": 0.1327432500000043,
          "durationTicks": 32,
          "midi": 90,
          "name": "F#6",
          "ticks": 10496,
          "time": 43.539786,
          "velocity": 0.3937007874015748
        },
        {
          "duration": 0.1327432500000043,
          "durationTicks": 32,
          "midi": 78,
          "name": "F#5",
          "ticks": 10496,
          "time": 43.539786,
          "velocity": 0.3937007874015748
        },
        {
          "duration": 0.1327432499999972,
          "durationTicks": 32,
          "midi": 92,
          "name": "G#6",
          "ticks": 10528,
          "time": 43.672529250000004,
          "velocity": 0.3937007874015748
        },
        {
          "duration": 0.1327432499999972,
          "durationTicks": 32,
          "midi": 80,
          "name": "G#5",
          "ticks": 10528,
          "time": 43.672529250000004,
          "velocity": 0.3937007874015748
        },
        {
          "duration": 0.1327432500000043,
          "durationTicks": 32,
          "midi": 95,
          "name": "B6",
          "ticks": 10560,
          "time": 43.8052725,
          "velocity": 0.3937007874015748
        },
        {
          "duration": 0.1327432500000043,
          "durationTicks": 32,
          "midi": 83,
          "name": "B5",
          "ticks": 10560,
          "time": 43.8052725,
          "velocity": 0.3937007874015748
        },
        {
          "duration": 0.1327432499999972,
          "durationTicks": 32,
          "midi": 92,
          "name": "G#6",
          "ticks": 10592,
          "time": 43.938015750000005,
          "velocity": 0.3937007874015748
        },
        {
          "duration": 0.1327432499999972,
          "durationTicks": 32,
          "midi": 80,
          "name": "G#5",
          "ticks": 10592,
          "time": 43.938015750000005,
          "velocity": 0.3937007874015748
        },
        {
          "duration": 0.3982297499999987,
          "durationTicks": 96,
          "midi": 99,
          "name": "D#7",
          "ticks": 10624,
          "time": 44.070759,
          "velocity": 0.3937007874015748
        },
        {
          "duration": 0.530973000000003,
          "durationTicks": 128,
          "midi": 87,
          "name": "D#6",
          "ticks": 10624,
          "time": 44.070759,
          "velocity": 0.3937007874015748
        },
        {
          "duration": 0.7964594999999974,
          "durationTicks": 192,
          "midi": 40,
          "name": "E2",
          "ticks": 10624,
          "time": 44.070759,
          "velocity": 0.3937007874015748
        },
        {
          "duration": 0.3982297499999987,
          "durationTicks": 96,
          "midi": 99,
          "name": "D#7",
          "ticks": 10720,
          "time": 44.46898875,
          "velocity": 0.3937007874015748
        },
        {
          "duration": 0.7964595000000045,
          "durationTicks": 192,
          "midi": 97,
          "name": "C#7",
          "ticks": 10816,
          "time": 44.8672185,
          "velocity": 0.3937007874015748
        },
        {
          "duration": 1.3274325000000005,
          "durationTicks": 320,
          "midi": 42,
          "name": "F#2",
          "ticks": 10816,
          "time": 44.8672185,
          "velocity": 0.3937007874015748
        },
        {
          "duration": 0.5309729999999959,
          "durationTicks": 128,
          "midi": 90,
          "name": "F#6",
          "ticks": 11008,
          "time": 45.663678000000004,
          "velocity": 0.3937007874015748
        },
        {
          "duration": 0.3982297499999987,
          "durationTicks": 96,
          "midi": 97,
          "name": "C#7",
          "ticks": 11136,
          "time": 46.194651,
          "velocity": 0.3937007874015748
        },
        {
          "duration": 0.7964595000000045,
          "durationTicks": 192,
          "midi": 42,
          "name": "F#2",
          "ticks": 11136,
          "time": 46.194651,
          "velocity": 0.3937007874015748
        },
        {
          "duration": 0.3982297500000058,
          "durationTicks": 96,
          "midi": 97,
          "name": "C#7",
          "ticks": 11232,
          "time": 46.59288075,
          "velocity": 0.3937007874015748
        },
        {
          "duration": 0.3982297499999987,
          "durationTicks": 96,
          "midi": 95,
          "name": "B6",
          "ticks": 11328,
          "time": 46.991110500000005,
          "velocity": 0.3937007874015748
        },
        {
          "duration": 0.1327432499999972,
          "durationTicks": 32,
          "midi": 94,
          "name": "A#6",
          "ticks": 11424,
          "time": 47.389340250000004,
          "velocity": 0.3937007874015748
        },
        {
          "duration": 0.2654865000000015,
          "durationTicks": 64,
          "midi": 92,
          "name": "G#6",
          "ticks": 11456,
          "time": 47.5220835,
          "velocity": 0.3937007874015748
        },
        {
          "duration": 0.1327432499999972,
          "durationTicks": 32,
          "midi": 90,
          "name": "F#6",
          "ticks": 11520,
          "time": 47.78757,
          "velocity": 0.3937007874015748
        },
        {
          "duration": 0.1327432500000043,
          "durationTicks": 32,
          "midi": 100,
          "name": "E7",
          "ticks": 11552,
          "time": 47.92031325,
          "velocity": 0.3937007874015748
        },
        {
          "duration": 0.2654865000000015,
          "durationTicks": 64,
          "midi": 99,
          "name": "D#7",
          "ticks": 11584,
          "time": 48.053056500000004,
          "velocity": 0.3937007874015748
        },
        {
          "duration": 1.061946000000006,
          "durationTicks": 256,
          "midi": 90,
          "name": "F#6",
          "ticks": 12032,
          "time": 49.911462,
          "velocity": 0.3937007874015748
        },
        {
          "duration": 0.1327432499999972,
          "durationTicks": 32,
          "midi": 90,
          "name": "F#6",
          "ticks": 12480,
          "time": 51.769867500000004,
          "velocity": 0.3937007874015748
        },
        {
          "duration": 0.1327432500000043,
          "durationTicks": 32,
          "midi": 90,
          "name": "F#6",
          "ticks": 12512,
          "time": 51.90261075,
          "velocity": 0.3937007874015748
        },
        {
          "duration": 0.1327432499999972,
          "durationTicks": 32,
          "midi": 90,
          "name": "F#6",
          "ticks": 12544,
          "time": 52.035354000000005,
          "velocity": 0.3937007874015748
        },
        {
          "duration": 0.2654865000000015,
          "durationTicks": 64,
          "midi": 95,
          "name": "B6",
          "ticks": 12576,
          "time": 52.16809725,
          "velocity": 0.3937007874015748
        },
        {
          "duration": 0.1327432499999972,
          "durationTicks": 32,
          "midi": 95,
          "name": "B6",
          "ticks": 12640,
          "time": 52.433583750000004,
          "velocity": 0.3937007874015748
        },
        {
          "duration": 0.3982297499999987,
          "durationTicks": 96,
          "midi": 99,
          "name": "D#7",
          "ticks": 12672,
          "time": 52.566327,
          "velocity": 0.3937007874015748
        },
        {
          "duration": 0.3982297500000058,
          "durationTicks": 96,
          "midi": 99,
          "name": "D#7",
          "ticks": 12768,
          "time": 52.96455675,
          "velocity": 0.3937007874015748
        },
        {
          "duration": 0.7964594999999974,
          "durationTicks": 192,
          "midi": 97,
          "name": "C#7",
          "ticks": 12864,
          "time": 53.362786500000006,
          "velocity": 0.3937007874015748
        },
        {
          "duration": 0.5309729999999959,
          "durationTicks": 128,
          "midi": 78,
          "name": "F#5",
          "ticks": 13184,
          "time": 54.690219000000006,
          "velocity": 0.3937007874015748
        },
        {
          "duration": 0.3982297499999987,
          "durationTicks": 96,
          "midi": 95,
          "name": "B6",
          "ticks": 13376,
          "time": 55.486678500000004,
          "velocity": 0.3937007874015748
        },
        {
          "duration": 0.1327432499999972,
          "durationTicks": 32,
          "midi": 94,
          "name": "A#6",
          "ticks": 13472,
          "time": 55.88490825,
          "velocity": 0.3937007874015748
        },
        {
          "duration": 0.2654865000000015,
          "durationTicks": 64,
          "midi": 92,
          "name": "G#6",
          "ticks": 13504,
          "time": 56.0176515,
          "velocity": 0.3937007874015748
        },
        {
          "duration": 0.1327432500000043,
          "durationTicks": 32,
          "midi": 90,
          "name": "F#6",
          "ticks": 13568,
          "time": 56.283138,
          "velocity": 0.3937007874015748
        },
        {
          "duration": 0.1327432499999972,
          "durationTicks": 32,
          "midi": 100,
          "name": "E7",
          "ticks": 13600,
          "time": 56.415881250000005,
          "velocity": 0.3937007874015748
        },
        {
          "duration": 0.2654865000000015,
          "durationTicks": 64,
          "midi": 99,
          "name": "D#7",
          "ticks": 13632,
          "time": 56.5486245,
          "velocity": 0.3937007874015748
        },
        {
          "duration": 0.2654865000000015,
          "durationTicks": 64,
          "midi": 97,
          "name": "C#7",
          "ticks": 13824,
          "time": 57.345084,
          "velocity": 0.3937007874015748
        },
        {
          "duration": 0.3982297499999987,
          "durationTicks": 96,
          "midi": 94,
          "name": "A#6",
          "ticks": 13888,
          "time": 57.6105705,
          "velocity": 0.3937007874015748
        },
        {
          "duration": 0.1327432500000043,
          "durationTicks": 32,
          "midi": 92,
          "name": "G#6",
          "ticks": 13984,
          "time": 58.00880025,
          "velocity": 0.3937007874015748
        },
        {
          "duration": 0.5309729999999959,
          "durationTicks": 128,
          "midi": 90,
          "name": "F#6",
          "ticks": 14016,
          "time": 58.141543500000004,
          "velocity": 0.3937007874015748
        },
        {
          "duration": 0.2654865000000015,
          "durationTicks": 64,
          "midi": 90,
          "name": "F#6",
          "ticks": 14144,
          "time": 58.6725165,
          "velocity": 0.3937007874015748
        },
        {
          "duration": 0.530973000000003,
          "durationTicks": 128,
          "midi": 97,
          "name": "C#7",
          "ticks": 14208,
          "time": 58.938003,
          "velocity": 0.3937007874015748
        },
        {
          "duration": 1.061945999999999,
          "durationTicks": 256,
          "midi": 95,
          "name": "B6",
          "ticks": 14336,
          "time": 59.468976000000005,
          "velocity": 0.3937007874015748
        },
        {
          "duration": 2.123892000000005,
          "durationTicks": 512,
          "midi": 80,
          "name": "G#5",
          "ticks": 14720,
          "time": 61.061895,
          "velocity": 0.3937007874015748
        },
        {
          "duration": 0.2654865000000015,
          "durationTicks": 64,
          "midi": 40,
          "name": "E2",
          "ticks": 14784,
          "time": 61.3273815,
          "velocity": 0.3937007874015748
        },
        {
          "duration": 0.2654865000000015,
          "durationTicks": 64,
          "midi": 40,
          "name": "E2",
          "ticks": 14848,
          "time": 61.592868,
          "velocity": 0.3937007874015748
        },
        {
          "duration": 0.2654864999999944,
          "durationTicks": 64,
          "midi": 40,
          "name": "E2",
          "ticks": 14976,
          "time": 62.123841000000006,
          "velocity": 0.3937007874015748
        },
        {
          "duration": 0.530973000000003,
          "durationTicks": 128,
          "midi": 40,
          "name": "E2",
          "ticks": 15040,
          "time": 62.3893275,
          "velocity": 0.3937007874015748
        },
        {
          "duration": 1.5929189999999949,
          "durationTicks": 384,
          "midi": 82,
          "name": "A#5",
          "ticks": 15232,
          "time": 63.185787000000005,
          "velocity": 0.3937007874015748
        },
        {
          "duration": 0.2654864999999944,
          "durationTicks": 64,
          "midi": 42,
          "name": "F#2",
          "ticks": 15296,
          "time": 63.451273500000006,
          "velocity": 0.3937007874015748
        },
        {
          "duration": 0.2654865000000015,
          "durationTicks": 64,
          "midi": 42,
          "name": "F#2",
          "ticks": 15360,
          "time": 63.71676,
          "velocity": 0.3937007874015748
        },
        {
          "duration": 0.2654865000000086,
          "durationTicks": 64,
          "midi": 42,
          "name": "F#2",
          "ticks": 15488,
          "time": 64.247733,
          "velocity": 0.3937007874015748
        },
        {
          "duration": 0.530973000000003,
          "durationTicks": 128,
          "midi": 42,
          "name": "F#2",
          "ticks": 15552,
          "time": 64.5132195,
          "velocity": 0.3937007874015748
        },
        {
          "duration": 0.530973000000003,
          "durationTicks": 128,
          "midi": 80,
          "name": "G#5",
          "ticks": 15616,
          "time": 64.778706,
          "velocity": 0.3937007874015748
        },
        {
          "duration": 2.123891999999998,
          "durationTicks": 512,
          "midi": 80,
          "name": "G#5",
          "ticks": 15744,
          "time": 65.309679,
          "velocity": 0.3937007874015748
        },
        {
          "duration": 0.2654865000000086,
          "durationTicks": 64,
          "midi": 40,
          "name": "E2",
          "ticks": 15808,
          "time": 65.5751655,
          "velocity": 0.3937007874015748
        },
        {
          "duration": 0.2654864999999944,
          "durationTicks": 64,
          "midi": 40,
          "name": "E2",
          "ticks": 15872,
          "time": 65.840652,
          "velocity": 0.3937007874015748
        },
        {
          "duration": 0.2654864999999944,
          "durationTicks": 64,
          "midi": 40,
          "name": "E2",
          "ticks": 16000,
          "time": 66.37162500000001,
          "velocity": 0.3937007874015748
        },
        {
          "duration": 0.530973000000003,
          "durationTicks": 128,
          "midi": 40,
          "name": "E2",
          "ticks": 16064,
          "time": 66.6371115,
          "velocity": 0.3937007874015748
        },
        {
          "duration": 2.123891999999998,
          "durationTicks": 512,
          "midi": 82,
          "name": "A#5",
          "ticks": 16256,
          "time": 67.433571,
          "velocity": 0.3937007874015748
        },
        {
          "duration": 0.2654864999999944,
          "durationTicks": 64,
          "midi": 78,
          "name": "F#5",
          "ticks": 16320,
          "time": 67.69905750000001,
          "velocity": 0.3937007874015748
        },
        {
          "duration": 0.2654864999999944,
          "durationTicks": 64,
          "midi": 42,
          "name": "F#2",
          "ticks": 16320,
          "time": 67.69905750000001,
          "velocity": 0.3937007874015748
        },
        {
          "duration": 0.2654864999999944,
          "durationTicks": 64,
          "midi": 78,
          "name": "F#5",
          "ticks": 16320,
          "time": 67.69905750000001,
          "velocity": 0.3937007874015748
        },
        {
          "duration": 0.2654864999999944,
          "durationTicks": 64,
          "midi": 78,
          "name": "F#5",
          "ticks": 16384,
          "time": 67.964544,
          "velocity": 0.3937007874015748
        },
        {
          "duration": 0.2654864999999944,
          "durationTicks": 64,
          "midi": 78,
          "name": "F#5",
          "ticks": 16384,
          "time": 67.964544,
          "velocity": 0.3937007874015748
        },
        {
          "duration": 0.2654864999999944,
          "durationTicks": 64,
          "midi": 42,
          "name": "F#2",
          "ticks": 16384,
          "time": 67.964544,
          "velocity": 0.3937007874015748
        },
        {
          "duration": 0.2654864999999944,
          "durationTicks": 64,
          "midi": 42,
          "name": "F#2",
          "ticks": 16512,
          "time": 68.495517,
          "velocity": 0.3937007874015748
        },
        {
          "duration": 0.530973000000003,
          "durationTicks": 128,
          "midi": 42,
          "name": "F#2",
          "ticks": 16576,
          "time": 68.7610035,
          "velocity": 0.3937007874015748
        },
        {
          "duration": 0.2654865000000086,
          "durationTicks": 64,
          "midi": 85,
          "name": "C#6",
          "ticks": 16768,
          "time": 69.557463,
          "velocity": 0.3937007874015748
        },
        {
          "duration": 0.2654864999999944,
          "durationTicks": 64,
          "midi": 40,
          "name": "E2",
          "ticks": 16832,
          "time": 69.82294950000001,
          "velocity": 0.3937007874015748
        },
        {
          "duration": 0.2654864999999944,
          "durationTicks": 64,
          "midi": 83,
          "name": "B5",
          "ticks": 16832,
          "time": 69.82294950000001,
          "velocity": 0.3937007874015748
        },
        {
          "duration": 1.592919000000009,
          "durationTicks": 384,
          "midi": 80,
          "name": "G#5",
          "ticks": 16896,
          "time": 70.088436,
          "velocity": 0.3937007874015748
        },
        {
          "duration": 0.2654865000000086,
          "durationTicks": 64,
          "midi": 40,
          "name": "E2",
          "ticks": 16896,
          "time": 70.088436,
          "velocity": 0.3937007874015748
        },
        {
          "duration": 0.2654864999999944,
          "durationTicks": 64,
          "midi": 40,
          "name": "E2",
          "ticks": 17024,
          "time": 70.619409,
          "velocity": 0.3937007874015748
        },
        {
          "duration": 0.530973000000003,
          "durationTicks": 128,
          "midi": 40,
          "name": "E2",
          "ticks": 17088,
          "time": 70.8848955,
          "velocity": 0.3937007874015748
        },
        {
          "duration": 1.5929189999999949,
          "durationTicks": 384,
          "midi": 82,
          "name": "A#5",
          "ticks": 17280,
          "time": 71.68135500000001,
          "velocity": 0.3937007874015748
        },
        {
          "duration": 0.2654864999999944,
          "durationTicks": 64,
          "midi": 42,
          "name": "F#2",
          "ticks": 17344,
          "time": 71.9468415,
          "velocity": 0.3937007874015748
        },
        {
          "duration": 0.2654865000000086,
          "durationTicks": 64,
          "midi": 42,
          "name": "F#2",
          "ticks": 17408,
          "time": 72.212328,
          "velocity": 0.3937007874015748
        },
        {
          "duration": 0.2654864999999944,
          "durationTicks": 64,
          "midi": 42,
          "name": "F#2",
          "ticks": 17536,
          "time": 72.743301,
          "velocity": 0.3937007874015748
        },
        {
          "duration": 0.530973000000003,
          "durationTicks": 128,
          "midi": 42,
          "name": "F#2",
          "ticks": 17600,
          "time": 73.0087875,
          "velocity": 0.3937007874015748
        },
        {
          "duration": 0.530973000000003,
          "durationTicks": 128,
          "midi": 80,
          "name": "G#5",
          "ticks": 17664,
          "time": 73.274274,
          "velocity": 0.3937007874015748
        },
        {
          "duration": 1.0619459999999918,
          "durationTicks": 256,
          "midi": 80,
          "name": "G#5",
          "ticks": 17792,
          "time": 73.80524700000001,
          "velocity": 0.3937007874015748
        },
        {
          "duration": 0.2654864999999944,
          "durationTicks": 64,
          "midi": 40,
          "name": "E2",
          "ticks": 17856,
          "time": 74.0707335,
          "velocity": 0.3937007874015748
        },
        {
          "duration": 0.2654865000000086,
          "durationTicks": 64,
          "midi": 40,
          "name": "E2",
          "ticks": 17920,
          "time": 74.33622,
          "velocity": 0.3937007874015748
        },
        {
          "duration": 1.061946000000006,
          "durationTicks": 256,
          "midi": 80,
          "name": "G#5",
          "ticks": 18048,
          "time": 74.867193,
          "velocity": 0.3937007874015748
        },
        {
          "duration": 0.2654865000000086,
          "durationTicks": 64,
          "midi": 37,
          "name": "C#2",
          "ticks": 18048,
          "time": 74.867193,
          "velocity": 0.3937007874015748
        },
        {
          "duration": 0.5309729999999888,
          "durationTicks": 128,
          "midi": 37,
          "name": "C#2",
          "ticks": 18112,
          "time": 75.13267950000001,
          "velocity": 0.3937007874015748
        },
        {
          "duration": 1.5929189999999949,
          "durationTicks": 384,
          "midi": 82,
          "name": "A#5",
          "ticks": 18304,
          "time": 75.929139,
          "velocity": 0.3937007874015748
        },
        {
          "duration": 0.2654865000000086,
          "durationTicks": 64,
          "midi": 97,
          "name": "C#7",
          "ticks": 18368,
          "time": 76.1946255,
          "velocity": 0.3937007874015748
        },
        {
          "duration": 0.2654865000000086,
          "durationTicks": 64,
          "midi": 42,
          "name": "F#2",
          "ticks": 18368,
          "time": 76.1946255,
          "velocity": 0.3937007874015748
        },
        {
          "duration": 0.2654864999999944,
          "durationTicks": 64,
          "midi": 97,
          "name": "C#7",
          "ticks": 18432,
          "time": 76.46011200000001,
          "velocity": 0.3937007874015748
        },
        {
          "duration": 0.2654864999999944,
          "durationTicks": 64,
          "midi": 42,
          "name": "F#2",
          "ticks": 18432,
          "time": 76.46011200000001,
          "velocity": 0.3937007874015748
        },
        {
          "duration": 0.530973000000003,
          "durationTicks": 128,
          "midi": 99,
          "name": "D#7",
          "ticks": 18496,
          "time": 76.7255985,
          "velocity": 0.3937007874015748
        },
        {
          "duration": 0.2654865000000086,
          "durationTicks": 64,
          "midi": 42,
          "name": "F#2",
          "ticks": 18560,
          "time": 76.991085,
          "velocity": 0.3937007874015748
        },
        {
          "duration": 0.7964594999999974,
          "durationTicks": 192,
          "midi": 97,
          "name": "C#7",
          "ticks": 18624,
          "time": 77.2565715,
          "velocity": 0.3937007874015748
        },
        {
          "duration": 0.530973000000003,
          "durationTicks": 128,
          "midi": 42,
          "name": "F#2",
          "ticks": 18624,
          "time": 77.2565715,
          "velocity": 0.3937007874015748
        },
        {
          "duration": 0.530973000000003,
          "durationTicks": 128,
          "midi": 80,
          "name": "G#5",
          "ticks": 18688,
          "time": 77.522058,
          "velocity": 0.3937007874015748
        },
        {
          "duration": 1.3274325000000005,
          "durationTicks": 320,
          "midi": 95,
          "name": "B6",
          "ticks": 18816,
          "time": 78.053031,
          "velocity": 0.3937007874015748
        },
        {
          "duration": 1.3274325000000005,
          "durationTicks": 320,
          "midi": 83,
          "name": "B5",
          "ticks": 18816,
          "time": 78.053031,
          "velocity": 0.3937007874015748
        },
        {
          "duration": 0.2654864999999944,
          "durationTicks": 64,
          "midi": 97,
          "name": "C#7",
          "ticks": 19136,
          "time": 79.3804635,
          "velocity": 0.3937007874015748
        },
        {
          "duration": 0.2654864999999944,
          "durationTicks": 64,
          "midi": 85,
          "name": "C#6",
          "ticks": 19136,
          "time": 79.3804635,
          "velocity": 0.3937007874015748
        },
        {
          "duration": 0.2654865000000086,
          "durationTicks": 64,
          "midi": 99,
          "name": "D#7",
          "ticks": 19200,
          "time": 79.64595,
          "velocity": 0.3937007874015748
        },
        {
          "duration": 0.2654865000000086,
          "durationTicks": 64,
          "midi": 87,
          "name": "D#6",
          "ticks": 19200,
          "time": 79.64595,
          "velocity": 0.3937007874015748
        },
        {
          "duration": 0.530973000000003,
          "durationTicks": 128,
          "midi": 97,
          "name": "C#7",
          "ticks": 19264,
          "time": 79.91143650000001,
          "velocity": 0.3937007874015748
        },
        {
          "duration": 0.530973000000003,
          "durationTicks": 128,
          "midi": 85,
          "name": "C#6",
          "ticks": 19264,
          "time": 79.91143650000001,
          "velocity": 0.3937007874015748
        },
        {
          "duration": 0.2654864999999944,
          "durationTicks": 64,
          "midi": 97,
          "name": "C#7",
          "ticks": 19392,
          "time": 80.44240950000001,
          "velocity": 0.3937007874015748
        },
        {
          "duration": 0.2654864999999944,
          "durationTicks": 64,
          "midi": 85,
          "name": "C#6",
          "ticks": 19392,
          "time": 80.44240950000001,
          "velocity": 0.3937007874015748
        },
        {
          "duration": 0.2654864999999944,
          "durationTicks": 64,
          "midi": 85,
          "name": "C#6",
          "ticks": 19456,
          "time": 80.707896,
          "velocity": 0.3937007874015748
        },
        {
          "duration": 0.2654864999999944,
          "durationTicks": 64,
          "midi": 97,
          "name": "C#7",
          "ticks": 19456,
          "time": 80.707896,
          "velocity": 0.3937007874015748
        },
        {
          "duration": 0.2654865000000086,
          "durationTicks": 64,
          "midi": 99,
          "name": "D#7",
          "ticks": 19520,
          "time": 80.9733825,
          "velocity": 0.3937007874015748
        },
        {
          "duration": 0.2654865000000086,
          "durationTicks": 64,
          "midi": 87,
          "name": "D#6",
          "ticks": 19520,
          "time": 80.9733825,
          "velocity": 0.3937007874015748
        },
        {
          "duration": 0.2654864999999944,
          "durationTicks": 64,
          "midi": 97,
          "name": "C#7",
          "ticks": 19584,
          "time": 81.23886900000001,
          "velocity": 0.3937007874015748
        },
        {
          "duration": 0.2654864999999944,
          "durationTicks": 64,
          "midi": 85,
          "name": "C#6",
          "ticks": 19584,
          "time": 81.23886900000001,
          "velocity": 0.3937007874015748
        },
        {
          "duration": 0.2654865000000086,
          "durationTicks": 64,
          "midi": 90,
          "name": "F#6",
          "ticks": 19648,
          "time": 81.5043555,
          "velocity": 0.3937007874015748
        },
        {
          "duration": 0.2654865000000086,
          "durationTicks": 64,
          "midi": 78,
          "name": "F#5",
          "ticks": 19648,
          "time": 81.5043555,
          "velocity": 0.3937007874015748
        },
        {
          "duration": 0.5309729999999888,
          "durationTicks": 128,
          "midi": 90,
          "name": "F#6",
          "ticks": 19712,
          "time": 81.76984200000001,
          "velocity": 0.3937007874015748
        },
        {
          "duration": 0.5309729999999888,
          "durationTicks": 128,
          "midi": 78,
          "name": "F#5",
          "ticks": 19712,
          "time": 81.76984200000001,
          "velocity": 0.3937007874015748
        },
        {
          "duration": 0.2654865000000086,
          "durationTicks": 64,
          "midi": 78,
          "name": "F#5",
          "ticks": 20032,
          "time": 83.0972745,
          "velocity": 0.3937007874015748
        },
        {
          "duration": 0.2654864999999944,
          "durationTicks": 64,
          "midi": 80,
          "name": "G#5",
          "ticks": 20096,
          "time": 83.362761,
          "velocity": 0.3937007874015748
        },
        {
          "duration": 0.2654865000000086,
          "durationTicks": 64,
          "midi": 82,
          "name": "A#5",
          "ticks": 20160,
          "time": 83.6282475,
          "velocity": 0.3937007874015748
        },
        {
          "duration": 0.2654864999999944,
          "durationTicks": 64,
          "midi": 83,
          "name": "B5",
          "ticks": 20224,
          "time": 83.89373400000001,
          "velocity": 0.3937007874015748
        },
        {
          "duration": 0.2654864999999944,
          "durationTicks": 64,
          "midi": 80,
          "name": "G#5",
          "ticks": 20288,
          "time": 84.1592205,
          "velocity": 0.3937007874015748
        },
        {
          "duration": 0.1327432500000043,
          "durationTicks": 32,
          "midi": 78,
          "name": "F#5",
          "ticks": 20352,
          "time": 84.424707,
          "velocity": 0.3937007874015748
        },
        {
          "duration": 0.1327432500000043,
          "durationTicks": 32,
          "midi": 42,
          "name": "F#2",
          "ticks": 20352,
          "time": 84.424707,
          "velocity": 0.3937007874015748
        },
        {
          "duration": 0.2654864999999944,
          "durationTicks": 64,
          "midi": 85,
          "name": "C#6",
          "ticks": 20416,
          "time": 84.6901935,
          "velocity": 0.3937007874015748
        },
        {
          "duration": 0.2654864999999944,
          "durationTicks": 64,
          "midi": 97,
          "name": "C#7",
          "ticks": 20416,
          "time": 84.6901935,
          "velocity": 0.3937007874015748
        },
        {
          "duration": 0.2654865000000086,
          "durationTicks": 64,
          "midi": 99,
          "name": "D#7",
          "ticks": 20480,
          "time": 84.95568,
          "velocity": 0.3937007874015748
        },
        {
          "duration": 0.2654865000000086,
          "durationTicks": 64,
          "midi": 87,
          "name": "D#6",
          "ticks": 20480,
          "time": 84.95568,
          "velocity": 0.3937007874015748
        },
        {
          "duration": 0.7964594999999974,
          "durationTicks": 192,
          "midi": 85,
          "name": "C#6",
          "ticks": 20544,
          "time": 85.22116650000001,
          "velocity": 0.3937007874015748
        },
        {
          "duration": 0.7964594999999974,
          "durationTicks": 192,
          "midi": 97,
          "name": "C#7",
          "ticks": 20544,
          "time": 85.22116650000001,
          "velocity": 0.3937007874015748
        },
        {
          "duration": 0.1327432500000043,
          "durationTicks": 32,
          "midi": 90,
          "name": "F#6",
          "ticks": 20736,
          "time": 86.017626,
          "velocity": 0.3937007874015748
        },
        {
          "duration": 0.1327432500000043,
          "durationTicks": 32,
          "midi": 78,
          "name": "F#5",
          "ticks": 20736,
          "time": 86.017626,
          "velocity": 0.3937007874015748
        },
        {
          "duration": 0.1327432499999901,
          "durationTicks": 32,
          "midi": 92,
          "name": "G#6",
          "ticks": 20768,
          "time": 86.15036925000001,
          "velocity": 0.3937007874015748
        },
        {
          "duration": 0.1327432499999901,
          "durationTicks": 32,
          "midi": 80,
          "name": "G#5",
          "ticks": 20768,
          "time": 86.15036925000001,
          "velocity": 0.3937007874015748
        },
        {
          "duration": 0.1327432500000043,
          "durationTicks": 32,
          "midi": 95,
          "name": "B6",
          "ticks": 20800,
          "time": 86.2831125,
          "velocity": 0.3937007874015748
        },
        {
          "duration": 0.1327432500000043,
          "durationTicks": 32,
          "midi": 83,
          "name": "B5",
          "ticks": 20800,
          "time": 86.2831125,
          "velocity": 0.3937007874015748
        },
        {
          "duration": 0.1327432500000043,
          "durationTicks": 32,
          "midi": 92,
          "name": "G#6",
          "ticks": 20832,
          "time": 86.41585575,
          "velocity": 0.3937007874015748
        },
        {
          "duration": 0.1327432500000043,
          "durationTicks": 32,
          "midi": 80,
          "name": "G#5",
          "ticks": 20832,
          "time": 86.41585575,
          "velocity": 0.3937007874015748
        },
        {
          "duration": 0.3982297499999987,
          "durationTicks": 96,
          "midi": 99,
          "name": "D#7",
          "ticks": 20864,
          "time": 86.54859900000001,
          "velocity": 0.3937007874015748
        },
        {
          "duration": 0.5309729999999888,
          "durationTicks": 128,
          "midi": 87,
          "name": "D#6",
          "ticks": 20864,
          "time": 86.54859900000001,
          "velocity": 0.3937007874015748
        },
        {
          "duration": 0.7964594999999974,
          "durationTicks": 192,
          "midi": 40,
          "name": "E2",
          "ticks": 20864,
          "time": 86.54859900000001,
          "velocity": 0.3937007874015748
        },
        {
          "duration": 0.3982297499999987,
          "durationTicks": 96,
          "midi": 99,
          "name": "D#7",
          "ticks": 20960,
          "time": 86.94682875000001,
          "velocity": 0.3937007874015748
        },
        {
          "duration": 0.7964594999999974,
          "durationTicks": 192,
          "midi": 97,
          "name": "C#7",
          "ticks": 21056,
          "time": 87.34505850000001,
          "velocity": 0.3937007874015748
        },
        {
          "duration": 1.3274325000000005,
          "durationTicks": 320,
          "midi": 42,
          "name": "F#2",
          "ticks": 21056,
          "time": 87.34505850000001,
          "velocity": 0.3937007874015748
        },
        {
          "duration": 0.530973000000003,
          "durationTicks": 128,
          "midi": 90,
          "name": "F#6",
          "ticks": 21248,
          "time": 88.141518,
          "velocity": 0.3937007874015748
        },
        {
          "duration": 0.7964594999999974,
          "durationTicks": 192,
          "midi": 42,
          "name": "F#2",
          "ticks": 21376,
          "time": 88.67249100000001,
          "velocity": 0.3937007874015748
        },
        {
          "duration": 0.3982297499999987,
          "durationTicks": 96,
          "midi": 97,
          "name": "C#7",
          "ticks": 21376,
          "time": 88.67249100000001,
          "velocity": 0.3937007874015748
        },
        {
          "duration": 0.3982297499999987,
          "durationTicks": 96,
          "midi": 97,
          "name": "C#7",
          "ticks": 21472,
          "time": 89.07072075,
          "velocity": 0.3937007874015748
        },
        {
          "duration": 0.3982297499999987,
          "durationTicks": 96,
          "midi": 95,
          "name": "B6",
          "ticks": 21568,
          "time": 89.4689505,
          "velocity": 0.3937007874015748
        },
        {
          "duration": 0.1327432500000043,
          "durationTicks": 32,
          "midi": 94,
          "name": "A#6",
          "ticks": 21664,
          "time": 89.86718025,
          "velocity": 0.3937007874015748
        },
        {
          "duration": 0.2654864999999944,
          "durationTicks": 64,
          "midi": 92,
          "name": "G#6",
          "ticks": 21696,
          "time": 89.99992350000001,
          "velocity": 0.3937007874015748
        },
        {
          "duration": 0.1327432500000043,
          "durationTicks": 32,
          "midi": 90,
          "name": "F#6",
          "ticks": 21760,
          "time": 90.26541,
          "velocity": 0.3937007874015748
        },
        {
          "duration": 0.1327432500000043,
          "durationTicks": 32,
          "midi": 100,
          "name": "E7",
          "ticks": 21792,
          "time": 90.39815325000001,
          "velocity": 0.3937007874015748
        },
        {
          "duration": 0.2654864999999944,
          "durationTicks": 64,
          "midi": 99,
          "name": "D#7",
          "ticks": 21824,
          "time": 90.53089650000001,
          "velocity": 0.3937007874015748
        },
        {
          "duration": 1.061946000000006,
          "durationTicks": 256,
          "midi": 90,
          "name": "F#6",
          "ticks": 22272,
          "time": 92.389302,
          "velocity": 0.3937007874015748
        },
        {
          "duration": 0.1327432500000043,
          "durationTicks": 32,
          "midi": 90,
          "name": "F#6",
          "ticks": 22720,
          "time": 94.2477075,
          "velocity": 0.3937007874015748
        },
        {
          "duration": 0.1327432499999901,
          "durationTicks": 32,
          "midi": 90,
          "name": "F#6",
          "ticks": 22752,
          "time": 94.38045075000001,
          "velocity": 0.3937007874015748
        },
        {
          "duration": 0.1327432500000043,
          "durationTicks": 32,
          "midi": 90,
          "name": "F#6",
          "ticks": 22784,
          "time": 94.513194,
          "velocity": 0.3937007874015748
        },
        {
          "duration": 0.2654865000000086,
          "durationTicks": 64,
          "midi": 95,
          "name": "B6",
          "ticks": 22816,
          "time": 94.64593725,
          "velocity": 0.3937007874015748
        },
        {
          "duration": 0.1327432499999901,
          "durationTicks": 32,
          "midi": 95,
          "name": "B6",
          "ticks": 22880,
          "time": 94.91142375000001,
          "velocity": 0.3937007874015748
        },
        {
          "duration": 0.3982297499999987,
          "durationTicks": 96,
          "midi": 99,
          "name": "D#7",
          "ticks": 22912,
          "time": 95.044167,
          "velocity": 0.3937007874015748
        },
        {
          "duration": 0.3982297499999987,
          "durationTicks": 96,
          "midi": 99,
          "name": "D#7",
          "ticks": 23008,
          "time": 95.44239675,
          "velocity": 0.3937007874015748
        },
        {
          "duration": 0.7964595000000116,
          "durationTicks": 192,
          "midi": 97,
          "name": "C#7",
          "ticks": 23104,
          "time": 95.8406265,
          "velocity": 0.3937007874015748
        },
        {
          "duration": 0.530973000000003,
          "durationTicks": 128,
          "midi": 78,
          "name": "F#5",
          "ticks": 23424,
          "time": 97.168059,
          "velocity": 0.3937007874015748
        },
        {
          "duration": 0.3982297499999987,
          "durationTicks": 96,
          "midi": 95,
          "name": "B6",
          "ticks": 23616,
          "time": 97.96451850000001,
          "velocity": 0.3937007874015748
        },
        {
          "duration": 0.1327432499999901,
          "durationTicks": 32,
          "midi": 94,
          "name": "A#6",
          "ticks": 23712,
          "time": 98.36274825000001,
          "velocity": 0.3937007874015748
        },
        {
          "duration": 0.2654865000000086,
          "durationTicks": 64,
          "midi": 92,
          "name": "G#6",
          "ticks": 23744,
          "time": 98.4954915,
          "velocity": 0.3937007874015748
        },
        {
          "duration": 0.1327432499999901,
          "durationTicks": 32,
          "midi": 90,
          "name": "F#6",
          "ticks": 23808,
          "time": 98.76097800000001,
          "velocity": 0.3937007874015748
        },
        {
          "duration": 0.1327432500000043,
          "durationTicks": 32,
          "midi": 100,
          "name": "E7",
          "ticks": 23840,
          "time": 98.89372125,
          "velocity": 0.3937007874015748
        },
        {
          "duration": 0.2654865000000086,
          "durationTicks": 64,
          "midi": 99,
          "name": "D#7",
          "ticks": 23872,
          "time": 99.0264645,
          "velocity": 0.3937007874015748
        },
        {
          "duration": 0.2654865000000086,
          "durationTicks": 64,
          "midi": 97,
          "name": "C#7",
          "ticks": 24064,
          "time": 99.822924,
          "velocity": 0.3937007874015748
        },
        {
          "duration": 0.3982297499999987,
          "durationTicks": 96,
          "midi": 94,
          "name": "A#6",
          "ticks": 24128,
          "time": 100.08841050000001,
          "velocity": 0.3937007874015748
        },
        {
          "duration": 0.1327432500000043,
          "durationTicks": 32,
          "midi": 92,
          "name": "G#6",
          "ticks": 24224,
          "time": 100.48664025000001,
          "velocity": 0.3937007874015748
        },
        {
          "duration": 0.5309729999999888,
          "durationTicks": 128,
          "midi": 90,
          "name": "F#6",
          "ticks": 24256,
          "time": 100.61938350000001,
          "velocity": 0.3937007874015748
        },
        {
          "duration": 0.2654865000000086,
          "durationTicks": 64,
          "midi": 90,
          "name": "F#6",
          "ticks": 24384,
          "time": 101.1503565,
          "velocity": 0.3937007874015748
        },
        {
          "duration": 0.530973000000003,
          "durationTicks": 128,
          "midi": 97,
          "name": "C#7",
          "ticks": 24448,
          "time": 101.41584300000001,
          "velocity": 0.3937007874015748
        },
        {
          "duration": 1.0619459999999918,
          "durationTicks": 256,
          "midi": 95,
          "name": "B6",
          "ticks": 24576,
          "time": 101.94681600000001,
          "velocity": 0.3937007874015748
        },
        {
          "duration": 0.530973000000003,
          "durationTicks": 128,
          "midi": 83,
          "name": "B5",
          "ticks": 24832,
          "time": 103.008762,
          "velocity": 0.3937007874015748
        },
        {
          "duration": 0.7964594999999974,
          "durationTicks": 192,
          "midi": 83,
          "name": "B5",
          "ticks": 24960,
          "time": 103.53973500000001,
          "velocity": 0.3937007874015748
        },
        {
          "duration": 0.7964594999999974,
          "durationTicks": 192,
          "midi": 40,
          "name": "E2",
          "ticks": 24960,
          "time": 103.53973500000001,
          "velocity": 0.3937007874015748
        },
        {
          "duration": 0.3982297499999987,
          "durationTicks": 96,
          "midi": 99,
          "name": "D#7",
          "ticks": 24960,
          "time": 103.53973500000001,
          "velocity": 0.3937007874015748
        },
        {
          "duration": 0.3982297499999987,
          "durationTicks": 96,
          "midi": 99,
          "name": "D#7",
          "ticks": 25056,
          "time": 103.93796475,
          "velocity": 0.3937007874015748
        },
        {
          "duration": 0.7964594999999974,
          "durationTicks": 192,
          "midi": 97,
          "name": "C#7",
          "ticks": 25152,
          "time": 104.3361945,
          "velocity": 0.3937007874015748
        },
        {
          "duration": 0.7964594999999974,
          "durationTicks": 192,
          "midi": 85,
          "name": "C#6",
          "ticks": 25152,
          "time": 104.3361945,
          "velocity": 0.3937007874015748
        },
        {
          "duration": 1.3274325000000005,
          "durationTicks": 320,
          "midi": 42,
          "name": "F#2",
          "ticks": 25152,
          "time": 104.3361945,
          "velocity": 0.3937007874015748
        },
        {
          "duration": 0.530973000000003,
          "durationTicks": 128,
          "midi": 90,
          "name": "F#6",
          "ticks": 25344,
          "time": 105.132654,
          "velocity": 0.3937007874015748
        },
        {
          "duration": 0.530973000000003,
          "durationTicks": 128,
          "midi": 78,
          "name": "F#5",
          "ticks": 25344,
          "time": 105.132654,
          "velocity": 0.3937007874015748
        },
        {
          "duration": 0.7964594999999974,
          "durationTicks": 192,
          "midi": 42,
          "name": "F#2",
          "ticks": 25472,
          "time": 105.663627,
          "velocity": 0.3937007874015748
        },
        {
          "duration": 0.7964594999999974,
          "durationTicks": 192,
          "midi": 85,
          "name": "C#6",
          "ticks": 25472,
          "time": 105.663627,
          "velocity": 0.3937007874015748
        },
        {
          "duration": 0.3982297499999987,
          "durationTicks": 96,
          "midi": 97,
          "name": "C#7",
          "ticks": 25472,
          "time": 105.663627,
          "velocity": 0.3937007874015748
        },
        {
          "duration": 0.3982297499999987,
          "durationTicks": 96,
          "midi": 97,
          "name": "C#7",
          "ticks": 25568,
          "time": 106.06185675,
          "velocity": 0.3937007874015748
        },
        {
          "duration": 0.3982297499999987,
          "durationTicks": 96,
          "midi": 95,
          "name": "B6",
          "ticks": 25664,
          "time": 106.4600865,
          "velocity": 0.3937007874015748
        },
        {
          "duration": 0.7964594999999974,
          "durationTicks": 192,
          "midi": 87,
          "name": "D#6",
          "ticks": 25664,
          "time": 106.4600865,
          "velocity": 0.3937007874015748
        },
        {
          "duration": 0.1327432500000043,
          "durationTicks": 32,
          "midi": 94,
          "name": "A#6",
          "ticks": 25760,
          "time": 106.85831625,
          "velocity": 0.3937007874015748
        },
        {
          "duration": 0.2654864999999944,
          "durationTicks": 64,
          "midi": 92,
          "name": "G#6",
          "ticks": 25792,
          "time": 106.9910595,
          "velocity": 0.3937007874015748
        },
        {
          "duration": 0.1327432500000043,
          "durationTicks": 32,
          "midi": 90,
          "name": "F#6",
          "ticks": 25856,
          "time": 107.256546,
          "velocity": 0.3937007874015748
        },
        {
          "duration": 0.1327432500000043,
          "durationTicks": 32,
          "midi": 90,
          "name": "F#6",
          "ticks": 25856,
          "time": 107.256546,
          "velocity": 0.3937007874015748
        },
        {
          "duration": 0.1327432500000043,
          "durationTicks": 32,
          "midi": 88,
          "name": "E6",
          "ticks": 25888,
          "time": 107.38928925,
          "velocity": 0.3937007874015748
        },
        {
          "duration": 0.1327432500000043,
          "durationTicks": 32,
          "midi": 100,
          "name": "E7",
          "ticks": 25888,
          "time": 107.38928925,
          "velocity": 0.3937007874015748
        },
        {
          "duration": 0.2654864999999944,
          "durationTicks": 64,
          "midi": 99,
          "name": "D#7",
          "ticks": 25920,
          "time": 107.52203250000001,
          "velocity": 0.3937007874015748
        },
        {
          "duration": 0.2654864999999944,
          "durationTicks": 64,
          "midi": 87,
          "name": "D#6",
          "ticks": 25920,
          "time": 107.52203250000001,
          "velocity": 0.3937007874015748
        },
        {
          "duration": 0.7964594999999974,
          "durationTicks": 192,
          "midi": 83,
          "name": "B5",
          "ticks": 25984,
          "time": 107.787519,
          "velocity": 0.3937007874015748
        },
        {
          "duration": 0.7964595000000116,
          "durationTicks": 192,
          "midi": 85,
          "name": "C#6",
          "ticks": 26176,
          "time": 108.5839785,
          "velocity": 0.3937007874015748
        },
        {
          "duration": 1.0619459999999918,
          "durationTicks": 256,
          "midi": 90,
          "name": "F#6",
          "ticks": 26368,
          "time": 109.38043800000001,
          "velocity": 0.3937007874015748
        },
        {
          "duration": 1.3274325000000005,
          "durationTicks": 320,
          "midi": 78,
          "name": "F#5",
          "ticks": 26368,
          "time": 109.38043800000001,
          "velocity": 0.3937007874015748
        },
        {
          "duration": 0.1327432500000043,
          "durationTicks": 32,
          "midi": 90,
          "name": "F#6",
          "ticks": 26816,
          "time": 111.2388435,
          "velocity": 0.3937007874015748
        },
        {
          "duration": 0.1327432500000043,
          "durationTicks": 32,
          "midi": 78,
          "name": "F#5",
          "ticks": 26816,
          "time": 111.2388435,
          "velocity": 0.3937007874015748
        },
        {
          "duration": 0.1327432500000043,
          "durationTicks": 32,
          "midi": 90,
          "name": "F#6",
          "ticks": 26848,
          "time": 111.37158675,
          "velocity": 0.3937007874015748
        },
        {
          "duration": 0.1327432500000043,
          "durationTicks": 32,
          "midi": 78,
          "name": "F#5",
          "ticks": 26848,
          "time": 111.37158675,
          "velocity": 0.3937007874015748
        },
        {
          "duration": 0.1327432499999901,
          "durationTicks": 32,
          "midi": 90,
          "name": "F#6",
          "ticks": 26880,
          "time": 111.50433000000001,
          "velocity": 0.3937007874015748
        },
        {
          "duration": 0.1327432499999901,
          "durationTicks": 32,
          "midi": 80,
          "name": "G#5",
          "ticks": 26880,
          "time": 111.50433000000001,
          "velocity": 0.3937007874015748
        },
        {
          "duration": 0.2654865000000086,
          "durationTicks": 64,
          "midi": 95,
          "name": "B6",
          "ticks": 26912,
          "time": 111.63707325,
          "velocity": 0.3937007874015748
        },
        {
          "duration": 0.2654865000000086,
          "durationTicks": 64,
          "midi": 83,
          "name": "B5",
          "ticks": 26912,
          "time": 111.63707325,
          "velocity": 0.3937007874015748
        },
        {
          "duration": 0.1327432499999901,
          "durationTicks": 32,
          "midi": 83,
          "name": "B5",
          "ticks": 26976,
          "time": 111.90255975000001,
          "velocity": 0.3937007874015748
        },
        {
          "duration": 0.1327432499999901,
          "durationTicks": 32,
          "midi": 95,
          "name": "B6",
          "ticks": 26976,
          "time": 111.90255975000001,
          "velocity": 0.3937007874015748
        },
        {
          "duration": 0.3982297500000129,
          "durationTicks": 96,
          "midi": 99,
          "name": "D#7",
          "ticks": 27008,
          "time": 112.035303,
          "velocity": 0.3937007874015748
        },
        {
          "duration": 0.7964595000000116,
          "durationTicks": 192,
          "midi": 83,
          "name": "B5",
          "ticks": 27008,
          "time": 112.035303,
          "velocity": 0.3937007874015748
        },
        {
          "duration": 0.3982297499999987,
          "durationTicks": 96,
          "midi": 99,
          "name": "D#7",
          "ticks": 27104,
          "time": 112.43353275000001,
          "velocity": 0.3937007874015748
        },
        {
          "duration": 0.7964594999999974,
          "durationTicks": 192,
          "midi": 97,
          "name": "C#7",
          "ticks": 27200,
          "time": 112.83176250000001,
          "velocity": 0.3937007874015748
        },
        {
          "duration": 0.7964594999999974,
          "durationTicks": 192,
          "midi": 85,
          "name": "C#6",
          "ticks": 27200,
          "time": 112.83176250000001,
          "velocity": 0.3937007874015748
        },
        {
          "duration": 0.530973000000003,
          "durationTicks": 128,
          "midi": 78,
          "name": "F#5",
          "ticks": 27392,
          "time": 113.62822200000001,
          "velocity": 0.3937007874015748
        },
        {
          "duration": 0.7964594999999974,
          "durationTicks": 192,
          "midi": 85,
          "name": "C#6",
          "ticks": 27520,
          "time": 114.15919500000001,
          "velocity": 0.3937007874015748
        },
        {
          "duration": 0.5309729999999888,
          "durationTicks": 128,
          "midi": 78,
          "name": "F#5",
          "ticks": 27520,
          "time": 114.15919500000001,
          "velocity": 0.3937007874015748
        },
        {
          "duration": 0.5309729999999888,
          "durationTicks": 128,
          "midi": 78,
          "name": "F#5",
          "ticks": 27520,
          "time": 114.15919500000001,
          "velocity": 0.3937007874015748
        },
        {
          "duration": 0.5309729999999888,
          "durationTicks": 128,
          "midi": 78,
          "name": "F#5",
          "ticks": 27520,
          "time": 114.15919500000001,
          "velocity": 0.3937007874015748
        },
        {
          "duration": 0.3982297499999987,
          "durationTicks": 96,
          "midi": 95,
          "name": "B6",
          "ticks": 27712,
          "time": 114.95565450000001,
          "velocity": 0.3937007874015748
        },
        {
          "duration": 0.7964594999999974,
          "durationTicks": 192,
          "midi": 87,
          "name": "D#6",
          "ticks": 27712,
          "time": 114.95565450000001,
          "velocity": 0.3937007874015748
        },
        {
          "duration": 0.1327432500000043,
          "durationTicks": 32,
          "midi": 94,
          "name": "A#6",
          "ticks": 27808,
          "time": 115.35388425000001,
          "velocity": 0.3937007874015748
        },
        {
          "duration": 0.2654864999999944,
          "durationTicks": 64,
          "midi": 92,
          "name": "G#6",
          "ticks": 27840,
          "time": 115.48662750000001,
          "velocity": 0.3937007874015748
        },
        {
          "duration": 0.1327432500000043,
          "durationTicks": 32,
          "midi": 90,
          "name": "F#6",
          "ticks": 27904,
          "time": 115.752114,
          "velocity": 0.3937007874015748
        },
        {
          "duration": 0.1327432500000043,
          "durationTicks": 32,
          "midi": 90,
          "name": "F#6",
          "ticks": 27904,
          "time": 115.752114,
          "velocity": 0.3937007874015748
        },
        {
          "duration": 0.1327432499999901,
          "durationTicks": 32,
          "midi": 100,
          "name": "E7",
          "ticks": 27936,
          "time": 115.88485725000001,
          "velocity": 0.3937007874015748
        },
        {
          "duration": 0.1327432499999901,
          "durationTicks": 32,
          "midi": 88,
          "name": "E6",
          "ticks": 27936,
          "time": 115.88485725000001,
          "velocity": 0.3937007874015748
        },
        {
          "duration": 0.2654865000000086,
          "durationTicks": 64,
          "midi": 99,
          "name": "D#7",
          "ticks": 27968,
          "time": 116.0176005,
          "velocity": 0.3937007874015748
        },
        {
          "duration": 0.2654865000000086,
          "durationTicks": 64,
          "midi": 87,
          "name": "D#6",
          "ticks": 27968,
          "time": 116.0176005,
          "velocity": 0.3937007874015748
        },
        {
          "duration": 0.7964594999999974,
          "durationTicks": 192,
          "midi": 83,
          "name": "B5",
          "ticks": 28032,
          "time": 116.28308700000001,
          "velocity": 0.3937007874015748
        },
        {
          "duration": 0.2654864999999944,
          "durationTicks": 64,
          "midi": 97,
          "name": "C#7",
          "ticks": 28160,
          "time": 116.81406000000001,
          "velocity": 0.3937007874015748
        },
        {
          "duration": 0.3982297499999987,
          "durationTicks": 96,
          "midi": 94,
          "name": "A#6",
          "ticks": 28224,
          "time": 117.0795465,
          "velocity": 0.3937007874015748
        },
        {
          "duration": 0.7964594999999974,
          "durationTicks": 192,
          "midi": 85,
          "name": "C#6",
          "ticks": 28224,
          "time": 117.0795465,
          "velocity": 0.3937007874015748
        },
        {
          "duration": 0.1327432500000043,
          "durationTicks": 32,
          "midi": 92,
          "name": "G#6",
          "ticks": 28320,
          "time": 117.47777625,
          "velocity": 0.3937007874015748
        },
        {
          "duration": 0.530973000000003,
          "durationTicks": 128,
          "midi": 90,
          "name": "F#6",
          "ticks": 28352,
          "time": 117.61051950000001,
          "velocity": 0.3937007874015748
        },
        {
          "duration": 0.530973000000003,
          "durationTicks": 128,
          "midi": 78,
          "name": "F#5",
          "ticks": 28416,
          "time": 117.876006,
          "velocity": 0.3937007874015748
        },
        {
          "duration": 0.2654864999999944,
          "durationTicks": 64,
          "midi": 90,
          "name": "F#6",
          "ticks": 28480,
          "time": 118.14149250000001,
          "velocity": 0.3937007874015748
        },
        {
          "duration": 0.530973000000003,
          "durationTicks": 128,
          "midi": 97,
          "name": "C#7",
          "ticks": 28544,
          "time": 118.406979,
          "velocity": 0.3937007874015748
        },
        {
          "duration": 0.2654864999999944,
          "durationTicks": 64,
          "midi": 82,
          "name": "A#5",
          "ticks": 28544,
          "time": 118.406979,
          "velocity": 0.3937007874015748
        },
        {
          "duration": 0.2654865000000086,
          "durationTicks": 64,
          "midi": 83,
          "name": "B5",
          "ticks": 28608,
          "time": 118.6724655,
          "velocity": 0.3937007874015748
        },
        {
          "duration": 1.0619459999999918,
          "durationTicks": 256,
          "midi": 95,
          "name": "B6",
          "ticks": 28672,
          "time": 118.93795200000001,
          "velocity": 0.3937007874015748
        },
        {
          "duration": 0.530973000000003,
          "durationTicks": 128,
          "midi": 83,
          "name": "B5",
          "ticks": 28672,
          "time": 118.93795200000001,
          "velocity": 0.3937007874015748
        },
        {
          "duration": 0.1327432500000043,
          "durationTicks": 32,
          "midi": 83,
          "name": "B5",
          "ticks": 28928,
          "time": 119.999898,
          "velocity": 0.3937007874015748
        },
        {
          "duration": 0.2654864999999944,
          "durationTicks": 64,
          "midi": 83,
          "name": "B5",
          "ticks": 28960,
          "time": 120.13264125,
          "velocity": 0.3937007874015748
        },
        {
          "duration": 0.1327432500000043,
          "durationTicks": 32,
          "midi": 83,
          "name": "B5",
          "ticks": 29024,
          "time": 120.39812775,
          "velocity": 0.3937007874015748
        }
      ],
      "endOfTrackTicks": 29056
    },
    {
      "channel": 0,
      "controlChanges": {},
      "pitchBends": [],
      "instrument": {
        "family": "piano",
        "name": "acoustic grand piano",
        "number": 0
      },
      "name": "Bass 2",
      "notes": [
        {
          "duration": 0.7964595000000001,
          "durationTicks": 192,
          "midi": 59,
          "name": "B3",
          "ticks": 384,
          "time": 1.5929190000000002,
          "velocity": 0.3937007874015748
        },
        {
          "duration": 0.7964595000000001,
          "durationTicks": 192,
          "midi": 64,
          "name": "E4",
          "ticks": 384,
          "time": 1.5929190000000002,
          "velocity": 0.3937007874015748
        },
        {
          "duration": 0.3982297499999998,
          "durationTicks": 96,
          "midi": 52,
          "name": "E3",
          "ticks": 384,
          "time": 1.5929190000000002,
          "velocity": 0.3937007874015748
        },
        {
          "duration": 0.7964595000000001,
          "durationTicks": 192,
          "midi": 56,
          "name": "G#3",
          "ticks": 384,
          "time": 1.5929190000000002,
          "velocity": 0.3937007874015748
        },
        {
          "duration": 0.1327432500000001,
          "durationTicks": 32,
          "midi": 52,
          "name": "E3",
          "ticks": 480,
          "time": 1.99114875,
          "velocity": 0.3937007874015748
        },
        {
          "duration": 0.2654865000000002,
          "durationTicks": 64,
          "midi": 52,
          "name": "E3",
          "ticks": 512,
          "time": 2.123892,
          "velocity": 0.3937007874015748
        },
        {
          "duration": 1.3274325,
          "durationTicks": 320,
          "midi": 58,
          "name": "A#3",
          "ticks": 576,
          "time": 2.3893785000000003,
          "velocity": 0.3937007874015748
        },
        {
          "duration": 1.3274325,
          "durationTicks": 320,
          "midi": 61,
          "name": "C#4",
          "ticks": 576,
          "time": 2.3893785000000003,
          "velocity": 0.3937007874015748
        },
        {
          "duration": 1.3274325,
          "durationTicks": 320,
          "midi": 66,
          "name": "F#4",
          "ticks": 576,
          "time": 2.3893785000000003,
          "velocity": 0.3937007874015748
        },
        {
          "duration": 0.5309729999999999,
          "durationTicks": 128,
          "midi": 54,
          "name": "F#3",
          "ticks": 576,
          "time": 2.3893785000000003,
          "velocity": 0.3937007874015748
        },
        {
          "duration": 0.2654865000000002,
          "durationTicks": 64,
          "midi": 54,
          "name": "F#3",
          "ticks": 704,
          "time": 2.9203515,
          "velocity": 0.3937007874015748
        },
        {
          "duration": 0.26548649999999974,
          "durationTicks": 64,
          "midi": 54,
          "name": "F#3",
          "ticks": 768,
          "time": 3.1858380000000004,
          "velocity": 0.3937007874015748
        },
        {
          "duration": 0.2654865000000002,
          "durationTicks": 64,
          "midi": 54,
          "name": "F#3",
          "ticks": 832,
          "time": 3.4513245,
          "velocity": 0.3937007874015748
        },
        {
          "duration": 0.7964594999999997,
          "durationTicks": 192,
          "midi": 66,
          "name": "F#4",
          "ticks": 896,
          "time": 3.7168110000000003,
          "velocity": 0.3937007874015748
        },
        {
          "duration": 0.7964594999999997,
          "durationTicks": 192,
          "midi": 63,
          "name": "D#4",
          "ticks": 896,
          "time": 3.7168110000000003,
          "velocity": 0.3937007874015748
        },
        {
          "duration": 0.7964594999999997,
          "durationTicks": 192,
          "midi": 58,
          "name": "A#3",
          "ticks": 896,
          "time": 3.7168110000000003,
          "velocity": 0.3937007874015748
        },
        {
          "duration": 0.39822975000000005,
          "durationTicks": 96,
          "midi": 51,
          "name": "D#3",
          "ticks": 896,
          "time": 3.7168110000000003,
          "velocity": 0.3937007874015748
        },
        {
          "duration": 0.13274324999999987,
          "durationTicks": 32,
          "midi": 51,
          "name": "D#3",
          "ticks": 992,
          "time": 4.11504075,
          "velocity": 0.3937007874015748
        },
        {
          "duration": 0.26548649999999974,
          "durationTicks": 64,
          "midi": 51,
          "name": "D#3",
          "ticks": 1024,
          "time": 4.247784,
          "velocity": 0.3937007874015748
        },
        {
          "duration": 1.3274325000000005,
          "durationTicks": 320,
          "midi": 68,
          "name": "G#4",
          "ticks": 1088,
          "time": 4.5132705,
          "velocity": 0.3937007874015748
        },
        {
          "duration": 1.3274325000000005,
          "durationTicks": 320,
          "midi": 63,
          "name": "D#4",
          "ticks": 1088,
          "time": 4.5132705,
          "velocity": 0.3937007874015748
        },
        {
          "duration": 1.3274325000000005,
          "durationTicks": 320,
          "midi": 59,
          "name": "B3",
          "ticks": 1088,
          "time": 4.5132705,
          "velocity": 0.3937007874015748
        },
        {
          "duration": 0.5309730000000004,
          "durationTicks": 128,
          "midi": 44,
          "name": "G#2",
          "ticks": 1088,
          "time": 4.5132705,
          "velocity": 0.3937007874015748
        },
        {
          "duration": 0.26548649999999974,
          "durationTicks": 64,
          "midi": 44,
          "name": "G#2",
          "ticks": 1216,
          "time": 5.0442435,
          "velocity": 0.3937007874015748
        },
        {
          "duration": 0.2654865000000006,
          "durationTicks": 64,
          "midi": 44,
          "name": "G#2",
          "ticks": 1280,
          "time": 5.30973,
          "velocity": 0.3937007874015748
        },
        {
          "duration": 0.26548649999999974,
          "durationTicks": 64,
          "midi": 44,
          "name": "G#2",
          "ticks": 1344,
          "time": 5.575216500000001,
          "velocity": 0.3937007874015748
        },
        {
          "duration": 0.7964595000000001,
          "durationTicks": 192,
          "midi": 64,
          "name": "E4",
          "ticks": 1408,
          "time": 5.840703,
          "velocity": 0.3937007874015748
        },
        {
          "duration": 0.7964595000000001,
          "durationTicks": 192,
          "midi": 59,
          "name": "B3",
          "ticks": 1408,
          "time": 5.840703,
          "velocity": 0.3937007874015748
        },
        {
          "duration": 0.7964595000000001,
          "durationTicks": 192,
          "midi": 56,
          "name": "G#3",
          "ticks": 1408,
          "time": 5.840703,
          "velocity": 0.3937007874015748
        },
        {
          "duration": 0.3982297499999996,
          "durationTicks": 96,
          "midi": 52,
          "name": "E3",
          "ticks": 1408,
          "time": 5.840703,
          "velocity": 0.3937007874015748
        },
        {
          "duration": 0.13274325000000076,
          "durationTicks": 32,
          "midi": 52,
          "name": "E3",
          "ticks": 1504,
          "time": 6.23893275,
          "velocity": 0.3937007874015748
        },
        {
          "duration": 0.26548649999999974,
          "durationTicks": 64,
          "midi": 52,
          "name": "E3",
          "ticks": 1536,
          "time": 6.371676000000001,
          "velocity": 0.3937007874015748
        },
        {
          "duration": 1.3274324999999996,
          "durationTicks": 320,
          "midi": 66,
          "name": "F#4",
          "ticks": 1600,
          "time": 6.6371625000000005,
          "velocity": 0.3937007874015748
        },
        {
          "duration": 0.5309729999999995,
          "durationTicks": 128,
          "midi": 54,
          "name": "F#3",
          "ticks": 1600,
          "time": 6.6371625000000005,
          "velocity": 0.3937007874015748
        },
        {
          "duration": 1.3274324999999996,
          "durationTicks": 320,
          "midi": 58,
          "name": "A#3",
          "ticks": 1600,
          "time": 6.6371625000000005,
          "velocity": 0.3937007874015748
        },
        {
          "duration": 1.3274324999999996,
          "durationTicks": 320,
          "midi": 61,
          "name": "C#4",
          "ticks": 1600,
          "time": 6.6371625000000005,
          "velocity": 0.3937007874015748
        },
        {
          "duration": 0.2654865000000006,
          "durationTicks": 64,
          "midi": 49,
          "name": "C#3",
          "ticks": 1728,
          "time": 7.1681355,
          "velocity": 0.3937007874015748
        },
        {
          "duration": 0.26548649999999974,
          "durationTicks": 64,
          "midi": 54,
          "name": "F#3",
          "ticks": 1792,
          "time": 7.433622000000001,
          "velocity": 0.3937007874015748
        },
        {
          "duration": 0.26548649999999974,
          "durationTicks": 64,
          "midi": 49,
          "name": "C#3",
          "ticks": 1856,
          "time": 7.6991085,
          "velocity": 0.3937007874015748
        },
        {
          "duration": 0.7964595000000001,
          "durationTicks": 192,
          "midi": 66,
          "name": "F#4",
          "ticks": 1920,
          "time": 7.964595,
          "velocity": 0.3937007874015748
        },
        {
          "duration": 0.3982297499999996,
          "durationTicks": 96,
          "midi": 51,
          "name": "D#3",
          "ticks": 1920,
          "time": 7.964595,
          "velocity": 0.3937007874015748
        },
        {
          "duration": 0.7964595000000001,
          "durationTicks": 192,
          "midi": 63,
          "name": "D#4",
          "ticks": 1920,
          "time": 7.964595,
          "velocity": 0.3937007874015748
        },
        {
          "duration": 0.7964595000000001,
          "durationTicks": 192,
          "midi": 58,
          "name": "A#3",
          "ticks": 1920,
          "time": 7.964595,
          "velocity": 0.3937007874015748
        },
        {
          "duration": 0.13274325000000076,
          "durationTicks": 32,
          "midi": 51,
          "name": "D#3",
          "ticks": 2016,
          "time": 8.36282475,
          "velocity": 0.3937007874015748
        },
        {
          "duration": 0.26548649999999974,
          "durationTicks": 64,
          "midi": 51,
          "name": "D#3",
          "ticks": 2048,
          "time": 8.495568,
          "velocity": 0.3937007874015748
        },
        {
          "duration": 1.3274325000000005,
          "durationTicks": 320,
          "midi": 68,
          "name": "G#4",
          "ticks": 2112,
          "time": 8.7610545,
          "velocity": 0.3937007874015748
        },
        {
          "duration": 1.3274325000000005,
          "durationTicks": 320,
          "midi": 63,
          "name": "D#4",
          "ticks": 2112,
          "time": 8.7610545,
          "velocity": 0.3937007874015748
        },
        {
          "duration": 1.3274325000000005,
          "durationTicks": 320,
          "midi": 59,
          "name": "B3",
          "ticks": 2112,
          "time": 8.7610545,
          "velocity": 0.3937007874015748
        },
        {
          "duration": 0.5309729999999995,
          "durationTicks": 128,
          "midi": 44,
          "name": "G#2",
          "ticks": 2112,
          "time": 8.7610545,
          "velocity": 0.3937007874015748
        },
        {
          "duration": 0.2654865000000015,
          "durationTicks": 64,
          "midi": 44,
          "name": "G#2",
          "ticks": 2240,
          "time": 9.2920275,
          "velocity": 0.3937007874015748
        },
        {
          "duration": 0.26548649999999974,
          "durationTicks": 64,
          "midi": 47,
          "name": "B2",
          "ticks": 2304,
          "time": 9.557514000000001,
          "velocity": 0.3937007874015748
        },
        {
          "duration": 0.26548649999999974,
          "durationTicks": 64,
          "midi": 51,
          "name": "D#3",
          "ticks": 2368,
          "time": 9.823000500000001,
          "velocity": 0.3937007874015748
        },
        {
          "duration": 0.7964594999999992,
          "durationTicks": 192,
          "midi": 64,
          "name": "E4",
          "ticks": 2432,
          "time": 10.088487,
          "velocity": 0.3937007874015748
        },
        {
          "duration": 0.3982297500000005,
          "durationTicks": 96,
          "midi": 52,
          "name": "E3",
          "ticks": 2432,
          "time": 10.088487,
          "velocity": 0.3937007874015748
        },
        {
          "duration": 0.7964594999999992,
          "durationTicks": 192,
          "midi": 56,
          "name": "G#3",
          "ticks": 2432,
          "time": 10.088487,
          "velocity": 0.3937007874015748
        },
        {
          "duration": 0.7964594999999992,
          "durationTicks": 192,
          "midi": 59,
          "name": "B3",
          "ticks": 2432,
          "time": 10.088487,
          "velocity": 0.3937007874015748
        },
        {
          "duration": 0.13274324999999898,
          "durationTicks": 32,
          "midi": 52,
          "name": "E3",
          "ticks": 2528,
          "time": 10.486716750000001,
          "velocity": 0.3937007874015748
        },
        {
          "duration": 0.26548649999999974,
          "durationTicks": 64,
          "midi": 52,
          "name": "E3",
          "ticks": 2560,
          "time": 10.61946,
          "velocity": 0.3937007874015748
        },
        {
          "duration": 1.3274325000000005,
          "durationTicks": 320,
          "midi": 66,
          "name": "F#4",
          "ticks": 2624,
          "time": 10.8849465,
          "velocity": 0.3937007874015748
        },
        {
          "duration": 0.5309730000000012,
          "durationTicks": 128,
          "midi": 54,
          "name": "F#3",
          "ticks": 2624,
          "time": 10.8849465,
          "velocity": 0.3937007874015748
        },
        {
          "duration": 1.3274325000000005,
          "durationTicks": 320,
          "midi": 58,
          "name": "A#3",
          "ticks": 2624,
          "time": 10.8849465,
          "velocity": 0.3937007874015748
        },
        {
          "duration": 1.3274325000000005,
          "durationTicks": 320,
          "midi": 61,
          "name": "C#4",
          "ticks": 2624,
          "time": 10.8849465,
          "velocity": 0.3937007874015748
        },
        {
          "duration": 0.26548649999999974,
          "durationTicks": 64,
          "midi": 54,
          "name": "F#3",
          "ticks": 2752,
          "time": 11.415919500000001,
          "velocity": 0.3937007874015748
        },
        {
          "duration": 0.26548649999999974,
          "durationTicks": 64,
          "midi": 54,
          "name": "F#3",
          "ticks": 2816,
          "time": 11.681406,
          "velocity": 0.3937007874015748
        },
        {
          "duration": 0.26548649999999974,
          "durationTicks": 64,
          "midi": 54,
          "name": "F#3",
          "ticks": 2880,
          "time": 11.9468925,
          "velocity": 0.3937007874015748
        },
        {
          "duration": 0.3982297500000005,
          "durationTicks": 96,
          "midi": 51,
          "name": "D#3",
          "ticks": 2944,
          "time": 12.212379,
          "velocity": 0.3937007874015748
        },
        {
          "duration": 0.796459500000001,
          "durationTicks": 192,
          "midi": 58,
          "name": "A#3",
          "ticks": 2944,
          "time": 12.212379,
          "velocity": 0.3937007874015748
        },
        {
          "duration": 0.796459500000001,
          "durationTicks": 192,
          "midi": 66,
          "name": "F#4",
          "ticks": 2944,
          "time": 12.212379,
          "velocity": 0.3937007874015748
        },
        {
          "duration": 0.796459500000001,
          "durationTicks": 192,
          "midi": 63,
          "name": "D#4",
          "ticks": 2944,
          "time": 12.212379,
          "velocity": 0.3937007874015748
        },
        {
          "duration": 0.13274325000000076,
          "durationTicks": 32,
          "midi": 51,
          "name": "D#3",
          "ticks": 3040,
          "time": 12.61060875,
          "velocity": 0.3937007874015748
        },
        {
          "duration": 0.26548649999999974,
          "durationTicks": 64,
          "midi": 51,
          "name": "D#3",
          "ticks": 3072,
          "time": 12.743352000000002,
          "velocity": 0.3937007874015748
        },
        {
          "duration": 1.3274324999999987,
          "durationTicks": 320,
          "midi": 59,
          "name": "B3",
          "ticks": 3136,
          "time": 13.008838500000001,
          "velocity": 0.3937007874015748
        },
        {
          "duration": 1.3274324999999987,
          "durationTicks": 320,
          "midi": 63,
          "name": "D#4",
          "ticks": 3136,
          "time": 13.008838500000001,
          "velocity": 0.3937007874015748
        },
        {
          "duration": 1.3274324999999987,
          "durationTicks": 320,
          "midi": 68,
          "name": "G#4",
          "ticks": 3136,
          "time": 13.008838500000001,
          "velocity": 0.3937007874015748
        },
        {
          "duration": 0.5309729999999995,
          "durationTicks": 128,
          "midi": 44,
          "name": "G#2",
          "ticks": 3136,
          "time": 13.008838500000001,
          "velocity": 0.3937007874015748
        },
        {
          "duration": 0.26548649999999974,
          "durationTicks": 64,
          "midi": 44,
          "name": "G#2",
          "ticks": 3264,
          "time": 13.5398115,
          "velocity": 0.3937007874015748
        },
        {
          "duration": 0.26548649999999974,
          "durationTicks": 64,
          "midi": 44,
          "name": "G#2",
          "ticks": 3328,
          "time": 13.805298,
          "velocity": 0.3937007874015748
        },
        {
          "duration": 0.26548649999999974,
          "durationTicks": 64,
          "midi": 44,
          "name": "G#2",
          "ticks": 3392,
          "time": 14.0707845,
          "velocity": 0.3937007874015748
        },
        {
          "duration": 0.796459500000001,
          "durationTicks": 192,
          "midi": 64,
          "name": "E4",
          "ticks": 3456,
          "time": 14.336271,
          "velocity": 0.3937007874015748
        },
        {
          "duration": 0.796459500000001,
          "durationTicks": 192,
          "midi": 59,
          "name": "B3",
          "ticks": 3456,
          "time": 14.336271,
          "velocity": 0.3937007874015748
        },
        {
          "duration": 0.796459500000001,
          "durationTicks": 192,
          "midi": 56,
          "name": "G#3",
          "ticks": 3456,
          "time": 14.336271,
          "velocity": 0.3937007874015748
        },
        {
          "duration": 0.3982297500000005,
          "durationTicks": 96,
          "midi": 52,
          "name": "E3",
          "ticks": 3456,
          "time": 14.336271,
          "velocity": 0.3937007874015748
        },
        {
          "duration": 0.13274325000000076,
          "durationTicks": 32,
          "midi": 52,
          "name": "E3",
          "ticks": 3552,
          "time": 14.73450075,
          "velocity": 0.3937007874015748
        },
        {
          "duration": 0.26548649999999974,
          "durationTicks": 64,
          "midi": 52,
          "name": "E3",
          "ticks": 3584,
          "time": 14.867244000000001,
          "velocity": 0.3937007874015748
        },
        {
          "duration": 0.13274325000000076,
          "durationTicks": 32,
          "midi": 76,
          "name": "E5",
          "ticks": 3616,
          "time": 14.99998725,
          "velocity": 0.3937007874015748
        },
        {
          "duration": 1.3274325000000005,
          "durationTicks": 320,
          "midi": 66,
          "name": "F#4",
          "ticks": 3648,
          "time": 15.132730500000001,
          "velocity": 0.3937007874015748
        },
        {
          "duration": 1.3274325000000005,
          "durationTicks": 320,
          "midi": 61,
          "name": "C#4",
          "ticks": 3648,
          "time": 15.132730500000001,
          "velocity": 0.3937007874015748
        },
        {
          "duration": 1.3274325000000005,
          "durationTicks": 320,
          "midi": 58,
          "name": "A#3",
          "ticks": 3648,
          "time": 15.132730500000001,
          "velocity": 0.3937007874015748
        },
        {
          "duration": 0.5309729999999995,
          "durationTicks": 128,
          "midi": 54,
          "name": "F#3",
          "ticks": 3648,
          "time": 15.132730500000001,
          "velocity": 0.3937007874015748
        },
        {
          "duration": 0.26548649999999974,
          "durationTicks": 64,
          "midi": 49,
          "name": "C#3",
          "ticks": 3776,
          "time": 15.6637035,
          "velocity": 0.3937007874015748
        },
        {
          "duration": 0.26548649999999974,
          "durationTicks": 64,
          "midi": 54,
          "name": "F#3",
          "ticks": 3840,
          "time": 15.92919,
          "velocity": 0.3937007874015748
        },
        {
          "duration": 0.2654865000000015,
          "durationTicks": 64,
          "midi": 49,
          "name": "C#3",
          "ticks": 3904,
          "time": 16.1946765,
          "velocity": 0.3937007874015748
        },
        {
          "duration": 0.3982297499999987,
          "durationTicks": 96,
          "midi": 51,
          "name": "D#3",
          "ticks": 3968,
          "time": 16.460163,
          "velocity": 0.3937007874015748
        },
        {
          "duration": 0.5309729999999995,
          "durationTicks": 128,
          "midi": 58,
          "name": "A#3",
          "ticks": 3968,
          "time": 16.460163,
          "velocity": 0.3937007874015748
        },
        {
          "duration": 0.5309729999999995,
          "durationTicks": 128,
          "midi": 63,
          "name": "D#4",
          "ticks": 3968,
          "time": 16.460163,
          "velocity": 0.3937007874015748
        },
        {
          "duration": 0.5309729999999995,
          "durationTicks": 128,
          "midi": 66,
          "name": "F#4",
          "ticks": 3968,
          "time": 16.460163,
          "velocity": 0.3937007874015748
        },
        {
          "duration": 0.13274325000000076,
          "durationTicks": 32,
          "midi": 51,
          "name": "D#3",
          "ticks": 4064,
          "time": 16.85839275,
          "velocity": 0.3937007874015748
        },
        {
          "duration": 1.5929189999999984,
          "durationTicks": 384,
          "midi": 68,
          "name": "G#4",
          "ticks": 4096,
          "time": 16.991136,
          "velocity": 0.3937007874015748
        },
        {
          "duration": 1.5929189999999984,
          "durationTicks": 384,
          "midi": 63,
          "name": "D#4",
          "ticks": 4096,
          "time": 16.991136,
          "velocity": 0.3937007874015748
        },
        {
          "duration": 1.5929189999999984,
          "durationTicks": 384,
          "midi": 59,
          "name": "B3",
          "ticks": 4096,
          "time": 16.991136,
          "velocity": 0.3937007874015748
        },
        {
          "duration": 0.2654865000000015,
          "durationTicks": 64,
          "midi": 44,
          "name": "G#2",
          "ticks": 4096,
          "time": 16.991136,
          "velocity": 0.3937007874015748
        },
        {
          "duration": 0.5309729999999995,
          "durationTicks": 128,
          "midi": 44,
          "name": "G#2",
          "ticks": 4160,
          "time": 17.256622500000002,
          "velocity": 0.3937007874015748
        },
        {
          "duration": 0.26548649999999796,
          "durationTicks": 64,
          "midi": 44,
          "name": "G#2",
          "ticks": 4288,
          "time": 17.787595500000002,
          "velocity": 0.3937007874015748
        },
        {
          "duration": 0.2654865000000015,
          "durationTicks": 64,
          "midi": 47,
          "name": "B2",
          "ticks": 4352,
          "time": 18.053082,
          "velocity": 0.3937007874015748
        },
        {
          "duration": 0.26548649999999796,
          "durationTicks": 64,
          "midi": 51,
          "name": "D#3",
          "ticks": 4416,
          "time": 18.3185685,
          "velocity": 0.3937007874015748
        },
        {
          "duration": 0.796459500000001,
          "durationTicks": 192,
          "midi": 68,
          "name": "G#4",
          "ticks": 4480,
          "time": 18.584055,
          "velocity": 0.3937007874015748
        },
        {
          "duration": 0.796459500000001,
          "durationTicks": 192,
          "midi": 52,
          "name": "E3",
          "ticks": 4480,
          "time": 18.584055,
          "velocity": 0.3937007874015748
        },
        {
          "duration": 1.8584055000000035,
          "durationTicks": 448,
          "midi": 59,
          "name": "B3",
          "ticks": 4480,
          "time": 18.584055,
          "velocity": 0.3937007874015748
        },
        {
          "duration": 0.26548649999999796,
          "durationTicks": 64,
          "midi": 52,
          "name": "E3",
          "ticks": 4608,
          "time": 19.115028000000002,
          "velocity": 0.3937007874015748
        },
        {
          "duration": 0.26548649999999796,
          "durationTicks": 64,
          "midi": 68,
          "name": "G#4",
          "ticks": 4608,
          "time": 19.115028000000002,
          "velocity": 0.3937007874015748
        },
        {
          "duration": 0.2654865000000015,
          "durationTicks": 64,
          "midi": 70,
          "name": "A#4",
          "ticks": 4672,
          "time": 19.3805145,
          "velocity": 0.3937007874015748
        },
        {
          "duration": 0.2654865000000015,
          "durationTicks": 64,
          "midi": 52,
          "name": "E3",
          "ticks": 4672,
          "time": 19.3805145,
          "velocity": 0.3937007874015748
        },
        {
          "duration": 0.26548649999999796,
          "durationTicks": 64,
          "midi": 71,
          "name": "B4",
          "ticks": 4736,
          "time": 19.646001000000002,
          "velocity": 0.3937007874015748
        },
        {
          "duration": 0.2654865000000015,
          "durationTicks": 64,
          "midi": 71,
          "name": "B4",
          "ticks": 4800,
          "time": 19.9114875,
          "velocity": 0.3937007874015748
        },
        {
          "duration": 0.2654865000000015,
          "durationTicks": 64,
          "midi": 52,
          "name": "E3",
          "ticks": 4800,
          "time": 19.9114875,
          "velocity": 0.3937007874015748
        },
        {
          "duration": 0.2654865000000015,
          "durationTicks": 64,
          "midi": 73,
          "name": "C#5",
          "ticks": 4864,
          "time": 20.176974,
          "velocity": 0.3937007874015748
        },
        {
          "duration": 0.2654865000000015,
          "durationTicks": 64,
          "midi": 52,
          "name": "E3",
          "ticks": 4864,
          "time": 20.176974,
          "velocity": 0.3937007874015748
        },
        {
          "duration": 1.8584055,
          "durationTicks": 448,
          "midi": 61,
          "name": "C#4",
          "ticks": 4928,
          "time": 20.442460500000003,
          "velocity": 0.3937007874015748
        },
        {
          "duration": 0.3982297499999987,
          "durationTicks": 96,
          "midi": 70,
          "name": "A#4",
          "ticks": 4928,
          "time": 20.442460500000003,
          "velocity": 0.3937007874015748
        },
        {
          "duration": 0.7964594999999974,
          "durationTicks": 192,
          "midi": 54,
          "name": "F#3",
          "ticks": 4928,
          "time": 20.442460500000003,
          "velocity": 0.3937007874015748
        },
        {
          "duration": 0.3982297499999987,
          "durationTicks": 96,
          "midi": 70,
          "name": "A#4",
          "ticks": 4928,
          "time": 20.442460500000003,
          "velocity": 0.3937007874015748
        },
        {
          "duration": 0.13274325000000076,
          "durationTicks": 32,
          "midi": 68,
          "name": "G#4",
          "ticks": 5024,
          "time": 20.84069025,
          "velocity": 0.3937007874015748
        },
        {
          "duration": 0.26548649999999796,
          "durationTicks": 64,
          "midi": 54,
          "name": "F#3",
          "ticks": 5056,
          "time": 20.973433500000002,
          "velocity": 0.3937007874015748
        },
        {
          "duration": 1.3274325000000005,
          "durationTicks": 320,
          "midi": 66,
          "name": "F#4",
          "ticks": 5056,
          "time": 20.973433500000002,
          "velocity": 0.3937007874015748
        },
        {
          "duration": 0.2654865000000015,
          "durationTicks": 64,
          "midi": 54,
          "name": "F#3",
          "ticks": 5120,
          "time": 21.23892,
          "velocity": 0.3937007874015748
        },
        {
          "duration": 0.2654865000000015,
          "durationTicks": 64,
          "midi": 54,
          "name": "F#3",
          "ticks": 5248,
          "time": 21.769893,
          "velocity": 0.3937007874015748
        },
        {
          "duration": 0.2654865000000015,
          "durationTicks": 64,
          "midi": 54,
          "name": "F#3",
          "ticks": 5312,
          "time": 22.0353795,
          "velocity": 0.3937007874015748
        },
        {
          "duration": 0.5309729999999995,
          "durationTicks": 128,
          "midi": 61,
          "name": "C#4",
          "ticks": 5376,
          "time": 22.300866000000003,
          "velocity": 0.3937007874015748
        },
        {
          "duration": 0.5309729999999995,
          "durationTicks": 128,
          "midi": 53,
          "name": "F3",
          "ticks": 5376,
          "time": 22.300866000000003,
          "velocity": 0.3937007874015748
        },
        {
          "duration": 0.5309729999999995,
          "durationTicks": 128,
          "midi": 68,
          "name": "G#4",
          "ticks": 5376,
          "time": 22.300866000000003,
          "velocity": 0.3937007874015748
        },
        {
          "duration": 0.5309729999999995,
          "durationTicks": 128,
          "midi": 68,
          "name": "G#4",
          "ticks": 5504,
          "time": 22.831839000000002,
          "velocity": 0.3937007874015748
        },
        {
          "duration": 2.123891999999998,
          "durationTicks": 512,
          "midi": 59,
          "name": "B3",
          "ticks": 5504,
          "time": 22.831839000000002,
          "velocity": 0.3937007874015748
        },
        {
          "duration": 0.5309729999999995,
          "durationTicks": 128,
          "midi": 52,
          "name": "E3",
          "ticks": 5504,
          "time": 22.831839000000002,
          "velocity": 0.3937007874015748
        },
        {
          "duration": 0.2654865000000015,
          "durationTicks": 64,
          "midi": 52,
          "name": "E3",
          "ticks": 5568,
          "time": 23.0973255,
          "velocity": 0.3937007874015748
        },
        {
          "duration": 0.2654865000000015,
          "durationTicks": 64,
          "midi": 68,
          "name": "G#4",
          "ticks": 5568,
          "time": 23.0973255,
          "velocity": 0.3937007874015748
        },
        {
          "duration": 0.2654865000000015,
          "durationTicks": 64,
          "midi": 68,
          "name": "G#4",
          "ticks": 5568,
          "time": 23.0973255,
          "velocity": 0.3937007874015748
        },
        {
          "duration": 0.26548649999999796,
          "durationTicks": 64,
          "midi": 52,
          "name": "E3",
          "ticks": 5632,
          "time": 23.362812,
          "velocity": 0.3937007874015748
        },
        {
          "duration": 0.26548649999999796,
          "durationTicks": 64,
          "midi": 68,
          "name": "G#4",
          "ticks": 5632,
          "time": 23.362812,
          "velocity": 0.3937007874015748
        },
        {
          "duration": 0.26548649999999796,
          "durationTicks": 64,
          "midi": 68,
          "name": "G#4",
          "ticks": 5632,
          "time": 23.362812,
          "velocity": 0.3937007874015748
        },
        {
          "duration": 0.2654865000000015,
          "durationTicks": 64,
          "midi": 70,
          "name": "A#4",
          "ticks": 5696,
          "time": 23.6282985,
          "velocity": 0.3937007874015748
        },
        {
          "duration": 0.2654865000000015,
          "durationTicks": 64,
          "midi": 70,
          "name": "A#4",
          "ticks": 5696,
          "time": 23.6282985,
          "velocity": 0.3937007874015748
        },
        {
          "duration": 0.2654865000000015,
          "durationTicks": 64,
          "midi": 71,
          "name": "B4",
          "ticks": 5760,
          "time": 23.893785,
          "velocity": 0.3937007874015748
        },
        {
          "duration": 0.2654865000000015,
          "durationTicks": 64,
          "midi": 71,
          "name": "B4",
          "ticks": 5760,
          "time": 23.893785,
          "velocity": 0.3937007874015748
        },
        {
          "duration": 0.2654865000000015,
          "durationTicks": 64,
          "midi": 52,
          "name": "E3",
          "ticks": 5760,
          "time": 23.893785,
          "velocity": 0.3937007874015748
        },
        {
          "duration": 0.5309729999999995,
          "durationTicks": 128,
          "midi": 52,
          "name": "E3",
          "ticks": 5824,
          "time": 24.159271500000003,
          "velocity": 0.3937007874015748
        },
        {
          "duration": 0.5309729999999995,
          "durationTicks": 128,
          "midi": 68,
          "name": "G#4",
          "ticks": 5824,
          "time": 24.159271500000003,
          "velocity": 0.3937007874015748
        },
        {
          "duration": 0.5309729999999995,
          "durationTicks": 128,
          "midi": 68,
          "name": "G#4",
          "ticks": 5824,
          "time": 24.159271500000003,
          "velocity": 0.3937007874015748
        },
        {
          "duration": 0.26548649999999796,
          "durationTicks": 64,
          "midi": 66,
          "name": "F#4",
          "ticks": 5952,
          "time": 24.690244500000002,
          "velocity": 0.3937007874015748
        },
        {
          "duration": 0.26548649999999796,
          "durationTicks": 64,
          "midi": 66,
          "name": "F#4",
          "ticks": 5952,
          "time": 24.690244500000002,
          "velocity": 0.3937007874015748
        },
        {
          "duration": 0.2654865000000015,
          "durationTicks": 64,
          "midi": 66,
          "name": "F#4",
          "ticks": 6016,
          "time": 24.955731,
          "velocity": 0.3937007874015748
        },
        {
          "duration": 0.2654865000000015,
          "durationTicks": 64,
          "midi": 66,
          "name": "F#4",
          "ticks": 6016,
          "time": 24.955731,
          "velocity": 0.3937007874015748
        },
        {
          "duration": 0.2654865000000015,
          "durationTicks": 64,
          "midi": 66,
          "name": "F#4",
          "ticks": 6016,
          "time": 24.955731,
          "velocity": 0.3937007874015748
        },
        {
          "duration": 0.2654865000000015,
          "durationTicks": 64,
          "midi": 54,
          "name": "F#3",
          "ticks": 6016,
          "time": 24.955731,
          "velocity": 0.3937007874015748
        },
        {
          "duration": 0.2654865000000015,
          "durationTicks": 64,
          "midi": 61,
          "name": "C#4",
          "ticks": 6016,
          "time": 24.955731,
          "velocity": 0.3937007874015748
        },
        {
          "duration": 0.2654865000000015,
          "durationTicks": 64,
          "midi": 54,
          "name": "F#3",
          "ticks": 6016,
          "time": 24.955731,
          "velocity": 0.3937007874015748
        },
        {
          "duration": 0.2654865000000015,
          "durationTicks": 64,
          "midi": 54,
          "name": "F#3",
          "ticks": 6016,
          "time": 24.955731,
          "velocity": 0.3937007874015748
        },
        {
          "duration": 0.26548649999999796,
          "durationTicks": 64,
          "midi": 66,
          "name": "F#4",
          "ticks": 6144,
          "time": 25.486704000000003,
          "velocity": 0.3937007874015748
        },
        {
          "duration": 0.26548649999999796,
          "durationTicks": 64,
          "midi": 66,
          "name": "F#4",
          "ticks": 6144,
          "time": 25.486704000000003,
          "velocity": 0.3937007874015748
        },
        {
          "duration": 0.26548649999999796,
          "durationTicks": 64,
          "midi": 54,
          "name": "F#3",
          "ticks": 6144,
          "time": 25.486704000000003,
          "velocity": 0.3937007874015748
        },
        {
          "duration": 0.2654865000000015,
          "durationTicks": 64,
          "midi": 61,
          "name": "C#4",
          "ticks": 6208,
          "time": 25.7521905,
          "velocity": 0.3937007874015748
        },
        {
          "duration": 0.2654865000000015,
          "durationTicks": 64,
          "midi": 61,
          "name": "C#4",
          "ticks": 6208,
          "time": 25.7521905,
          "velocity": 0.3937007874015748
        },
        {
          "duration": 0.2654865000000015,
          "durationTicks": 64,
          "midi": 54,
          "name": "F#3",
          "ticks": 6208,
          "time": 25.7521905,
          "velocity": 0.3937007874015748
        },
        {
          "duration": 0.2654865000000015,
          "durationTicks": 64,
          "midi": 54,
          "name": "F#3",
          "ticks": 6336,
          "time": 26.2831635,
          "velocity": 0.3937007874015748
        },
        {
          "duration": 0.2654865000000015,
          "durationTicks": 64,
          "midi": 73,
          "name": "C#5",
          "ticks": 6336,
          "time": 26.2831635,
          "velocity": 0.3937007874015748
        },
        {
          "duration": 0.5309729999999995,
          "durationTicks": 128,
          "midi": 54,
          "name": "F#3",
          "ticks": 6400,
          "time": 26.548650000000002,
          "velocity": 0.3937007874015748
        },
        {
          "duration": 0.5309729999999995,
          "durationTicks": 128,
          "midi": 68,
          "name": "G#4",
          "ticks": 6528,
          "time": 27.079623,
          "velocity": 0.3937007874015748
        },
        {
          "duration": 1.3274325000000005,
          "durationTicks": 320,
          "midi": 59,
          "name": "B3",
          "ticks": 6528,
          "time": 27.079623,
          "velocity": 0.3937007874015748
        },
        {
          "duration": 0.5309729999999995,
          "durationTicks": 128,
          "midi": 52,
          "name": "E3",
          "ticks": 6528,
          "time": 27.079623,
          "velocity": 0.3937007874015748
        },
        {
          "duration": 0.26548649999999796,
          "durationTicks": 64,
          "midi": 52,
          "name": "E3",
          "ticks": 6592,
          "time": 27.345109500000003,
          "velocity": 0.3937007874015748
        },
        {
          "duration": 0.26548649999999796,
          "durationTicks": 64,
          "midi": 68,
          "name": "G#4",
          "ticks": 6592,
          "time": 27.345109500000003,
          "velocity": 0.3937007874015748
        },
        {
          "duration": 0.26548649999999796,
          "durationTicks": 64,
          "midi": 56,
          "name": "G#3",
          "ticks": 6592,
          "time": 27.345109500000003,
          "velocity": 0.3937007874015748
        },
        {
          "duration": 0.2654865000000015,
          "durationTicks": 64,
          "midi": 56,
          "name": "G#3",
          "ticks": 6656,
          "time": 27.610596,
          "velocity": 0.3937007874015748
        },
        {
          "duration": 0.2654865000000015,
          "durationTicks": 64,
          "midi": 52,
          "name": "E3",
          "ticks": 6656,
          "time": 27.610596,
          "velocity": 0.3937007874015748
        },
        {
          "duration": 0.2654865000000015,
          "durationTicks": 64,
          "midi": 68,
          "name": "G#4",
          "ticks": 6656,
          "time": 27.610596,
          "velocity": 0.3937007874015748
        },
        {
          "duration": 0.26548649999999796,
          "durationTicks": 64,
          "midi": 70,
          "name": "A#4",
          "ticks": 6720,
          "time": 27.876082500000003,
          "velocity": 0.3937007874015748
        },
        {
          "duration": 0.26548649999999796,
          "durationTicks": 64,
          "midi": 58,
          "name": "A#3",
          "ticks": 6720,
          "time": 27.876082500000003,
          "velocity": 0.3937007874015748
        },
        {
          "duration": 0.2654865000000015,
          "durationTicks": 64,
          "midi": 71,
          "name": "B4",
          "ticks": 6784,
          "time": 28.141569,
          "velocity": 0.3937007874015748
        },
        {
          "duration": 0.2654865000000015,
          "durationTicks": 64,
          "midi": 59,
          "name": "B3",
          "ticks": 6784,
          "time": 28.141569,
          "velocity": 0.3937007874015748
        },
        {
          "duration": 0.2654865000000015,
          "durationTicks": 64,
          "midi": 52,
          "name": "E3",
          "ticks": 6784,
          "time": 28.141569,
          "velocity": 0.3937007874015748
        },
        {
          "duration": 0.26548649999999796,
          "durationTicks": 64,
          "midi": 68,
          "name": "G#4",
          "ticks": 6848,
          "time": 28.407055500000002,
          "velocity": 0.3937007874015748
        },
        {
          "duration": 0.26548649999999796,
          "durationTicks": 64,
          "midi": 56,
          "name": "G#3",
          "ticks": 6848,
          "time": 28.407055500000002,
          "velocity": 0.3937007874015748
        },
        {
          "duration": 0.5309729999999995,
          "durationTicks": 128,
          "midi": 52,
          "name": "E3",
          "ticks": 6848,
          "time": 28.407055500000002,
          "velocity": 0.3937007874015748
        },
        {
          "duration": 0.2654865000000015,
          "durationTicks": 64,
          "midi": 71,
          "name": "B4",
          "ticks": 6912,
          "time": 28.672542,
          "velocity": 0.3937007874015748
        },
        {
          "duration": 0.2654865000000015,
          "durationTicks": 64,
          "midi": 59,
          "name": "B3",
          "ticks": 6912,
          "time": 28.672542,
          "velocity": 0.3937007874015748
        },
        {
          "duration": 0.2654865000000015,
          "durationTicks": 64,
          "midi": 73,
          "name": "C#5",
          "ticks": 6976,
          "time": 28.9380285,
          "velocity": 0.3937007874015748
        },
        {
          "duration": 0.2654865000000015,
          "durationTicks": 64,
          "midi": 61,
          "name": "C#4",
          "ticks": 6976,
          "time": 28.9380285,
          "velocity": 0.3937007874015748
        },
        {
          "duration": 0.5309729999999995,
          "durationTicks": 128,
          "midi": 70,
          "name": "A#4",
          "ticks": 7040,
          "time": 29.203515000000003,
          "velocity": 0.3937007874015748
        },
        {
          "duration": 1.5929189999999984,
          "durationTicks": 384,
          "midi": 61,
          "name": "C#4",
          "ticks": 7040,
          "time": 29.203515000000003,
          "velocity": 0.3937007874015748
        },
        {
          "duration": 0.5309729999999995,
          "durationTicks": 128,
          "midi": 54,
          "name": "F#3",
          "ticks": 7040,
          "time": 29.203515000000003,
          "velocity": 0.3937007874015748
        },
        {
          "duration": 0.2654865000000015,
          "durationTicks": 64,
          "midi": 70,
          "name": "A#4",
          "ticks": 7104,
          "time": 29.4690015,
          "velocity": 0.3937007874015748
        },
        {
          "duration": 0.2654865000000015,
          "durationTicks": 64,
          "midi": 54,
          "name": "F#3",
          "ticks": 7104,
          "time": 29.4690015,
          "velocity": 0.3937007874015748
        },
        {
          "duration": 0.2654865000000015,
          "durationTicks": 64,
          "midi": 58,
          "name": "A#3",
          "ticks": 7104,
          "time": 29.4690015,
          "velocity": 0.3937007874015748
        },
        {
          "duration": 0.26548649999999796,
          "durationTicks": 64,
          "midi": 68,
          "name": "G#4",
          "ticks": 7168,
          "time": 29.734488000000002,
          "velocity": 0.3937007874015748
        },
        {
          "duration": 0.26548649999999796,
          "durationTicks": 64,
          "midi": 56,
          "name": "G#3",
          "ticks": 7168,
          "time": 29.734488000000002,
          "velocity": 0.3937007874015748
        },
        {
          "duration": 0.26548649999999796,
          "durationTicks": 64,
          "midi": 54,
          "name": "F#3",
          "ticks": 7168,
          "time": 29.734488000000002,
          "velocity": 0.3937007874015748
        },
        {
          "duration": 0.796459500000001,
          "durationTicks": 192,
          "midi": 66,
          "name": "F#4",
          "ticks": 7232,
          "time": 29.9999745,
          "velocity": 0.3937007874015748
        },
        {
          "duration": 0.5309729999999995,
          "durationTicks": 128,
          "midi": 54,
          "name": "F#3",
          "ticks": 7232,
          "time": 29.9999745,
          "velocity": 0.3937007874015748
        },
        {
          "duration": 0.26548649999999796,
          "durationTicks": 64,
          "midi": 54,
          "name": "F#3",
          "ticks": 7296,
          "time": 30.265461000000002,
          "velocity": 0.3937007874015748
        },
        {
          "duration": 0.2654865000000015,
          "durationTicks": 64,
          "midi": 54,
          "name": "F#3",
          "ticks": 7360,
          "time": 30.5309475,
          "velocity": 0.3937007874015748
        },
        {
          "duration": 0.5309729999999995,
          "durationTicks": 128,
          "midi": 68,
          "name": "G#4",
          "ticks": 7424,
          "time": 30.796434,
          "velocity": 0.3937007874015748
        },
        {
          "duration": 0.5309729999999995,
          "durationTicks": 128,
          "midi": 61,
          "name": "C#4",
          "ticks": 7424,
          "time": 30.796434,
          "velocity": 0.3937007874015748
        },
        {
          "duration": 0.5309729999999995,
          "durationTicks": 128,
          "midi": 53,
          "name": "F3",
          "ticks": 7424,
          "time": 30.796434,
          "velocity": 0.3937007874015748
        },
        {
          "duration": 0.5309729999999995,
          "durationTicks": 128,
          "midi": 68,
          "name": "G#4",
          "ticks": 7552,
          "time": 31.327407,
          "velocity": 0.3937007874015748
        },
        {
          "duration": 1.061945999999999,
          "durationTicks": 256,
          "midi": 59,
          "name": "B3",
          "ticks": 7552,
          "time": 31.327407,
          "velocity": 0.3937007874015748
        },
        {
          "duration": 0.5309729999999995,
          "durationTicks": 128,
          "midi": 52,
          "name": "E3",
          "ticks": 7552,
          "time": 31.327407,
          "velocity": 0.3937007874015748
        },
        {
          "duration": 0.26548649999999796,
          "durationTicks": 64,
          "midi": 56,
          "name": "G#3",
          "ticks": 7616,
          "time": 31.592893500000002,
          "velocity": 0.3937007874015748
        },
        {
          "duration": 0.26548649999999796,
          "durationTicks": 64,
          "midi": 52,
          "name": "E3",
          "ticks": 7616,
          "time": 31.592893500000002,
          "velocity": 0.3937007874015748
        },
        {
          "duration": 0.26548649999999796,
          "durationTicks": 64,
          "midi": 68,
          "name": "G#4",
          "ticks": 7616,
          "time": 31.592893500000002,
          "velocity": 0.3937007874015748
        },
        {
          "duration": 0.26548649999999796,
          "durationTicks": 64,
          "midi": 68,
          "name": "G#4",
          "ticks": 7680,
          "time": 31.85838,
          "velocity": 0.3937007874015748
        },
        {
          "duration": 0.26548649999999796,
          "durationTicks": 64,
          "midi": 52,
          "name": "E3",
          "ticks": 7680,
          "time": 31.85838,
          "velocity": 0.3937007874015748
        },
        {
          "duration": 0.26548649999999796,
          "durationTicks": 64,
          "midi": 56,
          "name": "G#3",
          "ticks": 7680,
          "time": 31.85838,
          "velocity": 0.3937007874015748
        },
        {
          "duration": 0.2654865000000015,
          "durationTicks": 64,
          "midi": 70,
          "name": "A#4",
          "ticks": 7744,
          "time": 32.1238665,
          "velocity": 0.3937007874015748
        },
        {
          "duration": 0.2654865000000015,
          "durationTicks": 64,
          "midi": 58,
          "name": "A#3",
          "ticks": 7744,
          "time": 32.1238665,
          "velocity": 0.3937007874015748
        },
        {
          "duration": 0.530973000000003,
          "durationTicks": 128,
          "midi": 68,
          "name": "G#4",
          "ticks": 7808,
          "time": 32.389353,
          "velocity": 0.3937007874015748
        },
        {
          "duration": 0.2654865000000015,
          "durationTicks": 64,
          "midi": 49,
          "name": "C#3",
          "ticks": 7808,
          "time": 32.389353,
          "velocity": 0.3937007874015748
        },
        {
          "duration": 1.061945999999999,
          "durationTicks": 256,
          "midi": 52,
          "name": "E3",
          "ticks": 7808,
          "time": 32.389353,
          "velocity": 0.3937007874015748
        },
        {
          "duration": 0.2654865000000015,
          "durationTicks": 64,
          "midi": 59,
          "name": "B3",
          "ticks": 7808,
          "time": 32.389353,
          "velocity": 0.3937007874015748
        },
        {
          "duration": 1.061945999999999,
          "durationTicks": 256,
          "midi": 61,
          "name": "C#4",
          "ticks": 7808,
          "time": 32.389353,
          "velocity": 0.3937007874015748
        },
        {
          "duration": 0.2654865000000015,
          "durationTicks": 64,
          "midi": 71,
          "name": "B4",
          "ticks": 7808,
          "time": 32.389353,
          "velocity": 0.3937007874015748
        },
        {
          "duration": 0.2654865000000015,
          "durationTicks": 64,
          "midi": 68,
          "name": "G#4",
          "ticks": 7872,
          "time": 32.6548395,
          "velocity": 0.3937007874015748
        },
        {
          "duration": 0.530973000000003,
          "durationTicks": 128,
          "midi": 49,
          "name": "C#3",
          "ticks": 7872,
          "time": 32.6548395,
          "velocity": 0.3937007874015748
        },
        {
          "duration": 0.2654865000000015,
          "durationTicks": 64,
          "midi": 56,
          "name": "G#3",
          "ticks": 7872,
          "time": 32.6548395,
          "velocity": 0.3937007874015748
        },
        {
          "duration": 0.5309729999999959,
          "durationTicks": 128,
          "midi": 54,
          "name": "F#3",
          "ticks": 7936,
          "time": 32.920326,
          "velocity": 0.3937007874015748
        },
        {
          "duration": 0.5309729999999959,
          "durationTicks": 128,
          "midi": 66,
          "name": "F#4",
          "ticks": 7936,
          "time": 32.920326,
          "velocity": 0.3937007874015748
        },
        {
          "duration": 0.2654865000000015,
          "durationTicks": 64,
          "midi": 73,
          "name": "C#5",
          "ticks": 8064,
          "time": 33.451299,
          "velocity": 0.3937007874015748
        },
        {
          "duration": 1.592919000000002,
          "durationTicks": 384,
          "midi": 70,
          "name": "A#4",
          "ticks": 8064,
          "time": 33.451299,
          "velocity": 0.3937007874015748
        },
        {
          "duration": 0.2654865000000015,
          "durationTicks": 64,
          "midi": 61,
          "name": "C#4",
          "ticks": 8064,
          "time": 33.451299,
          "velocity": 0.3937007874015748
        },
        {
          "duration": 0.2654865000000015,
          "durationTicks": 64,
          "midi": 61,
          "name": "C#4",
          "ticks": 8064,
          "time": 33.451299,
          "velocity": 0.3937007874015748
        },
        {
          "duration": 0.2654865000000015,
          "durationTicks": 64,
          "midi": 73,
          "name": "C#5",
          "ticks": 8064,
          "time": 33.451299,
          "velocity": 0.3937007874015748
        },
        {
          "duration": 0.2654865000000015,
          "durationTicks": 64,
          "midi": 54,
          "name": "F#3",
          "ticks": 8064,
          "time": 33.451299,
          "velocity": 0.3937007874015748
        },
        {
          "duration": 0.2654865000000015,
          "durationTicks": 64,
          "midi": 54,
          "name": "F#3",
          "ticks": 8064,
          "time": 33.451299,
          "velocity": 0.3937007874015748
        },
        {
          "duration": 0.2654865000000015,
          "durationTicks": 64,
          "midi": 73,
          "name": "C#5",
          "ticks": 8128,
          "time": 33.7167855,
          "velocity": 0.3937007874015748
        },
        {
          "duration": 0.2654865000000015,
          "durationTicks": 64,
          "midi": 54,
          "name": "F#3",
          "ticks": 8128,
          "time": 33.7167855,
          "velocity": 0.3937007874015748
        },
        {
          "duration": 0.2654865000000015,
          "durationTicks": 64,
          "midi": 73,
          "name": "C#5",
          "ticks": 8128,
          "time": 33.7167855,
          "velocity": 0.3937007874015748
        },
        {
          "duration": 0.2654865000000015,
          "durationTicks": 64,
          "midi": 61,
          "name": "C#4",
          "ticks": 8128,
          "time": 33.7167855,
          "velocity": 0.3937007874015748
        },
        {
          "duration": 0.2654865000000015,
          "durationTicks": 64,
          "midi": 73,
          "name": "C#5",
          "ticks": 8192,
          "time": 33.982272,
          "velocity": 0.3937007874015748
        },
        {
          "duration": 0.2654865000000015,
          "durationTicks": 64,
          "midi": 73,
          "name": "C#5",
          "ticks": 8192,
          "time": 33.982272,
          "velocity": 0.3937007874015748
        },
        {
          "duration": 0.2654865000000015,
          "durationTicks": 64,
          "midi": 61,
          "name": "C#4",
          "ticks": 8192,
          "time": 33.982272,
          "velocity": 0.3937007874015748
        },
        {
          "duration": 0.2654865000000015,
          "durationTicks": 64,
          "midi": 75,
          "name": "D#5",
          "ticks": 8256,
          "time": 34.2477585,
          "velocity": 0.3937007874015748
        },
        {
          "duration": 0.2654865000000015,
          "durationTicks": 64,
          "midi": 75,
          "name": "D#5",
          "ticks": 8256,
          "time": 34.2477585,
          "velocity": 0.3937007874015748
        },
        {
          "duration": 0.2654865000000015,
          "durationTicks": 64,
          "midi": 63,
          "name": "D#4",
          "ticks": 8256,
          "time": 34.2477585,
          "velocity": 0.3937007874015748
        },
        {
          "duration": 0.2654865000000015,
          "durationTicks": 64,
          "midi": 54,
          "name": "F#3",
          "ticks": 8256,
          "time": 34.2477585,
          "velocity": 0.3937007874015748
        },
        {
          "duration": 0.5309729999999959,
          "durationTicks": 128,
          "midi": 73,
          "name": "C#5",
          "ticks": 8320,
          "time": 34.513245000000005,
          "velocity": 0.3937007874015748
        },
        {
          "duration": 0.5309729999999959,
          "durationTicks": 128,
          "midi": 73,
          "name": "C#5",
          "ticks": 8320,
          "time": 34.513245000000005,
          "velocity": 0.3937007874015748
        },
        {
          "duration": 0.5309729999999959,
          "durationTicks": 128,
          "midi": 61,
          "name": "C#4",
          "ticks": 8320,
          "time": 34.513245000000005,
          "velocity": 0.3937007874015748
        },
        {
          "duration": 0.5309729999999959,
          "durationTicks": 128,
          "midi": 54,
          "name": "F#3",
          "ticks": 8320,
          "time": 34.513245000000005,
          "velocity": 0.3937007874015748
        },
        {
          "duration": 0.530973000000003,
          "durationTicks": 128,
          "midi": 61,
          "name": "C#4",
          "ticks": 8448,
          "time": 35.044218,
          "velocity": 0.3937007874015748
        },
        {
          "duration": 0.530973000000003,
          "durationTicks": 128,
          "midi": 53,
          "name": "F3",
          "ticks": 8448,
          "time": 35.044218,
          "velocity": 0.3937007874015748
        },
        {
          "duration": 0.530973000000003,
          "durationTicks": 128,
          "midi": 68,
          "name": "G#4",
          "ticks": 8448,
          "time": 35.044218,
          "velocity": 0.3937007874015748
        },
        {
          "duration": 1.3274325000000005,
          "durationTicks": 320,
          "midi": 71,
          "name": "B4",
          "ticks": 8576,
          "time": 35.575191000000004,
          "velocity": 0.3937007874015748
        },
        {
          "duration": 1.3274325000000005,
          "durationTicks": 320,
          "midi": 71,
          "name": "B4",
          "ticks": 8576,
          "time": 35.575191000000004,
          "velocity": 0.3937007874015748
        },
        {
          "duration": 2.123891999999998,
          "durationTicks": 512,
          "midi": 56,
          "name": "G#3",
          "ticks": 8576,
          "time": 35.575191000000004,
          "velocity": 0.3937007874015748
        },
        {
          "duration": 0.2654865000000015,
          "durationTicks": 64,
          "midi": 52,
          "name": "E3",
          "ticks": 8576,
          "time": 35.575191000000004,
          "velocity": 0.3937007874015748
        },
        {
          "duration": 0.2654865000000015,
          "durationTicks": 64,
          "midi": 52,
          "name": "E3",
          "ticks": 8576,
          "time": 35.575191000000004,
          "velocity": 0.3937007874015748
        },
        {
          "duration": 0.2654864999999944,
          "durationTicks": 64,
          "midi": 59,
          "name": "B3",
          "ticks": 8640,
          "time": 35.840677500000005,
          "velocity": 0.3937007874015748
        },
        {
          "duration": 0.2654865000000015,
          "durationTicks": 64,
          "midi": 52,
          "name": "E3",
          "ticks": 8704,
          "time": 36.106164,
          "velocity": 0.3937007874015748
        },
        {
          "duration": 0.2654865000000015,
          "durationTicks": 64,
          "midi": 59,
          "name": "B3",
          "ticks": 8768,
          "time": 36.3716505,
          "velocity": 0.3937007874015748
        },
        {
          "duration": 0.2654865000000015,
          "durationTicks": 64,
          "midi": 52,
          "name": "E3",
          "ticks": 8832,
          "time": 36.637137,
          "velocity": 0.3937007874015748
        },
        {
          "duration": 0.2654864999999944,
          "durationTicks": 64,
          "midi": 73,
          "name": "C#5",
          "ticks": 8896,
          "time": 36.902623500000004,
          "velocity": 0.3937007874015748
        },
        {
          "duration": 0.2654864999999944,
          "durationTicks": 64,
          "midi": 59,
          "name": "B3",
          "ticks": 8896,
          "time": 36.902623500000004,
          "velocity": 0.3937007874015748
        },
        {
          "duration": 0.2654865000000015,
          "durationTicks": 64,
          "midi": 75,
          "name": "D#5",
          "ticks": 8960,
          "time": 37.16811,
          "velocity": 0.3937007874015748
        },
        {
          "duration": 0.2654865000000015,
          "durationTicks": 64,
          "midi": 52,
          "name": "E3",
          "ticks": 8960,
          "time": 37.16811,
          "velocity": 0.3937007874015748
        },
        {
          "duration": 0.2654865000000015,
          "durationTicks": 64,
          "midi": 71,
          "name": "B4",
          "ticks": 9024,
          "time": 37.4335965,
          "velocity": 0.3937007874015748
        },
        {
          "duration": 0.2654865000000015,
          "durationTicks": 64,
          "midi": 59,
          "name": "B3",
          "ticks": 9024,
          "time": 37.4335965,
          "velocity": 0.3937007874015748
        },
        {
          "duration": 0.2654865000000015,
          "durationTicks": 64,
          "midi": 73,
          "name": "C#5",
          "ticks": 9088,
          "time": 37.699083,
          "velocity": 0.3937007874015748
        },
        {
          "duration": 0.2654865000000015,
          "durationTicks": 64,
          "midi": 54,
          "name": "F#3",
          "ticks": 9088,
          "time": 37.699083,
          "velocity": 0.3937007874015748
        },
        {
          "duration": 0.2654865000000015,
          "durationTicks": 64,
          "midi": 54,
          "name": "F#3",
          "ticks": 9088,
          "time": 37.699083,
          "velocity": 0.3937007874015748
        },
        {
          "duration": 2.123891999999998,
          "durationTicks": 512,
          "midi": 58,
          "name": "A#3",
          "ticks": 9088,
          "time": 37.699083,
          "velocity": 0.3937007874015748
        },
        {
          "duration": 0.2654865000000015,
          "durationTicks": 64,
          "midi": 73,
          "name": "C#5",
          "ticks": 9088,
          "time": 37.699083,
          "velocity": 0.3937007874015748
        },
        {
          "duration": 0.2654865000000015,
          "durationTicks": 64,
          "midi": 73,
          "name": "C#5",
          "ticks": 9152,
          "time": 37.9645695,
          "velocity": 0.3937007874015748
        },
        {
          "duration": 0.2654865000000015,
          "durationTicks": 64,
          "midi": 61,
          "name": "C#4",
          "ticks": 9152,
          "time": 37.9645695,
          "velocity": 0.3937007874015748
        },
        {
          "duration": 0.2654864999999944,
          "durationTicks": 64,
          "midi": 73,
          "name": "C#5",
          "ticks": 9216,
          "time": 38.230056000000005,
          "velocity": 0.3937007874015748
        },
        {
          "duration": 0.2654864999999944,
          "durationTicks": 64,
          "midi": 54,
          "name": "F#3",
          "ticks": 9216,
          "time": 38.230056000000005,
          "velocity": 0.3937007874015748
        },
        {
          "duration": 0.2654865000000015,
          "durationTicks": 64,
          "midi": 61,
          "name": "C#4",
          "ticks": 9280,
          "time": 38.4955425,
          "velocity": 0.3937007874015748
        },
        {
          "duration": 0.2654865000000015,
          "durationTicks": 64,
          "midi": 75,
          "name": "D#5",
          "ticks": 9280,
          "time": 38.4955425,
          "velocity": 0.3937007874015748
        },
        {
          "duration": 0.530973000000003,
          "durationTicks": 128,
          "midi": 73,
          "name": "C#5",
          "ticks": 9344,
          "time": 38.761029,
          "velocity": 0.3937007874015748
        },
        {
          "duration": 0.2654865000000015,
          "durationTicks": 64,
          "midi": 54,
          "name": "F#3",
          "ticks": 9344,
          "time": 38.761029,
          "velocity": 0.3937007874015748
        },
        {
          "duration": 0.2654865000000015,
          "durationTicks": 64,
          "midi": 61,
          "name": "C#4",
          "ticks": 9408,
          "time": 39.0265155,
          "velocity": 0.3937007874015748
        },
        {
          "duration": 0.2654865000000015,
          "durationTicks": 64,
          "midi": 54,
          "name": "F#3",
          "ticks": 9472,
          "time": 39.292002000000004,
          "velocity": 0.3937007874015748
        },
        {
          "duration": 0.5309729999999959,
          "durationTicks": 128,
          "midi": 66,
          "name": "F#4",
          "ticks": 9472,
          "time": 39.292002000000004,
          "velocity": 0.3937007874015748
        },
        {
          "duration": 0.2654864999999944,
          "durationTicks": 64,
          "midi": 61,
          "name": "C#4",
          "ticks": 9536,
          "time": 39.557488500000005,
          "velocity": 0.3937007874015748
        },
        {
          "duration": 1.061946000000006,
          "durationTicks": 256,
          "midi": 71,
          "name": "B4",
          "ticks": 9600,
          "time": 39.822975,
          "velocity": 0.3937007874015748
        },
        {
          "duration": 1.061946000000006,
          "durationTicks": 256,
          "midi": 56,
          "name": "G#3",
          "ticks": 9600,
          "time": 39.822975,
          "velocity": 0.3937007874015748
        },
        {
          "duration": 0.2654865000000015,
          "durationTicks": 64,
          "midi": 52,
          "name": "E3",
          "ticks": 9600,
          "time": 39.822975,
          "velocity": 0.3937007874015748
        },
        {
          "duration": 0.2654865000000015,
          "durationTicks": 64,
          "midi": 52,
          "name": "E3",
          "ticks": 9600,
          "time": 39.822975,
          "velocity": 0.3937007874015748
        },
        {
          "duration": 0.2654865000000015,
          "durationTicks": 64,
          "midi": 59,
          "name": "B3",
          "ticks": 9664,
          "time": 40.0884615,
          "velocity": 0.3937007874015748
        },
        {
          "duration": 0.2654865000000015,
          "durationTicks": 64,
          "midi": 52,
          "name": "E3",
          "ticks": 9728,
          "time": 40.353948,
          "velocity": 0.3937007874015748
        },
        {
          "duration": 0.2654865000000015,
          "durationTicks": 64,
          "midi": 59,
          "name": "B3",
          "ticks": 9792,
          "time": 40.619434500000004,
          "velocity": 0.3937007874015748
        },
        {
          "duration": 1.061945999999999,
          "durationTicks": 256,
          "midi": 73,
          "name": "C#5",
          "ticks": 9856,
          "time": 40.884921000000006,
          "velocity": 0.3937007874015748
        },
        {
          "duration": 0.2654864999999944,
          "durationTicks": 64,
          "midi": 68,
          "name": "G#4",
          "ticks": 9856,
          "time": 40.884921000000006,
          "velocity": 0.3937007874015748
        },
        {
          "duration": 0.5309729999999959,
          "durationTicks": 128,
          "midi": 56,
          "name": "G#3",
          "ticks": 9856,
          "time": 40.884921000000006,
          "velocity": 0.3937007874015748
        },
        {
          "duration": 1.061945999999999,
          "durationTicks": 256,
          "midi": 52,
          "name": "E3",
          "ticks": 9856,
          "time": 40.884921000000006,
          "velocity": 0.3937007874015748
        },
        {
          "duration": 0.2654864999999944,
          "durationTicks": 64,
          "midi": 49,
          "name": "C#3",
          "ticks": 9856,
          "time": 40.884921000000006,
          "velocity": 0.3937007874015748
        },
        {
          "duration": 0.2654865000000015,
          "durationTicks": 64,
          "midi": 56,
          "name": "G#3",
          "ticks": 9920,
          "time": 41.1504075,
          "velocity": 0.3937007874015748
        },
        {
          "duration": 0.2654865000000015,
          "durationTicks": 64,
          "midi": 70,
          "name": "A#4",
          "ticks": 9920,
          "time": 41.1504075,
          "velocity": 0.3937007874015748
        },
        {
          "duration": 0.2654865000000015,
          "durationTicks": 64,
          "midi": 71,
          "name": "B4",
          "ticks": 9984,
          "time": 41.415894,
          "velocity": 0.3937007874015748
        },
        {
          "duration": 0.2654865000000015,
          "durationTicks": 64,
          "midi": 49,
          "name": "C#3",
          "ticks": 9984,
          "time": 41.415894,
          "velocity": 0.3937007874015748
        },
        {
          "duration": 0.2654865000000015,
          "durationTicks": 64,
          "midi": 68,
          "name": "G#4",
          "ticks": 10048,
          "time": 41.6813805,
          "velocity": 0.3937007874015748
        },
        {
          "duration": 0.2654865000000015,
          "durationTicks": 64,
          "midi": 56,
          "name": "G#3",
          "ticks": 10048,
          "time": 41.6813805,
          "velocity": 0.3937007874015748
        },
        {
          "duration": 0.1327432499999972,
          "durationTicks": 32,
          "midi": 58,
          "name": "A#3",
          "ticks": 10112,
          "time": 41.946867000000005,
          "velocity": 0.3937007874015748
        },
        {
          "duration": 0.1327432499999972,
          "durationTicks": 32,
          "midi": 54,
          "name": "F#3",
          "ticks": 10112,
          "time": 41.946867000000005,
          "velocity": 0.3937007874015748
        },
        {
          "duration": 0.1327432499999972,
          "durationTicks": 32,
          "midi": 66,
          "name": "F#4",
          "ticks": 10112,
          "time": 41.946867000000005,
          "velocity": 0.3937007874015748
        },
        {
          "duration": 0.1327432499999972,
          "durationTicks": 32,
          "midi": 61,
          "name": "C#4",
          "ticks": 10112,
          "time": 41.946867000000005,
          "velocity": 0.3937007874015748
        },
        {
          "duration": 0.2654865000000015,
          "durationTicks": 64,
          "midi": 73,
          "name": "C#5",
          "ticks": 10176,
          "time": 42.2123535,
          "velocity": 0.3937007874015748
        },
        {
          "duration": 0.2654865000000015,
          "durationTicks": 64,
          "midi": 75,
          "name": "D#5",
          "ticks": 10240,
          "time": 42.47784,
          "velocity": 0.3937007874015748
        },
        {
          "duration": 0.7964594999999974,
          "durationTicks": 192,
          "midi": 73,
          "name": "C#5",
          "ticks": 10304,
          "time": 42.7433265,
          "velocity": 0.3937007874015748
        },
        {
          "duration": 0.1327432500000043,
          "durationTicks": 32,
          "midi": 66,
          "name": "F#4",
          "ticks": 10496,
          "time": 43.539786,
          "velocity": 0.3937007874015748
        },
        {
          "duration": 0.1327432499999972,
          "durationTicks": 32,
          "midi": 68,
          "name": "G#4",
          "ticks": 10528,
          "time": 43.672529250000004,
          "velocity": 0.3937007874015748
        },
        {
          "duration": 0.1327432500000043,
          "durationTicks": 32,
          "midi": 71,
          "name": "B4",
          "ticks": 10560,
          "time": 43.8052725,
          "velocity": 0.3937007874015748
        },
        {
          "duration": 0.1327432499999972,
          "durationTicks": 32,
          "midi": 68,
          "name": "G#4",
          "ticks": 10592,
          "time": 43.938015750000005,
          "velocity": 0.3937007874015748
        },
        {
          "duration": 0.7964594999999974,
          "durationTicks": 192,
          "midi": 40,
          "name": "E2",
          "ticks": 10624,
          "time": 44.070759,
          "velocity": 0.3937007874015748
        },
        {
          "duration": 0.7964594999999974,
          "durationTicks": 192,
          "midi": 59,
          "name": "B3",
          "ticks": 10624,
          "time": 44.070759,
          "velocity": 0.3937007874015748
        },
        {
          "duration": 0.7964594999999974,
          "durationTicks": 192,
          "midi": 47,
          "name": "B2",
          "ticks": 10624,
          "time": 44.070759,
          "velocity": 0.3937007874015748
        },
        {
          "duration": 0.3982297499999987,
          "durationTicks": 96,
          "midi": 75,
          "name": "D#5",
          "ticks": 10624,
          "time": 44.070759,
          "velocity": 0.3937007874015748
        },
        {
          "duration": 0.7964594999999974,
          "durationTicks": 192,
          "midi": 56,
          "name": "G#3",
          "ticks": 10624,
          "time": 44.070759,
          "velocity": 0.3937007874015748
        },
        {
          "duration": 0.3982297499999987,
          "durationTicks": 96,
          "midi": 75,
          "name": "D#5",
          "ticks": 10720,
          "time": 44.46898875,
          "velocity": 0.3937007874015748
        },
        {
          "duration": 0.7964595000000045,
          "durationTicks": 192,
          "midi": 73,
          "name": "C#5",
          "ticks": 10816,
          "time": 44.8672185,
          "velocity": 0.3937007874015748
        },
        {
          "duration": 1.3274325000000005,
          "durationTicks": 320,
          "midi": 42,
          "name": "F#2",
          "ticks": 10816,
          "time": 44.8672185,
          "velocity": 0.3937007874015748
        },
        {
          "duration": 0.7964595000000045,
          "durationTicks": 192,
          "midi": 61,
          "name": "C#4",
          "ticks": 10816,
          "time": 44.8672185,
          "velocity": 0.3937007874015748
        },
        {
          "duration": 1.3274325000000005,
          "durationTicks": 320,
          "midi": 49,
          "name": "C#3",
          "ticks": 10816,
          "time": 44.8672185,
          "velocity": 0.3937007874015748
        },
        {
          "duration": 1.3274325000000005,
          "durationTicks": 320,
          "midi": 58,
          "name": "A#3",
          "ticks": 10816,
          "time": 44.8672185,
          "velocity": 0.3937007874015748
        },
        {
          "duration": 0.1327432499999972,
          "durationTicks": 32,
          "midi": 66,
          "name": "F#4",
          "ticks": 11008,
          "time": 45.663678000000004,
          "velocity": 0.3937007874015748
        },
        {
          "duration": 0.5309729999999959,
          "durationTicks": 128,
          "midi": 54,
          "name": "F#3",
          "ticks": 11008,
          "time": 45.663678000000004,
          "velocity": 0.3937007874015748
        },
        {
          "duration": 0.1327432500000043,
          "durationTicks": 32,
          "midi": 68,
          "name": "G#4",
          "ticks": 11040,
          "time": 45.79642125,
          "velocity": 0.3937007874015748
        },
        {
          "duration": 0.1327432499999972,
          "durationTicks": 32,
          "midi": 71,
          "name": "B4",
          "ticks": 11072,
          "time": 45.929164500000006,
          "velocity": 0.3937007874015748
        },
        {
          "duration": 0.1327432499999972,
          "durationTicks": 32,
          "midi": 68,
          "name": "G#4",
          "ticks": 11104,
          "time": 46.06190775,
          "velocity": 0.3937007874015748
        },
        {
          "duration": 0.7964595000000045,
          "durationTicks": 192,
          "midi": 58,
          "name": "A#3",
          "ticks": 11136,
          "time": 46.194651,
          "velocity": 0.3937007874015748
        },
        {
          "duration": 0.7964595000000045,
          "durationTicks": 192,
          "midi": 42,
          "name": "F#2",
          "ticks": 11136,
          "time": 46.194651,
          "velocity": 0.3937007874015748
        },
        {
          "duration": 0.7964595000000045,
          "durationTicks": 192,
          "midi": 51,
          "name": "D#3",
          "ticks": 11136,
          "time": 46.194651,
          "velocity": 0.3937007874015748
        },
        {
          "duration": 0.7964595000000045,
          "durationTicks": 192,
          "midi": 61,
          "name": "C#4",
          "ticks": 11136,
          "time": 46.194651,
          "velocity": 0.3937007874015748
        },
        {
          "duration": 0.3982297499999987,
          "durationTicks": 96,
          "midi": 73,
          "name": "C#5",
          "ticks": 11136,
          "time": 46.194651,
          "velocity": 0.3937007874015748
        },
        {
          "duration": 0.3982297500000058,
          "durationTicks": 96,
          "midi": 73,
          "name": "C#5",
          "ticks": 11232,
          "time": 46.59288075,
          "velocity": 0.3937007874015748
        },
        {
          "duration": 0.3982297499999987,
          "durationTicks": 96,
          "midi": 71,
          "name": "B4",
          "ticks": 11328,
          "time": 46.991110500000005,
          "velocity": 0.3937007874015748
        },
        {
          "duration": 0.7964594999999974,
          "durationTicks": 192,
          "midi": 63,
          "name": "D#4",
          "ticks": 11328,
          "time": 46.991110500000005,
          "velocity": 0.3937007874015748
        },
        {
          "duration": 1.3274325000000005,
          "durationTicks": 320,
          "midi": 59,
          "name": "B3",
          "ticks": 11328,
          "time": 46.991110500000005,
          "velocity": 0.3937007874015748
        },
        {
          "duration": 1.3274325000000005,
          "durationTicks": 320,
          "midi": 44,
          "name": "G#2",
          "ticks": 11328,
          "time": 46.991110500000005,
          "velocity": 0.3937007874015748
        },
        {
          "duration": 1.3274325000000005,
          "durationTicks": 320,
          "midi": 51,
          "name": "D#3",
          "ticks": 11328,
          "time": 46.991110500000005,
          "velocity": 0.3937007874015748
        },
        {
          "duration": 0.1327432499999972,
          "durationTicks": 32,
          "midi": 70,
          "name": "A#4",
          "ticks": 11424,
          "time": 47.389340250000004,
          "velocity": 0.3937007874015748
        },
        {
          "duration": 0.2654865000000015,
          "durationTicks": 64,
          "midi": 68,
          "name": "G#4",
          "ticks": 11456,
          "time": 47.5220835,
          "velocity": 0.3937007874015748
        },
        {
          "duration": 0.1327432499999972,
          "durationTicks": 32,
          "midi": 66,
          "name": "F#4",
          "ticks": 11520,
          "time": 47.78757,
          "velocity": 0.3937007874015748
        },
        {
          "duration": 0.1327432499999972,
          "durationTicks": 32,
          "midi": 66,
          "name": "F#4",
          "ticks": 11520,
          "time": 47.78757,
          "velocity": 0.3937007874015748
        },
        {
          "duration": 0.1327432500000043,
          "durationTicks": 32,
          "midi": 68,
          "name": "G#4",
          "ticks": 11552,
          "time": 47.92031325,
          "velocity": 0.3937007874015748
        },
        {
          "duration": 0.1327432500000043,
          "durationTicks": 32,
          "midi": 64,
          "name": "E4",
          "ticks": 11552,
          "time": 47.92031325,
          "velocity": 0.3937007874015748
        },
        {
          "duration": 0.1327432499999972,
          "durationTicks": 32,
          "midi": 71,
          "name": "B4",
          "ticks": 11584,
          "time": 48.053056500000004,
          "velocity": 0.3937007874015748
        },
        {
          "duration": 0.2654865000000015,
          "durationTicks": 64,
          "midi": 63,
          "name": "D#4",
          "ticks": 11584,
          "time": 48.053056500000004,
          "velocity": 0.3937007874015748
        },
        {
          "duration": 0.1327432500000043,
          "durationTicks": 32,
          "midi": 68,
          "name": "G#4",
          "ticks": 11616,
          "time": 48.18579975,
          "velocity": 0.3937007874015748
        },
        {
          "duration": 0.7964594999999974,
          "durationTicks": 192,
          "midi": 44,
          "name": "G#2",
          "ticks": 11648,
          "time": 48.318543000000005,
          "velocity": 0.3937007874015748
        },
        {
          "duration": 0.5309729999999959,
          "durationTicks": 128,
          "midi": 71,
          "name": "B4",
          "ticks": 11648,
          "time": 48.318543000000005,
          "velocity": 0.3937007874015748
        },
        {
          "duration": 0.7964594999999974,
          "durationTicks": 192,
          "midi": 52,
          "name": "E3",
          "ticks": 11648,
          "time": 48.318543000000005,
          "velocity": 0.3937007874015748
        },
        {
          "duration": 0.7964594999999974,
          "durationTicks": 192,
          "midi": 59,
          "name": "B3",
          "ticks": 11648,
          "time": 48.318543000000005,
          "velocity": 0.3937007874015748
        },
        {
          "duration": 0.7964594999999974,
          "durationTicks": 192,
          "midi": 61,
          "name": "C#4",
          "ticks": 11648,
          "time": 48.318543000000005,
          "velocity": 0.3937007874015748
        },
        {
          "duration": 0.2654865000000015,
          "durationTicks": 64,
          "midi": 73,
          "name": "C#5",
          "ticks": 11776,
          "time": 48.849516,
          "velocity": 0.3937007874015748
        },
        {
          "duration": 1.3274325000000005,
          "durationTicks": 320,
          "midi": 46,
          "name": "A#2",
          "ticks": 11840,
          "time": 49.1150025,
          "velocity": 0.3937007874015748
        },
        {
          "duration": 0.3982297499999987,
          "durationTicks": 96,
          "midi": 70,
          "name": "A#4",
          "ticks": 11840,
          "time": 49.1150025,
          "velocity": 0.3937007874015748
        },
        {
          "duration": 0.7964594999999974,
          "durationTicks": 192,
          "midi": 61,
          "name": "C#4",
          "ticks": 11840,
          "time": 49.1150025,
          "velocity": 0.3937007874015748
        },
        {
          "duration": 1.3274325000000005,
          "durationTicks": 320,
          "midi": 54,
          "name": "F#3",
          "ticks": 11840,
          "time": 49.1150025,
          "velocity": 0.3937007874015748
        },
        {
          "duration": 0.7964594999999974,
          "durationTicks": 192,
          "midi": 61,
          "name": "C#4",
          "ticks": 11840,
          "time": 49.1150025,
          "velocity": 0.3937007874015748
        },
        {
          "duration": 0.1327432500000043,
          "durationTicks": 32,
          "midi": 68,
          "name": "G#4",
          "ticks": 11936,
          "time": 49.51323225,
          "velocity": 0.3937007874015748
        },
        {
          "duration": 0.5309729999999959,
          "durationTicks": 128,
          "midi": 66,
          "name": "F#4",
          "ticks": 11968,
          "time": 49.645975500000006,
          "velocity": 0.3937007874015748
        },
        {
          "duration": 0.530973000000003,
          "durationTicks": 128,
          "midi": 54,
          "name": "F#3",
          "ticks": 12032,
          "time": 49.911462,
          "velocity": 0.3937007874015748
        },
        {
          "duration": 0.2654865000000015,
          "durationTicks": 64,
          "midi": 66,
          "name": "F#4",
          "ticks": 12096,
          "time": 50.1769485,
          "velocity": 0.3937007874015748
        },
        {
          "duration": 0.530973000000003,
          "durationTicks": 128,
          "midi": 46,
          "name": "A#2",
          "ticks": 12160,
          "time": 50.442435,
          "velocity": 0.3937007874015748
        },
        {
          "duration": 0.530973000000003,
          "durationTicks": 128,
          "midi": 63,
          "name": "D#4",
          "ticks": 12160,
          "time": 50.442435,
          "velocity": 0.3937007874015748
        },
        {
          "duration": 0.530973000000003,
          "durationTicks": 128,
          "midi": 54,
          "name": "F#3",
          "ticks": 12160,
          "time": 50.442435,
          "velocity": 0.3937007874015748
        },
        {
          "duration": 0.530973000000003,
          "durationTicks": 128,
          "midi": 73,
          "name": "C#5",
          "ticks": 12160,
          "time": 50.442435,
          "velocity": 0.3937007874015748
        },
        {
          "duration": 1.061945999999999,
          "durationTicks": 256,
          "midi": 71,
          "name": "B4",
          "ticks": 12288,
          "time": 50.973408000000006,
          "velocity": 0.3937007874015748
        },
        {
          "duration": 1.5929189999999949,
          "durationTicks": 384,
          "midi": 63,
          "name": "D#4",
          "ticks": 12288,
          "time": 50.973408000000006,
          "velocity": 0.3937007874015748
        },
        {
          "duration": 1.1946892499999962,
          "durationTicks": 288,
          "midi": 56,
          "name": "G#3",
          "ticks": 12288,
          "time": 50.973408000000006,
          "velocity": 0.3937007874015748
        },
        {
          "duration": 1.5929189999999949,
          "durationTicks": 384,
          "midi": 47,
          "name": "B2",
          "ticks": 12288,
          "time": 50.973408000000006,
          "velocity": 0.3937007874015748
        },
        {
          "duration": 0.1327432499999972,
          "durationTicks": 32,
          "midi": 54,
          "name": "F#3",
          "ticks": 12480,
          "time": 51.769867500000004,
          "velocity": 0.3937007874015748
        },
        {
          "duration": 0.1327432499999972,
          "durationTicks": 32,
          "midi": 66,
          "name": "F#4",
          "ticks": 12480,
          "time": 51.769867500000004,
          "velocity": 0.3937007874015748
        },
        {
          "duration": 0.1327432500000043,
          "durationTicks": 32,
          "midi": 66,
          "name": "F#4",
          "ticks": 12512,
          "time": 51.90261075,
          "velocity": 0.3937007874015748
        },
        {
          "duration": 0.1327432500000043,
          "durationTicks": 32,
          "midi": 54,
          "name": "F#3",
          "ticks": 12512,
          "time": 51.90261075,
          "velocity": 0.3937007874015748
        },
        {
          "duration": 0.1327432499999972,
          "durationTicks": 32,
          "midi": 68,
          "name": "G#4",
          "ticks": 12544,
          "time": 52.035354000000005,
          "velocity": 0.3937007874015748
        },
        {
          "duration": 0.1327432499999972,
          "durationTicks": 32,
          "midi": 66,
          "name": "F#4",
          "ticks": 12544,
          "time": 52.035354000000005,
          "velocity": 0.3937007874015748
        },
        {
          "duration": 0.1327432499999972,
          "durationTicks": 32,
          "midi": 56,
          "name": "G#3",
          "ticks": 12544,
          "time": 52.035354000000005,
          "velocity": 0.3937007874015748
        },
        {
          "duration": 0.1327432499999972,
          "durationTicks": 32,
          "midi": 68,
          "name": "G#4",
          "ticks": 12576,
          "time": 52.16809725,
          "velocity": 0.3937007874015748
        },
        {
          "duration": 0.2654865000000015,
          "durationTicks": 64,
          "midi": 71,
          "name": "B4",
          "ticks": 12576,
          "time": 52.16809725,
          "velocity": 0.3937007874015748
        },
        {
          "duration": 0.2654865000000015,
          "durationTicks": 64,
          "midi": 59,
          "name": "B3",
          "ticks": 12576,
          "time": 52.16809725,
          "velocity": 0.3937007874015748
        },
        {
          "duration": 0.1327432500000043,
          "durationTicks": 32,
          "midi": 71,
          "name": "B4",
          "ticks": 12608,
          "time": 52.3008405,
          "velocity": 0.3937007874015748
        },
        {
          "duration": 0.1327432499999972,
          "durationTicks": 32,
          "midi": 59,
          "name": "B3",
          "ticks": 12640,
          "time": 52.433583750000004,
          "velocity": 0.3937007874015748
        },
        {
          "duration": 0.1327432499999972,
          "durationTicks": 32,
          "midi": 68,
          "name": "G#4",
          "ticks": 12640,
          "time": 52.433583750000004,
          "velocity": 0.3937007874015748
        },
        {
          "duration": 0.1327432499999972,
          "durationTicks": 32,
          "midi": 71,
          "name": "B4",
          "ticks": 12640,
          "time": 52.433583750000004,
          "velocity": 0.3937007874015748
        },
        {
          "duration": 0.3982297499999987,
          "durationTicks": 96,
          "midi": 75,
          "name": "D#5",
          "ticks": 12672,
          "time": 52.566327,
          "velocity": 0.3937007874015748
        },
        {
          "duration": 0.7964595000000045,
          "durationTicks": 192,
          "midi": 71,
          "name": "B4",
          "ticks": 12672,
          "time": 52.566327,
          "velocity": 0.3937007874015748
        },
        {
          "duration": 0.7964595000000045,
          "durationTicks": 192,
          "midi": 64,
          "name": "E4",
          "ticks": 12672,
          "time": 52.566327,
          "velocity": 0.3937007874015748
        },
        {
          "duration": 0.7964595000000045,
          "durationTicks": 192,
          "midi": 47,
          "name": "B2",
          "ticks": 12672,
          "time": 52.566327,
          "velocity": 0.3937007874015748
        },
        {
          "duration": 0.7964595000000045,
          "durationTicks": 192,
          "midi": 59,
          "name": "B3",
          "ticks": 12672,
          "time": 52.566327,
          "velocity": 0.3937007874015748
        },
        {
          "duration": 0.7964595000000045,
          "durationTicks": 192,
          "midi": 56,
          "name": "G#3",
          "ticks": 12672,
          "time": 52.566327,
          "velocity": 0.3937007874015748
        },
        {
          "duration": 0.3982297500000058,
          "durationTicks": 96,
          "midi": 75,
          "name": "D#5",
          "ticks": 12768,
          "time": 52.96455675,
          "velocity": 0.3937007874015748
        },
        {
          "duration": 1.3274325000000005,
          "durationTicks": 320,
          "midi": 58,
          "name": "A#3",
          "ticks": 12864,
          "time": 53.362786500000006,
          "velocity": 0.3937007874015748
        },
        {
          "duration": 0.7964594999999974,
          "durationTicks": 192,
          "midi": 61,
          "name": "C#4",
          "ticks": 12864,
          "time": 53.362786500000006,
          "velocity": 0.3937007874015748
        },
        {
          "duration": 0.7964594999999974,
          "durationTicks": 192,
          "midi": 73,
          "name": "C#5",
          "ticks": 12864,
          "time": 53.362786500000006,
          "velocity": 0.3937007874015748
        },
        {
          "duration": 0.9292027499999946,
          "durationTicks": 224,
          "midi": 66,
          "name": "F#4",
          "ticks": 12864,
          "time": 53.362786500000006,
          "velocity": 0.3937007874015748
        },
        {
          "duration": 1.3274325000000005,
          "durationTicks": 320,
          "midi": 49,
          "name": "C#3",
          "ticks": 12864,
          "time": 53.362786500000006,
          "velocity": 0.3937007874015748
        },
        {
          "duration": 0.530973000000003,
          "durationTicks": 128,
          "midi": 54,
          "name": "F#3",
          "ticks": 13056,
          "time": 54.159246,
          "velocity": 0.3937007874015748
        },
        {
          "duration": 0.1327432499999972,
          "durationTicks": 32,
          "midi": 66,
          "name": "F#4",
          "ticks": 13056,
          "time": 54.159246,
          "velocity": 0.3937007874015748
        },
        {
          "duration": 0.1327432500000043,
          "durationTicks": 32,
          "midi": 68,
          "name": "G#4",
          "ticks": 13088,
          "time": 54.29198925,
          "velocity": 0.3937007874015748
        },
        {
          "duration": 0.1327432499999972,
          "durationTicks": 32,
          "midi": 71,
          "name": "B4",
          "ticks": 13120,
          "time": 54.424732500000005,
          "velocity": 0.3937007874015748
        },
        {
          "duration": 0.1327432500000043,
          "durationTicks": 32,
          "midi": 68,
          "name": "G#4",
          "ticks": 13152,
          "time": 54.55747575,
          "velocity": 0.3937007874015748
        },
        {
          "duration": 0.7964594999999974,
          "durationTicks": 192,
          "midi": 61,
          "name": "C#4",
          "ticks": 13184,
          "time": 54.690219000000006,
          "velocity": 0.3937007874015748
        },
        {
          "duration": 0.7964594999999974,
          "durationTicks": 192,
          "midi": 66,
          "name": "F#4",
          "ticks": 13184,
          "time": 54.690219000000006,
          "velocity": 0.3937007874015748
        },
        {
          "duration": 0.7964594999999974,
          "durationTicks": 192,
          "midi": 51,
          "name": "D#3",
          "ticks": 13184,
          "time": 54.690219000000006,
          "velocity": 0.3937007874015748
        },
        {
          "duration": 0.7964594999999974,
          "durationTicks": 192,
          "midi": 58,
          "name": "A#3",
          "ticks": 13184,
          "time": 54.690219000000006,
          "velocity": 0.3937007874015748
        },
        {
          "duration": 0.2654865000000015,
          "durationTicks": 64,
          "midi": 70,
          "name": "A#4",
          "ticks": 13312,
          "time": 55.221192,
          "velocity": 0.3937007874015748
        },
        {
          "duration": 1.3274325000000005,
          "durationTicks": 320,
          "midi": 59,
          "name": "B3",
          "ticks": 13376,
          "time": 55.486678500000004,
          "velocity": 0.3937007874015748
        },
        {
          "duration": 1.3274325000000005,
          "durationTicks": 320,
          "midi": 51,
          "name": "D#3",
          "ticks": 13376,
          "time": 55.486678500000004,
          "velocity": 0.3937007874015748
        },
        {
          "duration": 0.7964594999999974,
          "durationTicks": 192,
          "midi": 63,
          "name": "D#4",
          "ticks": 13376,
          "time": 55.486678500000004,
          "velocity": 0.3937007874015748
        },
        {
          "duration": 0.7964594999999974,
          "durationTicks": 192,
          "midi": 68,
          "name": "G#4",
          "ticks": 13376,
          "time": 55.486678500000004,
          "velocity": 0.3937007874015748
        },
        {
          "duration": 0.3982297499999987,
          "durationTicks": 96,
          "midi": 71,
          "name": "B4",
          "ticks": 13376,
          "time": 55.486678500000004,
          "velocity": 0.3937007874015748
        },
        {
          "duration": 0.1327432499999972,
          "durationTicks": 32,
          "midi": 70,
          "name": "A#4",
          "ticks": 13472,
          "time": 55.88490825,
          "velocity": 0.3937007874015748
        },
        {
          "duration": 0.2654865000000015,
          "durationTicks": 64,
          "midi": 68,
          "name": "G#4",
          "ticks": 13504,
          "time": 56.0176515,
          "velocity": 0.3937007874015748
        },
        {
          "duration": 0.1327432500000043,
          "durationTicks": 32,
          "midi": 66,
          "name": "F#4",
          "ticks": 13568,
          "time": 56.283138,
          "velocity": 0.3937007874015748
        },
        {
          "duration": 0.1327432500000043,
          "durationTicks": 32,
          "midi": 66,
          "name": "F#4",
          "ticks": 13568,
          "time": 56.283138,
          "velocity": 0.3937007874015748
        },
        {
          "duration": 0.1327432499999972,
          "durationTicks": 32,
          "midi": 64,
          "name": "E4",
          "ticks": 13600,
          "time": 56.415881250000005,
          "velocity": 0.3937007874015748
        },
        {
          "duration": 0.1327432499999972,
          "durationTicks": 32,
          "midi": 68,
          "name": "G#4",
          "ticks": 13600,
          "time": 56.415881250000005,
          "velocity": 0.3937007874015748
        },
        {
          "duration": 0.2654865000000015,
          "durationTicks": 64,
          "midi": 63,
          "name": "D#4",
          "ticks": 13632,
          "time": 56.5486245,
          "velocity": 0.3937007874015748
        },
        {
          "duration": 0.1327432499999972,
          "durationTicks": 32,
          "midi": 71,
          "name": "B4",
          "ticks": 13632,
          "time": 56.5486245,
          "velocity": 0.3937007874015748
        },
        {
          "duration": 0.1327432500000043,
          "durationTicks": 32,
          "midi": 68,
          "name": "G#4",
          "ticks": 13664,
          "time": 56.68136775,
          "velocity": 0.3937007874015748
        },
        {
          "duration": 0.7964594999999974,
          "durationTicks": 192,
          "midi": 52,
          "name": "E3",
          "ticks": 13696,
          "time": 56.814111000000004,
          "velocity": 0.3937007874015748
        },
        {
          "duration": 0.7964594999999974,
          "durationTicks": 192,
          "midi": 59,
          "name": "B3",
          "ticks": 13696,
          "time": 56.814111000000004,
          "velocity": 0.3937007874015748
        },
        {
          "duration": 0.7964594999999974,
          "durationTicks": 192,
          "midi": 61,
          "name": "C#4",
          "ticks": 13696,
          "time": 56.814111000000004,
          "velocity": 0.3937007874015748
        },
        {
          "duration": 0.7964594999999974,
          "durationTicks": 192,
          "midi": 68,
          "name": "G#4",
          "ticks": 13696,
          "time": 56.814111000000004,
          "velocity": 0.3937007874015748
        },
        {
          "duration": 0.5309729999999959,
          "durationTicks": 128,
          "midi": 71,
          "name": "B4",
          "ticks": 13696,
          "time": 56.814111000000004,
          "velocity": 0.3937007874015748
        },
        {
          "duration": 0.2654865000000015,
          "durationTicks": 64,
          "midi": 73,
          "name": "C#5",
          "ticks": 13824,
          "time": 57.345084,
          "velocity": 0.3937007874015748
        },
        {
          "duration": 0.3982297499999987,
          "durationTicks": 96,
          "midi": 70,
          "name": "A#4",
          "ticks": 13888,
          "time": 57.6105705,
          "velocity": 0.3937007874015748
        },
        {
          "duration": 0.3982297499999987,
          "durationTicks": 96,
          "midi": 70,
          "name": "A#4",
          "ticks": 13888,
          "time": 57.6105705,
          "velocity": 0.3937007874015748
        },
        {
          "duration": 1.3274325000000005,
          "durationTicks": 320,
          "midi": 54,
          "name": "F#3",
          "ticks": 13888,
          "time": 57.6105705,
          "velocity": 0.3937007874015748
        },
        {
          "duration": 0.7964595000000045,
          "durationTicks": 192,
          "midi": 61,
          "name": "C#4",
          "ticks": 13888,
          "time": 57.6105705,
          "velocity": 0.3937007874015748
        },
        {
          "duration": 0.7964595000000045,
          "durationTicks": 192,
          "midi": 61,
          "name": "C#4",
          "ticks": 13888,
          "time": 57.6105705,
          "velocity": 0.3937007874015748
        },
        {
          "duration": 0.1327432500000043,
          "durationTicks": 32,
          "midi": 68,
          "name": "G#4",
          "ticks": 13984,
          "time": 58.00880025,
          "velocity": 0.3937007874015748
        },
        {
          "duration": 0.5309729999999959,
          "durationTicks": 128,
          "midi": 66,
          "name": "F#4",
          "ticks": 14016,
          "time": 58.141543500000004,
          "velocity": 0.3937007874015748
        },
        {
          "duration": 0.5309729999999959,
          "durationTicks": 128,
          "midi": 54,
          "name": "F#3",
          "ticks": 14080,
          "time": 58.407030000000006,
          "velocity": 0.3937007874015748
        },
        {
          "duration": 0.2654865000000015,
          "durationTicks": 64,
          "midi": 66,
          "name": "F#4",
          "ticks": 14144,
          "time": 58.6725165,
          "velocity": 0.3937007874015748
        },
        {
          "duration": 0.530973000000003,
          "durationTicks": 128,
          "midi": 54,
          "name": "F#3",
          "ticks": 14208,
          "time": 58.938003,
          "velocity": 0.3937007874015748
        },
        {
          "duration": 0.2654865000000015,
          "durationTicks": 64,
          "midi": 58,
          "name": "A#3",
          "ticks": 14208,
          "time": 58.938003,
          "velocity": 0.3937007874015748
        },
        {
          "duration": 0.530973000000003,
          "durationTicks": 128,
          "midi": 63,
          "name": "D#4",
          "ticks": 14208,
          "time": 58.938003,
          "velocity": 0.3937007874015748
        },
        {
          "duration": 0.530973000000003,
          "durationTicks": 128,
          "midi": 70,
          "name": "A#4",
          "ticks": 14208,
          "time": 58.938003,
          "velocity": 0.3937007874015748
        },
        {
          "duration": 0.530973000000003,
          "durationTicks": 128,
          "midi": 73,
          "name": "C#5",
          "ticks": 14208,
          "time": 58.938003,
          "velocity": 0.3937007874015748
        },
        {
          "duration": 0.2654865000000015,
          "durationTicks": 64,
          "midi": 59,
          "name": "B3",
          "ticks": 14272,
          "time": 59.2034895,
          "velocity": 0.3937007874015748
        },
        {
          "duration": 0.5309729999999959,
          "durationTicks": 128,
          "midi": 59,
          "name": "B3",
          "ticks": 14336,
          "time": 59.468976000000005,
          "velocity": 0.3937007874015748
        },
        {
          "duration": 1.061945999999999,
          "durationTicks": 256,
          "midi": 56,
          "name": "G#3",
          "ticks": 14336,
          "time": 59.468976000000005,
          "velocity": 0.3937007874015748
        },
        {
          "duration": 1.061945999999999,
          "durationTicks": 256,
          "midi": 63,
          "name": "D#4",
          "ticks": 14336,
          "time": 59.468976000000005,
          "velocity": 0.3937007874015748
        },
        {
          "duration": 1.061945999999999,
          "durationTicks": 256,
          "midi": 71,
          "name": "B4",
          "ticks": 14336,
          "time": 59.468976000000005,
          "velocity": 0.3937007874015748
        },
        {
          "duration": 1.061945999999999,
          "durationTicks": 256,
          "midi": 71,
          "name": "B4",
          "ticks": 14336,
          "time": 59.468976000000005,
          "velocity": 0.3937007874015748
        },
        {
          "duration": 0.1327432499999972,
          "durationTicks": 32,
          "midi": 59,
          "name": "B3",
          "ticks": 14592,
          "time": 60.530922000000004,
          "velocity": 0.3937007874015748
        },
        {
          "duration": 0.2654865000000015,
          "durationTicks": 64,
          "midi": 59,
          "name": "B3",
          "ticks": 14624,
          "time": 60.66366525,
          "velocity": 0.3937007874015748
        },
        {
          "duration": 0.1327432499999972,
          "durationTicks": 32,
          "midi": 59,
          "name": "B3",
          "ticks": 14688,
          "time": 60.92915175,
          "velocity": 0.3937007874015748
        },
        {
          "duration": 2.123892000000005,
          "durationTicks": 512,
          "midi": 52,
          "name": "E3",
          "ticks": 14720,
          "time": 61.061895,
          "velocity": 0.3937007874015748
        },
        {
          "duration": 2.123892000000005,
          "durationTicks": 512,
          "midi": 59,
          "name": "B3",
          "ticks": 14720,
          "time": 61.061895,
          "velocity": 0.3937007874015748
        },
        {
          "duration": 0.2654865000000015,
          "durationTicks": 64,
          "midi": 68,
          "name": "G#4",
          "ticks": 14784,
          "time": 61.3273815,
          "velocity": 0.3937007874015748
        },
        {
          "duration": 0.2654865000000015,
          "durationTicks": 64,
          "midi": 40,
          "name": "E2",
          "ticks": 14784,
          "time": 61.3273815,
          "velocity": 0.3937007874015748
        },
        {
          "duration": 0.2654865000000015,
          "durationTicks": 64,
          "midi": 40,
          "name": "E2",
          "ticks": 14848,
          "time": 61.592868,
          "velocity": 0.3937007874015748
        },
        {
          "duration": 0.2654865000000015,
          "durationTicks": 64,
          "midi": 71,
          "name": "B4",
          "ticks": 14848,
          "time": 61.592868,
          "velocity": 0.3937007874015748
        },
        {
          "duration": 0.2654865000000015,
          "durationTicks": 64,
          "midi": 68,
          "name": "G#4",
          "ticks": 14912,
          "time": 61.858354500000004,
          "velocity": 0.3937007874015748
        },
        {
          "duration": 0.2654864999999944,
          "durationTicks": 64,
          "midi": 71,
          "name": "B4",
          "ticks": 14976,
          "time": 62.123841000000006,
          "velocity": 0.3937007874015748
        },
        {
          "duration": 0.2654864999999944,
          "durationTicks": 64,
          "midi": 40,
          "name": "E2",
          "ticks": 14976,
          "time": 62.123841000000006,
          "velocity": 0.3937007874015748
        },
        {
          "duration": 0.530973000000003,
          "durationTicks": 128,
          "midi": 73,
          "name": "C#5",
          "ticks": 15040,
          "time": 62.3893275,
          "velocity": 0.3937007874015748
        },
        {
          "duration": 0.530973000000003,
          "durationTicks": 128,
          "midi": 40,
          "name": "E2",
          "ticks": 15040,
          "time": 62.3893275,
          "velocity": 0.3937007874015748
        },
        {
          "duration": 1.5929189999999949,
          "durationTicks": 384,
          "midi": 61,
          "name": "C#4",
          "ticks": 15232,
          "time": 63.185787000000005,
          "velocity": 0.3937007874015748
        },
        {
          "duration": 1.5929189999999949,
          "durationTicks": 384,
          "midi": 54,
          "name": "F#3",
          "ticks": 15232,
          "time": 63.185787000000005,
          "velocity": 0.3937007874015748
        },
        {
          "duration": 0.2654864999999944,
          "durationTicks": 64,
          "midi": 70,
          "name": "A#4",
          "ticks": 15296,
          "time": 63.451273500000006,
          "velocity": 0.3937007874015748
        },
        {
          "duration": 0.2654864999999944,
          "durationTicks": 64,
          "midi": 42,
          "name": "F#2",
          "ticks": 15296,
          "time": 63.451273500000006,
          "velocity": 0.3937007874015748
        },
        {
          "duration": 0.2654865000000015,
          "durationTicks": 64,
          "midi": 68,
          "name": "G#4",
          "ticks": 15360,
          "time": 63.71676,
          "velocity": 0.3937007874015748
        },
        {
          "duration": 0.2654865000000015,
          "durationTicks": 64,
          "midi": 42,
          "name": "F#2",
          "ticks": 15360,
          "time": 63.71676,
          "velocity": 0.3937007874015748
        },
        {
          "duration": 0.7964594999999974,
          "durationTicks": 192,
          "midi": 66,
          "name": "F#4",
          "ticks": 15424,
          "time": 63.9822465,
          "velocity": 0.3937007874015748
        },
        {
          "duration": 0.2654865000000086,
          "durationTicks": 64,
          "midi": 42,
          "name": "F#2",
          "ticks": 15488,
          "time": 64.247733,
          "velocity": 0.3937007874015748
        },
        {
          "duration": 0.530973000000003,
          "durationTicks": 128,
          "midi": 42,
          "name": "F#2",
          "ticks": 15552,
          "time": 64.5132195,
          "velocity": 0.3937007874015748
        },
        {
          "duration": 0.530973000000003,
          "durationTicks": 128,
          "midi": 61,
          "name": "C#4",
          "ticks": 15616,
          "time": 64.778706,
          "velocity": 0.3937007874015748
        },
        {
          "duration": 0.530973000000003,
          "durationTicks": 128,
          "midi": 53,
          "name": "F3",
          "ticks": 15616,
          "time": 64.778706,
          "velocity": 0.3937007874015748
        },
        {
          "duration": 2.123891999999998,
          "durationTicks": 512,
          "midi": 59,
          "name": "B3",
          "ticks": 15744,
          "time": 65.309679,
          "velocity": 0.3937007874015748
        },
        {
          "duration": 2.123891999999998,
          "durationTicks": 512,
          "midi": 52,
          "name": "E3",
          "ticks": 15744,
          "time": 65.309679,
          "velocity": 0.3937007874015748
        },
        {
          "duration": 0.2654865000000086,
          "durationTicks": 64,
          "midi": 68,
          "name": "G#4",
          "ticks": 15808,
          "time": 65.5751655,
          "velocity": 0.3937007874015748
        },
        {
          "duration": 0.2654865000000086,
          "durationTicks": 64,
          "midi": 40,
          "name": "E2",
          "ticks": 15808,
          "time": 65.5751655,
          "velocity": 0.3937007874015748
        },
        {
          "duration": 0.2654864999999944,
          "durationTicks": 64,
          "midi": 68,
          "name": "G#4",
          "ticks": 15872,
          "time": 65.840652,
          "velocity": 0.3937007874015748
        },
        {
          "duration": 0.2654864999999944,
          "durationTicks": 64,
          "midi": 40,
          "name": "E2",
          "ticks": 15872,
          "time": 65.840652,
          "velocity": 0.3937007874015748
        },
        {
          "duration": 0.2654865000000086,
          "durationTicks": 64,
          "midi": 70,
          "name": "A#4",
          "ticks": 15936,
          "time": 66.1061385,
          "velocity": 0.3937007874015748
        },
        {
          "duration": 0.2654864999999944,
          "durationTicks": 64,
          "midi": 71,
          "name": "B4",
          "ticks": 16000,
          "time": 66.37162500000001,
          "velocity": 0.3937007874015748
        },
        {
          "duration": 0.2654864999999944,
          "durationTicks": 64,
          "midi": 40,
          "name": "E2",
          "ticks": 16000,
          "time": 66.37162500000001,
          "velocity": 0.3937007874015748
        },
        {
          "duration": 0.530973000000003,
          "durationTicks": 128,
          "midi": 40,
          "name": "E2",
          "ticks": 16064,
          "time": 66.6371115,
          "velocity": 0.3937007874015748
        },
        {
          "duration": 0.2654864999999944,
          "durationTicks": 64,
          "midi": 68,
          "name": "G#4",
          "ticks": 16064,
          "time": 66.6371115,
          "velocity": 0.3937007874015748
        },
        {
          "duration": 0.530973000000003,
          "durationTicks": 128,
          "midi": 66,
          "name": "F#4",
          "ticks": 16128,
          "time": 66.902598,
          "velocity": 0.3937007874015748
        },
        {
          "duration": 2.123891999999998,
          "durationTicks": 512,
          "midi": 61,
          "name": "C#4",
          "ticks": 16256,
          "time": 67.433571,
          "velocity": 0.3937007874015748
        },
        {
          "duration": 2.123891999999998,
          "durationTicks": 512,
          "midi": 54,
          "name": "F#3",
          "ticks": 16256,
          "time": 67.433571,
          "velocity": 0.3937007874015748
        },
        {
          "duration": 0.2654864999999944,
          "durationTicks": 64,
          "midi": 42,
          "name": "F#2",
          "ticks": 16320,
          "time": 67.69905750000001,
          "velocity": 0.3937007874015748
        },
        {
          "duration": 0.2654864999999944,
          "durationTicks": 64,
          "midi": 42,
          "name": "F#2",
          "ticks": 16384,
          "time": 67.964544,
          "velocity": 0.3937007874015748
        },
        {
          "duration": 0.530973000000003,
          "durationTicks": 128,
          "midi": 73,
          "name": "C#5",
          "ticks": 16448,
          "time": 68.2300305,
          "velocity": 0.3937007874015748
        },
        {
          "duration": 0.530973000000003,
          "durationTicks": 128,
          "midi": 73,
          "name": "C#5",
          "ticks": 16448,
          "time": 68.2300305,
          "velocity": 0.3937007874015748
        },
        {
          "duration": 0.2654864999999944,
          "durationTicks": 64,
          "midi": 42,
          "name": "F#2",
          "ticks": 16512,
          "time": 68.495517,
          "velocity": 0.3937007874015748
        },
        {
          "duration": 0.530973000000003,
          "durationTicks": 128,
          "midi": 42,
          "name": "F#2",
          "ticks": 16576,
          "time": 68.7610035,
          "velocity": 0.3937007874015748
        },
        {
          "duration": 0.2654865000000086,
          "durationTicks": 64,
          "midi": 75,
          "name": "D#5",
          "ticks": 16576,
          "time": 68.7610035,
          "velocity": 0.3937007874015748
        },
        {
          "duration": 0.2654865000000086,
          "durationTicks": 64,
          "midi": 75,
          "name": "D#5",
          "ticks": 16576,
          "time": 68.7610035,
          "velocity": 0.3937007874015748
        },
        {
          "duration": 0.2654864999999944,
          "durationTicks": 64,
          "midi": 73,
          "name": "C#5",
          "ticks": 16640,
          "time": 69.02649000000001,
          "velocity": 0.3937007874015748
        },
        {
          "duration": 0.2654864999999944,
          "durationTicks": 64,
          "midi": 73,
          "name": "C#5",
          "ticks": 16640,
          "time": 69.02649000000001,
          "velocity": 0.3937007874015748
        },
        {
          "duration": 0.2654864999999944,
          "durationTicks": 64,
          "midi": 71,
          "name": "B4",
          "ticks": 16704,
          "time": 69.2919765,
          "velocity": 0.3937007874015748
        },
        {
          "duration": 0.2654864999999944,
          "durationTicks": 64,
          "midi": 71,
          "name": "B4",
          "ticks": 16704,
          "time": 69.2919765,
          "velocity": 0.3937007874015748
        },
        {
          "duration": 2.123892000000012,
          "durationTicks": 512,
          "midi": 59,
          "name": "B3",
          "ticks": 16768,
          "time": 69.557463,
          "velocity": 0.3937007874015748
        },
        {
          "duration": 2.123892000000012,
          "durationTicks": 512,
          "midi": 52,
          "name": "E3",
          "ticks": 16768,
          "time": 69.557463,
          "velocity": 0.3937007874015748
        },
        {
          "duration": 0.2654864999999944,
          "durationTicks": 64,
          "midi": 40,
          "name": "E2",
          "ticks": 16832,
          "time": 69.82294950000001,
          "velocity": 0.3937007874015748
        },
        {
          "duration": 0.2654864999999944,
          "durationTicks": 64,
          "midi": 68,
          "name": "G#4",
          "ticks": 16832,
          "time": 69.82294950000001,
          "velocity": 0.3937007874015748
        },
        {
          "duration": 0.2654864999999944,
          "durationTicks": 64,
          "midi": 68,
          "name": "G#4",
          "ticks": 16832,
          "time": 69.82294950000001,
          "velocity": 0.3937007874015748
        },
        {
          "duration": 0.2654864999999944,
          "durationTicks": 64,
          "midi": 68,
          "name": "G#4",
          "ticks": 16832,
          "time": 69.82294950000001,
          "velocity": 0.3937007874015748
        },
        {
          "duration": 0.2654865000000086,
          "durationTicks": 64,
          "midi": 40,
          "name": "E2",
          "ticks": 16896,
          "time": 70.088436,
          "velocity": 0.3937007874015748
        },
        {
          "duration": 0.2654865000000086,
          "durationTicks": 64,
          "midi": 71,
          "name": "B4",
          "ticks": 16896,
          "time": 70.088436,
          "velocity": 0.3937007874015748
        },
        {
          "duration": 0.2654865000000086,
          "durationTicks": 64,
          "midi": 71,
          "name": "B4",
          "ticks": 16896,
          "time": 70.088436,
          "velocity": 0.3937007874015748
        },
        {
          "duration": 0.2654865000000086,
          "durationTicks": 64,
          "midi": 71,
          "name": "B4",
          "ticks": 16896,
          "time": 70.088436,
          "velocity": 0.3937007874015748
        },
        {
          "duration": 0.2654864999999944,
          "durationTicks": 64,
          "midi": 68,
          "name": "G#4",
          "ticks": 16960,
          "time": 70.35392250000001,
          "velocity": 0.3937007874015748
        },
        {
          "duration": 0.2654864999999944,
          "durationTicks": 64,
          "midi": 68,
          "name": "G#4",
          "ticks": 16960,
          "time": 70.35392250000001,
          "velocity": 0.3937007874015748
        },
        {
          "duration": 0.2654864999999944,
          "durationTicks": 64,
          "midi": 68,
          "name": "G#4",
          "ticks": 16960,
          "time": 70.35392250000001,
          "velocity": 0.3937007874015748
        },
        {
          "duration": 0.2654864999999944,
          "durationTicks": 64,
          "midi": 40,
          "name": "E2",
          "ticks": 17024,
          "time": 70.619409,
          "velocity": 0.3937007874015748
        },
        {
          "duration": 0.2654864999999944,
          "durationTicks": 64,
          "midi": 71,
          "name": "B4",
          "ticks": 17024,
          "time": 70.619409,
          "velocity": 0.3937007874015748
        },
        {
          "duration": 0.2654864999999944,
          "durationTicks": 64,
          "midi": 71,
          "name": "B4",
          "ticks": 17024,
          "time": 70.619409,
          "velocity": 0.3937007874015748
        },
        {
          "duration": 0.2654864999999944,
          "durationTicks": 64,
          "midi": 71,
          "name": "B4",
          "ticks": 17024,
          "time": 70.619409,
          "velocity": 0.3937007874015748
        },
        {
          "duration": 0.2654865000000086,
          "durationTicks": 64,
          "midi": 68,
          "name": "G#4",
          "ticks": 17088,
          "time": 70.8848955,
          "velocity": 0.3937007874015748
        },
        {
          "duration": 0.530973000000003,
          "durationTicks": 128,
          "midi": 40,
          "name": "E2",
          "ticks": 17088,
          "time": 70.8848955,
          "velocity": 0.3937007874015748
        },
        {
          "duration": 0.2654865000000086,
          "durationTicks": 64,
          "midi": 68,
          "name": "G#4",
          "ticks": 17088,
          "time": 70.8848955,
          "velocity": 0.3937007874015748
        },
        {
          "duration": 0.2654865000000086,
          "durationTicks": 64,
          "midi": 68,
          "name": "G#4",
          "ticks": 17088,
          "time": 70.8848955,
          "velocity": 0.3937007874015748
        },
        {
          "duration": 0.2654864999999944,
          "durationTicks": 64,
          "midi": 71,
          "name": "B4",
          "ticks": 17152,
          "time": 71.15038200000001,
          "velocity": 0.3937007874015748
        },
        {
          "duration": 0.2654864999999944,
          "durationTicks": 64,
          "midi": 71,
          "name": "B4",
          "ticks": 17152,
          "time": 71.15038200000001,
          "velocity": 0.3937007874015748
        },
        {
          "duration": 0.2654864999999944,
          "durationTicks": 64,
          "midi": 71,
          "name": "B4",
          "ticks": 17152,
          "time": 71.15038200000001,
          "velocity": 0.3937007874015748
        },
        {
          "duration": 0.2654865000000086,
          "durationTicks": 64,
          "midi": 73,
          "name": "C#5",
          "ticks": 17216,
          "time": 71.4158685,
          "velocity": 0.3937007874015748
        },
        {
          "duration": 0.2654865000000086,
          "durationTicks": 64,
          "midi": 73,
          "name": "C#5",
          "ticks": 17216,
          "time": 71.4158685,
          "velocity": 0.3937007874015748
        },
        {
          "duration": 0.2654865000000086,
          "durationTicks": 64,
          "midi": 73,
          "name": "C#5",
          "ticks": 17216,
          "time": 71.4158685,
          "velocity": 0.3937007874015748
        },
        {
          "duration": 1.5929189999999949,
          "durationTicks": 384,
          "midi": 61,
          "name": "C#4",
          "ticks": 17280,
          "time": 71.68135500000001,
          "velocity": 0.3937007874015748
        },
        {
          "duration": 1.5929189999999949,
          "durationTicks": 384,
          "midi": 54,
          "name": "F#3",
          "ticks": 17280,
          "time": 71.68135500000001,
          "velocity": 0.3937007874015748
        },
        {
          "duration": 0.2654864999999944,
          "durationTicks": 64,
          "midi": 42,
          "name": "F#2",
          "ticks": 17344,
          "time": 71.9468415,
          "velocity": 0.3937007874015748
        },
        {
          "duration": 0.2654864999999944,
          "durationTicks": 64,
          "midi": 70,
          "name": "A#4",
          "ticks": 17344,
          "time": 71.9468415,
          "velocity": 0.3937007874015748
        },
        {
          "duration": 0.2654864999999944,
          "durationTicks": 64,
          "midi": 70,
          "name": "A#4",
          "ticks": 17344,
          "time": 71.9468415,
          "velocity": 0.3937007874015748
        },
        {
          "duration": 0.2654864999999944,
          "durationTicks": 64,
          "midi": 70,
          "name": "A#4",
          "ticks": 17344,
          "time": 71.9468415,
          "velocity": 0.3937007874015748
        },
        {
          "duration": 0.2654865000000086,
          "durationTicks": 64,
          "midi": 68,
          "name": "G#4",
          "ticks": 17408,
          "time": 72.212328,
          "velocity": 0.3937007874015748
        },
        {
          "duration": 0.2654865000000086,
          "durationTicks": 64,
          "midi": 42,
          "name": "F#2",
          "ticks": 17408,
          "time": 72.212328,
          "velocity": 0.3937007874015748
        },
        {
          "duration": 0.2654865000000086,
          "durationTicks": 64,
          "midi": 68,
          "name": "G#4",
          "ticks": 17408,
          "time": 72.212328,
          "velocity": 0.3937007874015748
        },
        {
          "duration": 0.2654865000000086,
          "durationTicks": 64,
          "midi": 68,
          "name": "G#4",
          "ticks": 17408,
          "time": 72.212328,
          "velocity": 0.3937007874015748
        },
        {
          "duration": 0.7964594999999974,
          "durationTicks": 192,
          "midi": 66,
          "name": "F#4",
          "ticks": 17472,
          "time": 72.47781450000001,
          "velocity": 0.3937007874015748
        },
        {
          "duration": 0.7964594999999974,
          "durationTicks": 192,
          "midi": 66,
          "name": "F#4",
          "ticks": 17472,
          "time": 72.47781450000001,
          "velocity": 0.3937007874015748
        },
        {
          "duration": 0.7964594999999974,
          "durationTicks": 192,
          "midi": 66,
          "name": "F#4",
          "ticks": 17472,
          "time": 72.47781450000001,
          "velocity": 0.3937007874015748
        },
        {
          "duration": 0.2654864999999944,
          "durationTicks": 64,
          "midi": 42,
          "name": "F#2",
          "ticks": 17536,
          "time": 72.743301,
          "velocity": 0.3937007874015748
        },
        {
          "duration": 0.530973000000003,
          "durationTicks": 128,
          "midi": 42,
          "name": "F#2",
          "ticks": 17600,
          "time": 73.0087875,
          "velocity": 0.3937007874015748
        },
        {
          "duration": 0.530973000000003,
          "durationTicks": 128,
          "midi": 53,
          "name": "F3",
          "ticks": 17664,
          "time": 73.274274,
          "velocity": 0.3937007874015748
        },
        {
          "duration": 0.530973000000003,
          "durationTicks": 128,
          "midi": 61,
          "name": "C#4",
          "ticks": 17664,
          "time": 73.274274,
          "velocity": 0.3937007874015748
        },
        {
          "duration": 1.0619459999999918,
          "durationTicks": 256,
          "midi": 59,
          "name": "B3",
          "ticks": 17792,
          "time": 73.80524700000001,
          "velocity": 0.3937007874015748
        },
        {
          "duration": 1.0619459999999918,
          "durationTicks": 256,
          "midi": 52,
          "name": "E3",
          "ticks": 17792,
          "time": 73.80524700000001,
          "velocity": 0.3937007874015748
        },
        {
          "duration": 0.2654864999999944,
          "durationTicks": 64,
          "midi": 40,
          "name": "E2",
          "ticks": 17856,
          "time": 74.0707335,
          "velocity": 0.3937007874015748
        },
        {
          "duration": 0.2654864999999944,
          "durationTicks": 64,
          "midi": 68,
          "name": "G#4",
          "ticks": 17856,
          "time": 74.0707335,
          "velocity": 0.3937007874015748
        },
        {
          "duration": 0.2654864999999944,
          "durationTicks": 64,
          "midi": 68,
          "name": "G#4",
          "ticks": 17856,
          "time": 74.0707335,
          "velocity": 0.3937007874015748
        },
        {
          "duration": 0.2654864999999944,
          "durationTicks": 64,
          "midi": 68,
          "name": "G#4",
          "ticks": 17856,
          "time": 74.0707335,
          "velocity": 0.3937007874015748
        },
        {
          "duration": 0.2654865000000086,
          "durationTicks": 64,
          "midi": 40,
          "name": "E2",
          "ticks": 17920,
          "time": 74.33622,
          "velocity": 0.3937007874015748
        },
        {
          "duration": 0.2654865000000086,
          "durationTicks": 64,
          "midi": 68,
          "name": "G#4",
          "ticks": 17920,
          "time": 74.33622,
          "velocity": 0.3937007874015748
        },
        {
          "duration": 0.2654865000000086,
          "durationTicks": 64,
          "midi": 68,
          "name": "G#4",
          "ticks": 17920,
          "time": 74.33622,
          "velocity": 0.3937007874015748
        },
        {
          "duration": 0.2654865000000086,
          "durationTicks": 64,
          "midi": 68,
          "name": "G#4",
          "ticks": 17920,
          "time": 74.33622,
          "velocity": 0.3937007874015748
        },
        {
          "duration": 0.2654864999999944,
          "durationTicks": 64,
          "midi": 70,
          "name": "A#4",
          "ticks": 17984,
          "time": 74.6017065,
          "velocity": 0.3937007874015748
        },
        {
          "duration": 0.2654864999999944,
          "durationTicks": 64,
          "midi": 70,
          "name": "A#4",
          "ticks": 17984,
          "time": 74.6017065,
          "velocity": 0.3937007874015748
        },
        {
          "duration": 0.2654864999999944,
          "durationTicks": 64,
          "midi": 70,
          "name": "A#4",
          "ticks": 17984,
          "time": 74.6017065,
          "velocity": 0.3937007874015748
        },
        {
          "duration": 1.061946000000006,
          "durationTicks": 256,
          "midi": 52,
          "name": "E3",
          "ticks": 18048,
          "time": 74.867193,
          "velocity": 0.3937007874015748
        },
        {
          "duration": 1.061946000000006,
          "durationTicks": 256,
          "midi": 61,
          "name": "C#4",
          "ticks": 18048,
          "time": 74.867193,
          "velocity": 0.3937007874015748
        },
        {
          "duration": 0.2654865000000086,
          "durationTicks": 64,
          "midi": 71,
          "name": "B4",
          "ticks": 18048,
          "time": 74.867193,
          "velocity": 0.3937007874015748
        },
        {
          "duration": 0.2654865000000086,
          "durationTicks": 64,
          "midi": 71,
          "name": "B4",
          "ticks": 18048,
          "time": 74.867193,
          "velocity": 0.3937007874015748
        },
        {
          "duration": 0.2654865000000086,
          "durationTicks": 64,
          "midi": 37,
          "name": "C#2",
          "ticks": 18048,
          "time": 74.867193,
          "velocity": 0.3937007874015748
        },
        {
          "duration": 0.2654865000000086,
          "durationTicks": 64,
          "midi": 71,
          "name": "B4",
          "ticks": 18048,
          "time": 74.867193,
          "velocity": 0.3937007874015748
        },
        {
          "duration": 0.2654864999999944,
          "durationTicks": 64,
          "midi": 68,
          "name": "G#4",
          "ticks": 18112,
          "time": 75.13267950000001,
          "velocity": 0.3937007874015748
        },
        {
          "duration": 0.5309729999999888,
          "durationTicks": 128,
          "midi": 37,
          "name": "C#2",
          "ticks": 18112,
          "time": 75.13267950000001,
          "velocity": 0.3937007874015748
        },
        {
          "duration": 0.2654864999999944,
          "durationTicks": 64,
          "midi": 68,
          "name": "G#4",
          "ticks": 18112,
          "time": 75.13267950000001,
          "velocity": 0.3937007874015748
        },
        {
          "duration": 0.2654864999999944,
          "durationTicks": 64,
          "midi": 68,
          "name": "G#4",
          "ticks": 18112,
          "time": 75.13267950000001,
          "velocity": 0.3937007874015748
        },
        {
          "duration": 0.530973000000003,
          "durationTicks": 128,
          "midi": 66,
          "name": "F#4",
          "ticks": 18176,
          "time": 75.398166,
          "velocity": 0.3937007874015748
        },
        {
          "duration": 0.530973000000003,
          "durationTicks": 128,
          "midi": 66,
          "name": "F#4",
          "ticks": 18176,
          "time": 75.398166,
          "velocity": 0.3937007874015748
        },
        {
          "duration": 0.530973000000003,
          "durationTicks": 128,
          "midi": 66,
          "name": "F#4",
          "ticks": 18176,
          "time": 75.398166,
          "velocity": 0.3937007874015748
        },
        {
          "duration": 1.5929189999999949,
          "durationTicks": 384,
          "midi": 61,
          "name": "C#4",
          "ticks": 18304,
          "time": 75.929139,
          "velocity": 0.3937007874015748
        },
        {
          "duration": 1.5929189999999949,
          "durationTicks": 384,
          "midi": 54,
          "name": "F#3",
          "ticks": 18304,
          "time": 75.929139,
          "velocity": 0.3937007874015748
        },
        {
          "duration": 0.2654865000000086,
          "durationTicks": 64,
          "midi": 73,
          "name": "C#5",
          "ticks": 18368,
          "time": 76.1946255,
          "velocity": 0.3937007874015748
        },
        {
          "duration": 0.2654865000000086,
          "durationTicks": 64,
          "midi": 73,
          "name": "C#5",
          "ticks": 18368,
          "time": 76.1946255,
          "velocity": 0.3937007874015748
        },
        {
          "duration": 0.2654865000000086,
          "durationTicks": 64,
          "midi": 42,
          "name": "F#2",
          "ticks": 18368,
          "time": 76.1946255,
          "velocity": 0.3937007874015748
        },
        {
          "duration": 0.2654865000000086,
          "durationTicks": 64,
          "midi": 73,
          "name": "C#5",
          "ticks": 18368,
          "time": 76.1946255,
          "velocity": 0.3937007874015748
        },
        {
          "duration": 0.2654865000000086,
          "durationTicks": 64,
          "midi": 73,
          "name": "C#5",
          "ticks": 18368,
          "time": 76.1946255,
          "velocity": 0.3937007874015748
        },
        {
          "duration": 0.2654864999999944,
          "durationTicks": 64,
          "midi": 73,
          "name": "C#5",
          "ticks": 18432,
          "time": 76.46011200000001,
          "velocity": 0.3937007874015748
        },
        {
          "duration": 0.2654864999999944,
          "durationTicks": 64,
          "midi": 73,
          "name": "C#5",
          "ticks": 18432,
          "time": 76.46011200000001,
          "velocity": 0.3937007874015748
        },
        {
          "duration": 0.2654864999999944,
          "durationTicks": 64,
          "midi": 73,
          "name": "C#5",
          "ticks": 18432,
          "time": 76.46011200000001,
          "velocity": 0.3937007874015748
        },
        {
          "duration": 0.2654864999999944,
          "durationTicks": 64,
          "midi": 73,
          "name": "C#5",
          "ticks": 18432,
          "time": 76.46011200000001,
          "velocity": 0.3937007874015748
        },
        {
          "duration": 0.2654864999999944,
          "durationTicks": 64,
          "midi": 42,
          "name": "F#2",
          "ticks": 18432,
          "time": 76.46011200000001,
          "velocity": 0.3937007874015748
        },
        {
          "duration": 0.530973000000003,
          "durationTicks": 128,
          "midi": 75,
          "name": "D#5",
          "ticks": 18496,
          "time": 76.7255985,
          "velocity": 0.3937007874015748
        },
        {
          "duration": 0.530973000000003,
          "durationTicks": 128,
          "midi": 75,
          "name": "D#5",
          "ticks": 18496,
          "time": 76.7255985,
          "velocity": 0.3937007874015748
        },
        {
          "duration": 0.530973000000003,
          "durationTicks": 128,
          "midi": 75,
          "name": "D#5",
          "ticks": 18496,
          "time": 76.7255985,
          "velocity": 0.3937007874015748
        },
        {
          "duration": 0.530973000000003,
          "durationTicks": 128,
          "midi": 75,
          "name": "D#5",
          "ticks": 18496,
          "time": 76.7255985,
          "velocity": 0.3937007874015748
        },
        {
          "duration": 0.2654865000000086,
          "durationTicks": 64,
          "midi": 42,
          "name": "F#2",
          "ticks": 18560,
          "time": 76.991085,
          "velocity": 0.3937007874015748
        },
        {
          "duration": 0.530973000000003,
          "durationTicks": 128,
          "midi": 42,
          "name": "F#2",
          "ticks": 18624,
          "time": 77.2565715,
          "velocity": 0.3937007874015748
        },
        {
          "duration": 0.7964594999999974,
          "durationTicks": 192,
          "midi": 73,
          "name": "C#5",
          "ticks": 18624,
          "time": 77.2565715,
          "velocity": 0.3937007874015748
        },
        {
          "duration": 0.7964594999999974,
          "durationTicks": 192,
          "midi": 73,
          "name": "C#5",
          "ticks": 18624,
          "time": 77.2565715,
          "velocity": 0.3937007874015748
        },
        {
          "duration": 0.7964594999999974,
          "durationTicks": 192,
          "midi": 73,
          "name": "C#5",
          "ticks": 18624,
          "time": 77.2565715,
          "velocity": 0.3937007874015748
        },
        {
          "duration": 0.7964594999999974,
          "durationTicks": 192,
          "midi": 73,
          "name": "C#5",
          "ticks": 18624,
          "time": 77.2565715,
          "velocity": 0.3937007874015748
        },
        {
          "duration": 0.530973000000003,
          "durationTicks": 128,
          "midi": 61,
          "name": "C#4",
          "ticks": 18688,
          "time": 77.522058,
          "velocity": 0.3937007874015748
        },
        {
          "duration": 0.530973000000003,
          "durationTicks": 128,
          "midi": 53,
          "name": "F3",
          "ticks": 18688,
          "time": 77.522058,
          "velocity": 0.3937007874015748
        },
        {
          "duration": 1.3274325000000005,
          "durationTicks": 320,
          "midi": 71,
          "name": "B4",
          "ticks": 18816,
          "time": 78.053031,
          "velocity": 0.3937007874015748
        },
        {
          "duration": 1.3274325000000005,
          "durationTicks": 320,
          "midi": 71,
          "name": "B4",
          "ticks": 18816,
          "time": 78.053031,
          "velocity": 0.3937007874015748
        },
        {
          "duration": 2.123891999999998,
          "durationTicks": 512,
          "midi": 68,
          "name": "G#4",
          "ticks": 18816,
          "time": 78.053031,
          "velocity": 0.3937007874015748
        },
        {
          "duration": 0.2654864999999944,
          "durationTicks": 64,
          "midi": 52,
          "name": "E3",
          "ticks": 18816,
          "time": 78.053031,
          "velocity": 0.3937007874015748
        },
        {
          "duration": 0.2654864999999944,
          "durationTicks": 64,
          "midi": 52,
          "name": "E3",
          "ticks": 18816,
          "time": 78.053031,
          "velocity": 0.3937007874015748
        },
        {
          "duration": 0.2654865000000086,
          "durationTicks": 64,
          "midi": 59,
          "name": "B3",
          "ticks": 18880,
          "time": 78.3185175,
          "velocity": 0.3937007874015748
        },
        {
          "duration": 0.2654864999999944,
          "durationTicks": 64,
          "midi": 52,
          "name": "E3",
          "ticks": 18944,
          "time": 78.58400400000001,
          "velocity": 0.3937007874015748
        },
        {
          "duration": 0.2654865000000086,
          "durationTicks": 64,
          "midi": 59,
          "name": "B3",
          "ticks": 19008,
          "time": 78.8494905,
          "velocity": 0.3937007874015748
        },
        {
          "duration": 0.2654864999999944,
          "durationTicks": 64,
          "midi": 52,
          "name": "E3",
          "ticks": 19072,
          "time": 79.11497700000001,
          "velocity": 0.3937007874015748
        },
        {
          "duration": 0.2654864999999944,
          "durationTicks": 64,
          "midi": 73,
          "name": "C#5",
          "ticks": 19136,
          "time": 79.3804635,
          "velocity": 0.3937007874015748
        },
        {
          "duration": 0.2654864999999944,
          "durationTicks": 64,
          "midi": 59,
          "name": "B3",
          "ticks": 19136,
          "time": 79.3804635,
          "velocity": 0.3937007874015748
        },
        {
          "duration": 0.2654865000000086,
          "durationTicks": 64,
          "midi": 75,
          "name": "D#5",
          "ticks": 19200,
          "time": 79.64595,
          "velocity": 0.3937007874015748
        },
        {
          "duration": 0.2654865000000086,
          "durationTicks": 64,
          "midi": 52,
          "name": "E3",
          "ticks": 19200,
          "time": 79.64595,
          "velocity": 0.3937007874015748
        },
        {
          "duration": 0.530973000000003,
          "durationTicks": 128,
          "midi": 73,
          "name": "C#5",
          "ticks": 19264,
          "time": 79.91143650000001,
          "velocity": 0.3937007874015748
        },
        {
          "duration": 0.2654864999999944,
          "durationTicks": 64,
          "midi": 59,
          "name": "B3",
          "ticks": 19264,
          "time": 79.91143650000001,
          "velocity": 0.3937007874015748
        },
        {
          "duration": 0.2654865000000086,
          "durationTicks": 64,
          "midi": 73,
          "name": "C#5",
          "ticks": 19328,
          "time": 80.176923,
          "velocity": 0.3937007874015748
        },
        {
          "duration": 2.123891999999998,
          "durationTicks": 512,
          "midi": 70,
          "name": "A#4",
          "ticks": 19328,
          "time": 80.176923,
          "velocity": 0.3937007874015748
        },
        {
          "duration": 0.2654865000000086,
          "durationTicks": 64,
          "midi": 54,
          "name": "F#3",
          "ticks": 19328,
          "time": 80.176923,
          "velocity": 0.3937007874015748
        },
        {
          "duration": 0.2654865000000086,
          "durationTicks": 64,
          "midi": 54,
          "name": "F#3",
          "ticks": 19328,
          "time": 80.176923,
          "velocity": 0.3937007874015748
        },
        {
          "duration": 0.2654864999999944,
          "durationTicks": 64,
          "midi": 73,
          "name": "C#5",
          "ticks": 19392,
          "time": 80.44240950000001,
          "velocity": 0.3937007874015748
        },
        {
          "duration": 0.2654864999999944,
          "durationTicks": 64,
          "midi": 61,
          "name": "C#4",
          "ticks": 19392,
          "time": 80.44240950000001,
          "velocity": 0.3937007874015748
        },
        {
          "duration": 0.2654864999999944,
          "durationTicks": 64,
          "midi": 73,
          "name": "C#5",
          "ticks": 19456,
          "time": 80.707896,
          "velocity": 0.3937007874015748
        },
        {
          "duration": 0.2654864999999944,
          "durationTicks": 64,
          "midi": 54,
          "name": "F#3",
          "ticks": 19456,
          "time": 80.707896,
          "velocity": 0.3937007874015748
        },
        {
          "duration": 0.2654865000000086,
          "durationTicks": 64,
          "midi": 61,
          "name": "C#4",
          "ticks": 19520,
          "time": 80.9733825,
          "velocity": 0.3937007874015748
        },
        {
          "duration": 0.2654865000000086,
          "durationTicks": 64,
          "midi": 75,
          "name": "D#5",
          "ticks": 19520,
          "time": 80.9733825,
          "velocity": 0.3937007874015748
        },
        {
          "duration": 0.2654864999999944,
          "durationTicks": 64,
          "midi": 73,
          "name": "C#5",
          "ticks": 19584,
          "time": 81.23886900000001,
          "velocity": 0.3937007874015748
        },
        {
          "duration": 0.2654864999999944,
          "durationTicks": 64,
          "midi": 54,
          "name": "F#3",
          "ticks": 19584,
          "time": 81.23886900000001,
          "velocity": 0.3937007874015748
        },
        {
          "duration": 0.2654865000000086,
          "durationTicks": 64,
          "midi": 61,
          "name": "C#4",
          "ticks": 19648,
          "time": 81.5043555,
          "velocity": 0.3937007874015748
        },
        {
          "duration": 0.2654865000000086,
          "durationTicks": 64,
          "midi": 66,
          "name": "F#4",
          "ticks": 19648,
          "time": 81.5043555,
          "velocity": 0.3937007874015748
        },
        {
          "duration": 0.5309729999999888,
          "durationTicks": 128,
          "midi": 66,
          "name": "F#4",
          "ticks": 19712,
          "time": 81.76984200000001,
          "velocity": 0.3937007874015748
        },
        {
          "duration": 0.2654864999999944,
          "durationTicks": 64,
          "midi": 54,
          "name": "F#3",
          "ticks": 19712,
          "time": 81.76984200000001,
          "velocity": 0.3937007874015748
        },
        {
          "duration": 0.2654864999999944,
          "durationTicks": 64,
          "midi": 61,
          "name": "C#4",
          "ticks": 19776,
          "time": 82.0353285,
          "velocity": 0.3937007874015748
        },
        {
          "duration": 1.061946000000006,
          "durationTicks": 256,
          "midi": 71,
          "name": "B4",
          "ticks": 19840,
          "time": 82.300815,
          "velocity": 0.3937007874015748
        },
        {
          "duration": 1.061946000000006,
          "durationTicks": 256,
          "midi": 68,
          "name": "G#4",
          "ticks": 19840,
          "time": 82.300815,
          "velocity": 0.3937007874015748
        },
        {
          "duration": 0.2654865000000086,
          "durationTicks": 64,
          "midi": 52,
          "name": "E3",
          "ticks": 19840,
          "time": 82.300815,
          "velocity": 0.3937007874015748
        },
        {
          "duration": 0.2654865000000086,
          "durationTicks": 64,
          "midi": 52,
          "name": "E3",
          "ticks": 19840,
          "time": 82.300815,
          "velocity": 0.3937007874015748
        },
        {
          "duration": 0.2654864999999944,
          "durationTicks": 64,
          "midi": 59,
          "name": "B3",
          "ticks": 19904,
          "time": 82.56630150000001,
          "velocity": 0.3937007874015748
        },
        {
          "duration": 0.2654864999999944,
          "durationTicks": 64,
          "midi": 52,
          "name": "E3",
          "ticks": 19968,
          "time": 82.831788,
          "velocity": 0.3937007874015748
        },
        {
          "duration": 0.2654865000000086,
          "durationTicks": 64,
          "midi": 66,
          "name": "F#4",
          "ticks": 20032,
          "time": 83.0972745,
          "velocity": 0.3937007874015748
        },
        {
          "duration": 0.2654865000000086,
          "durationTicks": 64,
          "midi": 59,
          "name": "B3",
          "ticks": 20032,
          "time": 83.0972745,
          "velocity": 0.3937007874015748
        },
        {
          "duration": 1.0619459999999918,
          "durationTicks": 256,
          "midi": 73,
          "name": "C#5",
          "ticks": 20096,
          "time": 83.362761,
          "velocity": 0.3937007874015748
        },
        {
          "duration": 0.2654864999999944,
          "durationTicks": 64,
          "midi": 68,
          "name": "G#4",
          "ticks": 20096,
          "time": 83.362761,
          "velocity": 0.3937007874015748
        },
        {
          "duration": 0.2654864999999944,
          "durationTicks": 64,
          "midi": 68,
          "name": "G#4",
          "ticks": 20096,
          "time": 83.362761,
          "velocity": 0.3937007874015748
        },
        {
          "duration": 1.0619459999999918,
          "durationTicks": 256,
          "midi": 52,
          "name": "E3",
          "ticks": 20096,
          "time": 83.362761,
          "velocity": 0.3937007874015748
        },
        {
          "duration": 0.2654864999999944,
          "durationTicks": 64,
          "midi": 49,
          "name": "C#3",
          "ticks": 20096,
          "time": 83.362761,
          "velocity": 0.3937007874015748
        },
        {
          "duration": 0.2654865000000086,
          "durationTicks": 64,
          "midi": 56,
          "name": "G#3",
          "ticks": 20160,
          "time": 83.6282475,
          "velocity": 0.3937007874015748
        },
        {
          "duration": 0.2654865000000086,
          "durationTicks": 64,
          "midi": 70,
          "name": "A#4",
          "ticks": 20160,
          "time": 83.6282475,
          "velocity": 0.3937007874015748
        },
        {
          "duration": 0.2654864999999944,
          "durationTicks": 64,
          "midi": 71,
          "name": "B4",
          "ticks": 20224,
          "time": 83.89373400000001,
          "velocity": 0.3937007874015748
        },
        {
          "duration": 0.2654864999999944,
          "durationTicks": 64,
          "midi": 49,
          "name": "C#3",
          "ticks": 20224,
          "time": 83.89373400000001,
          "velocity": 0.3937007874015748
        },
        {
          "duration": 0.2654864999999944,
          "durationTicks": 64,
          "midi": 68,
          "name": "G#4",
          "ticks": 20288,
          "time": 84.1592205,
          "velocity": 0.3937007874015748
        },
        {
          "duration": 0.2654864999999944,
          "durationTicks": 64,
          "midi": 56,
          "name": "G#3",
          "ticks": 20288,
          "time": 84.1592205,
          "velocity": 0.3937007874015748
        },
        {
          "duration": 0.1327432500000043,
          "durationTicks": 32,
          "midi": 42,
          "name": "F#2",
          "ticks": 20352,
          "time": 84.424707,
          "velocity": 0.3937007874015748
        },
        {
          "duration": 0.1327432500000043,
          "durationTicks": 32,
          "midi": 54,
          "name": "F#3",
          "ticks": 20352,
          "time": 84.424707,
          "velocity": 0.3937007874015748
        },
        {
          "duration": 0.1327432500000043,
          "durationTicks": 32,
          "midi": 54,
          "name": "F#3",
          "ticks": 20352,
          "time": 84.424707,
          "velocity": 0.3937007874015748
        },
        {
          "duration": 0.1327432500000043,
          "durationTicks": 32,
          "midi": 54,
          "name": "F#3",
          "ticks": 20352,
          "time": 84.424707,
          "velocity": 0.3937007874015748
        },
        {
          "duration": 0.1327432500000043,
          "durationTicks": 32,
          "midi": 54,
          "name": "F#3",
          "ticks": 20352,
          "time": 84.424707,
          "velocity": 0.3937007874015748
        },
        {
          "duration": 0.1327432500000043,
          "durationTicks": 32,
          "midi": 73,
          "name": "C#5",
          "ticks": 20352,
          "time": 84.424707,
          "velocity": 0.3937007874015748
        },
        {
          "duration": 0.1327432500000043,
          "durationTicks": 32,
          "midi": 70,
          "name": "A#4",
          "ticks": 20352,
          "time": 84.424707,
          "velocity": 0.3937007874015748
        },
        {
          "duration": 0.2654864999999944,
          "durationTicks": 64,
          "midi": 73,
          "name": "C#5",
          "ticks": 20416,
          "time": 84.6901935,
          "velocity": 0.3937007874015748
        },
        {
          "duration": 0.2654865000000086,
          "durationTicks": 64,
          "midi": 75,
          "name": "D#5",
          "ticks": 20480,
          "time": 84.95568,
          "velocity": 0.3937007874015748
        },
        {
          "duration": 0.7964594999999974,
          "durationTicks": 192,
          "midi": 73,
          "name": "C#5",
          "ticks": 20544,
          "time": 85.22116650000001,
          "velocity": 0.3937007874015748
        },
        {
          "duration": 0.1327432500000043,
          "durationTicks": 32,
          "midi": 66,
          "name": "F#4",
          "ticks": 20736,
          "time": 86.017626,
          "velocity": 0.3937007874015748
        },
        {
          "duration": 0.1327432499999901,
          "durationTicks": 32,
          "midi": 68,
          "name": "G#4",
          "ticks": 20768,
          "time": 86.15036925000001,
          "velocity": 0.3937007874015748
        },
        {
          "duration": 0.1327432500000043,
          "durationTicks": 32,
          "midi": 71,
          "name": "B4",
          "ticks": 20800,
          "time": 86.2831125,
          "velocity": 0.3937007874015748
        },
        {
          "duration": 0.1327432500000043,
          "durationTicks": 32,
          "midi": 68,
          "name": "G#4",
          "ticks": 20832,
          "time": 86.41585575,
          "velocity": 0.3937007874015748
        },
        {
          "duration": 0.7964594999999974,
          "durationTicks": 192,
          "midi": 47,
          "name": "B2",
          "ticks": 20864,
          "time": 86.54859900000001,
          "velocity": 0.3937007874015748
        },
        {
          "duration": 0.7964594999999974,
          "durationTicks": 192,
          "midi": 40,
          "name": "E2",
          "ticks": 20864,
          "time": 86.54859900000001,
          "velocity": 0.3937007874015748
        },
        {
          "duration": 0.7964594999999974,
          "durationTicks": 192,
          "midi": 56,
          "name": "G#3",
          "ticks": 20864,
          "time": 86.54859900000001,
          "velocity": 0.3937007874015748
        },
        {
          "duration": 0.7964594999999974,
          "durationTicks": 192,
          "midi": 59,
          "name": "B3",
          "ticks": 20864,
          "time": 86.54859900000001,
          "velocity": 0.3937007874015748
        },
        {
          "duration": 0.3982297499999987,
          "durationTicks": 96,
          "midi": 75,
          "name": "D#5",
          "ticks": 20864,
          "time": 86.54859900000001,
          "velocity": 0.3937007874015748
        },
        {
          "duration": 0.3982297499999987,
          "durationTicks": 96,
          "midi": 75,
          "name": "D#5",
          "ticks": 20960,
          "time": 86.94682875000001,
          "velocity": 0.3937007874015748
        },
        {
          "duration": 1.3274325000000005,
          "durationTicks": 320,
          "midi": 42,
          "name": "F#2",
          "ticks": 21056,
          "time": 87.34505850000001,
          "velocity": 0.3937007874015748
        },
        {
          "duration": 1.3274325000000005,
          "durationTicks": 320,
          "midi": 49,
          "name": "C#3",
          "ticks": 21056,
          "time": 87.34505850000001,
          "velocity": 0.3937007874015748
        },
        {
          "duration": 0.7964594999999974,
          "durationTicks": 192,
          "midi": 61,
          "name": "C#4",
          "ticks": 21056,
          "time": 87.34505850000001,
          "velocity": 0.3937007874015748
        },
        {
          "duration": 1.3274325000000005,
          "durationTicks": 320,
          "midi": 58,
          "name": "A#3",
          "ticks": 21056,
          "time": 87.34505850000001,
          "velocity": 0.3937007874015748
        },
        {
          "duration": 0.7964594999999974,
          "durationTicks": 192,
          "midi": 73,
          "name": "C#5",
          "ticks": 21056,
          "time": 87.34505850000001,
          "velocity": 0.3937007874015748
        },
        {
          "duration": 0.1327432500000043,
          "durationTicks": 32,
          "midi": 66,
          "name": "F#4",
          "ticks": 21248,
          "time": 88.141518,
          "velocity": 0.3937007874015748
        },
        {
          "duration": 0.530973000000003,
          "durationTicks": 128,
          "midi": 54,
          "name": "F#3",
          "ticks": 21248,
          "time": 88.141518,
          "velocity": 0.3937007874015748
        },
        {
          "duration": 0.1327432499999901,
          "durationTicks": 32,
          "midi": 68,
          "name": "G#4",
          "ticks": 21280,
          "time": 88.27426125000001,
          "velocity": 0.3937007874015748
        },
        {
          "duration": 0.1327432500000043,
          "durationTicks": 32,
          "midi": 71,
          "name": "B4",
          "ticks": 21312,
          "time": 88.4070045,
          "velocity": 0.3937007874015748
        },
        {
          "duration": 0.1327432500000043,
          "durationTicks": 32,
          "midi": 68,
          "name": "G#4",
          "ticks": 21344,
          "time": 88.53974775,
          "velocity": 0.3937007874015748
        },
        {
          "duration": 0.7964594999999974,
          "durationTicks": 192,
          "midi": 42,
          "name": "F#2",
          "ticks": 21376,
          "time": 88.67249100000001,
          "velocity": 0.3937007874015748
        },
        {
          "duration": 0.7964594999999974,
          "durationTicks": 192,
          "midi": 51,
          "name": "D#3",
          "ticks": 21376,
          "time": 88.67249100000001,
          "velocity": 0.3937007874015748
        },
        {
          "duration": 0.7964594999999974,
          "durationTicks": 192,
          "midi": 61,
          "name": "C#4",
          "ticks": 21376,
          "time": 88.67249100000001,
          "velocity": 0.3937007874015748
        },
        {
          "duration": 0.7964594999999974,
          "durationTicks": 192,
          "midi": 58,
          "name": "A#3",
          "ticks": 21376,
          "time": 88.67249100000001,
          "velocity": 0.3937007874015748
        },
        {
          "duration": 0.3982297499999987,
          "durationTicks": 96,
          "midi": 73,
          "name": "C#5",
          "ticks": 21376,
          "time": 88.67249100000001,
          "velocity": 0.3937007874015748
        },
        {
          "duration": 0.3982297499999987,
          "durationTicks": 96,
          "midi": 73,
          "name": "C#5",
          "ticks": 21472,
          "time": 89.07072075,
          "velocity": 0.3937007874015748
        },
        {
          "duration": 0.3982297499999987,
          "durationTicks": 96,
          "midi": 71,
          "name": "B4",
          "ticks": 21568,
          "time": 89.4689505,
          "velocity": 0.3937007874015748
        },
        {
          "duration": 0.7964594999999974,
          "durationTicks": 192,
          "midi": 63,
          "name": "D#4",
          "ticks": 21568,
          "time": 89.4689505,
          "velocity": 0.3937007874015748
        },
        {
          "duration": 1.3274325000000005,
          "durationTicks": 320,
          "midi": 59,
          "name": "B3",
          "ticks": 21568,
          "time": 89.4689505,
          "velocity": 0.3937007874015748
        },
        {
          "duration": 1.3274325000000005,
          "durationTicks": 320,
          "midi": 51,
          "name": "D#3",
          "ticks": 21568,
          "time": 89.4689505,
          "velocity": 0.3937007874015748
        },
        {
          "duration": 1.3274325000000005,
          "durationTicks": 320,
          "midi": 44,
          "name": "G#2",
          "ticks": 21568,
          "time": 89.4689505,
          "velocity": 0.3937007874015748
        },
        {
          "duration": 0.1327432500000043,
          "durationTicks": 32,
          "midi": 70,
          "name": "A#4",
          "ticks": 21664,
          "time": 89.86718025,
          "velocity": 0.3937007874015748
        },
        {
          "duration": 0.2654864999999944,
          "durationTicks": 64,
          "midi": 68,
          "name": "G#4",
          "ticks": 21696,
          "time": 89.99992350000001,
          "velocity": 0.3937007874015748
        },
        {
          "duration": 0.1327432500000043,
          "durationTicks": 32,
          "midi": 66,
          "name": "F#4",
          "ticks": 21760,
          "time": 90.26541,
          "velocity": 0.3937007874015748
        },
        {
          "duration": 0.1327432500000043,
          "durationTicks": 32,
          "midi": 66,
          "name": "F#4",
          "ticks": 21760,
          "time": 90.26541,
          "velocity": 0.3937007874015748
        },
        {
          "duration": 0.1327432500000043,
          "durationTicks": 32,
          "midi": 68,
          "name": "G#4",
          "ticks": 21792,
          "time": 90.39815325000001,
          "velocity": 0.3937007874015748
        },
        {
          "duration": 0.1327432500000043,
          "durationTicks": 32,
          "midi": 64,
          "name": "E4",
          "ticks": 21792,
          "time": 90.39815325000001,
          "velocity": 0.3937007874015748
        },
        {
          "duration": 0.2654864999999944,
          "durationTicks": 64,
          "midi": 63,
          "name": "D#4",
          "ticks": 21824,
          "time": 90.53089650000001,
          "velocity": 0.3937007874015748
        },
        {
          "duration": 0.1327432499999901,
          "durationTicks": 32,
          "midi": 71,
          "name": "B4",
          "ticks": 21824,
          "time": 90.53089650000001,
          "velocity": 0.3937007874015748
        },
        {
          "duration": 0.1327432500000043,
          "durationTicks": 32,
          "midi": 68,
          "name": "G#4",
          "ticks": 21856,
          "time": 90.66363975,
          "velocity": 0.3937007874015748
        },
        {
          "duration": 0.7964594999999974,
          "durationTicks": 192,
          "midi": 44,
          "name": "G#2",
          "ticks": 21888,
          "time": 90.796383,
          "velocity": 0.3937007874015748
        },
        {
          "duration": 0.7964594999999974,
          "durationTicks": 192,
          "midi": 52,
          "name": "E3",
          "ticks": 21888,
          "time": 90.796383,
          "velocity": 0.3937007874015748
        },
        {
          "duration": 0.7964594999999974,
          "durationTicks": 192,
          "midi": 59,
          "name": "B3",
          "ticks": 21888,
          "time": 90.796383,
          "velocity": 0.3937007874015748
        },
        {
          "duration": 0.7964594999999974,
          "durationTicks": 192,
          "midi": 61,
          "name": "C#4",
          "ticks": 21888,
          "time": 90.796383,
          "velocity": 0.3937007874015748
        },
        {
          "duration": 0.530973000000003,
          "durationTicks": 128,
          "midi": 71,
          "name": "B4",
          "ticks": 21888,
          "time": 90.796383,
          "velocity": 0.3937007874015748
        },
        {
          "duration": 0.2654864999999944,
          "durationTicks": 64,
          "midi": 73,
          "name": "C#5",
          "ticks": 22016,
          "time": 91.32735600000001,
          "velocity": 0.3937007874015748
        },
        {
          "duration": 0.3982297499999987,
          "durationTicks": 96,
          "midi": 70,
          "name": "A#4",
          "ticks": 22080,
          "time": 91.5928425,
          "velocity": 0.3937007874015748
        },
        {
          "duration": 0.7964594999999974,
          "durationTicks": 192,
          "midi": 61,
          "name": "C#4",
          "ticks": 22080,
          "time": 91.5928425,
          "velocity": 0.3937007874015748
        },
        {
          "duration": 1.3274325000000005,
          "durationTicks": 320,
          "midi": 46,
          "name": "A#2",
          "ticks": 22080,
          "time": 91.5928425,
          "velocity": 0.3937007874015748
        },
        {
          "duration": 0.7964594999999974,
          "durationTicks": 192,
          "midi": 61,
          "name": "C#4",
          "ticks": 22080,
          "time": 91.5928425,
          "velocity": 0.3937007874015748
        },
        {
          "duration": 1.3274325000000005,
          "durationTicks": 320,
          "midi": 54,
          "name": "F#3",
          "ticks": 22080,
          "time": 91.5928425,
          "velocity": 0.3937007874015748
        },
        {
          "duration": 0.1327432500000043,
          "durationTicks": 32,
          "midi": 68,
          "name": "G#4",
          "ticks": 22176,
          "time": 91.99107225,
          "velocity": 0.3937007874015748
        },
        {
          "duration": 0.530973000000003,
          "durationTicks": 128,
          "midi": 66,
          "name": "F#4",
          "ticks": 22208,
          "time": 92.1238155,
          "velocity": 0.3937007874015748
        },
        {
          "duration": 0.530973000000003,
          "durationTicks": 128,
          "midi": 54,
          "name": "F#3",
          "ticks": 22272,
          "time": 92.389302,
          "velocity": 0.3937007874015748
        },
        {
          "duration": 0.2654864999999944,
          "durationTicks": 64,
          "midi": 66,
          "name": "F#4",
          "ticks": 22336,
          "time": 92.65478850000001,
          "velocity": 0.3937007874015748
        },
        {
          "duration": 0.530973000000003,
          "durationTicks": 128,
          "midi": 63,
          "name": "D#4",
          "ticks": 22400,
          "time": 92.920275,
          "velocity": 0.3937007874015748
        },
        {
          "duration": 0.530973000000003,
          "durationTicks": 128,
          "midi": 46,
          "name": "A#2",
          "ticks": 22400,
          "time": 92.920275,
          "velocity": 0.3937007874015748
        },
        {
          "duration": 0.530973000000003,
          "durationTicks": 128,
          "midi": 54,
          "name": "F#3",
          "ticks": 22400,
          "time": 92.920275,
          "velocity": 0.3937007874015748
        },
        {
          "duration": 0.530973000000003,
          "durationTicks": 128,
          "midi": 73,
          "name": "C#5",
          "ticks": 22400,
          "time": 92.920275,
          "velocity": 0.3937007874015748
        },
        {
          "duration": 1.0619459999999918,
          "durationTicks": 256,
          "midi": 71,
          "name": "B4",
          "ticks": 22528,
          "time": 93.451248,
          "velocity": 0.3937007874015748
        },
        {
          "duration": 1.5929189999999949,
          "durationTicks": 384,
          "midi": 63,
          "name": "D#4",
          "ticks": 22528,
          "time": 93.451248,
          "velocity": 0.3937007874015748
        },
        {
          "duration": 1.1946892499999962,
          "durationTicks": 288,
          "midi": 56,
          "name": "G#3",
          "ticks": 22528,
          "time": 93.451248,
          "velocity": 0.3937007874015748
        },
        {
          "duration": 1.5929189999999949,
          "durationTicks": 384,
          "midi": 47,
          "name": "B2",
          "ticks": 22528,
          "time": 93.451248,
          "velocity": 0.3937007874015748
        },
        {
          "duration": 0.1327432500000043,
          "durationTicks": 32,
          "midi": 54,
          "name": "F#3",
          "ticks": 22720,
          "time": 94.2477075,
          "velocity": 0.3937007874015748
        },
        {
          "duration": 0.1327432500000043,
          "durationTicks": 32,
          "midi": 66,
          "name": "F#4",
          "ticks": 22720,
          "time": 94.2477075,
          "velocity": 0.3937007874015748
        },
        {
          "duration": 0.1327432499999901,
          "durationTicks": 32,
          "midi": 66,
          "name": "F#4",
          "ticks": 22752,
          "time": 94.38045075000001,
          "velocity": 0.3937007874015748
        },
        {
          "duration": 0.1327432499999901,
          "durationTicks": 32,
          "midi": 54,
          "name": "F#3",
          "ticks": 22752,
          "time": 94.38045075000001,
          "velocity": 0.3937007874015748
        },
        {
          "duration": 0.1327432500000043,
          "durationTicks": 32,
          "midi": 66,
          "name": "F#4",
          "ticks": 22784,
          "time": 94.513194,
          "velocity": 0.3937007874015748
        },
        {
          "duration": 0.1327432500000043,
          "durationTicks": 32,
          "midi": 68,
          "name": "G#4",
          "ticks": 22784,
          "time": 94.513194,
          "velocity": 0.3937007874015748
        },
        {
          "duration": 0.1327432500000043,
          "durationTicks": 32,
          "midi": 56,
          "name": "G#3",
          "ticks": 22784,
          "time": 94.513194,
          "velocity": 0.3937007874015748
        },
        {
          "duration": 0.1327432500000043,
          "durationTicks": 32,
          "midi": 68,
          "name": "G#4",
          "ticks": 22816,
          "time": 94.64593725,
          "velocity": 0.3937007874015748
        },
        {
          "duration": 0.2654865000000086,
          "durationTicks": 64,
          "midi": 59,
          "name": "B3",
          "ticks": 22816,
          "time": 94.64593725,
          "velocity": 0.3937007874015748
        },
        {
          "duration": 0.2654865000000086,
          "durationTicks": 64,
          "midi": 71,
          "name": "B4",
          "ticks": 22816,
          "time": 94.64593725,
          "velocity": 0.3937007874015748
        },
        {
          "duration": 0.1327432500000043,
          "durationTicks": 32,
          "midi": 71,
          "name": "B4",
          "ticks": 22848,
          "time": 94.77868050000001,
          "velocity": 0.3937007874015748
        },
        {
          "duration": 0.1327432499999901,
          "durationTicks": 32,
          "midi": 71,
          "name": "B4",
          "ticks": 22880,
          "time": 94.91142375000001,
          "velocity": 0.3937007874015748
        },
        {
          "duration": 0.1327432499999901,
          "durationTicks": 32,
          "midi": 59,
          "name": "B3",
          "ticks": 22880,
          "time": 94.91142375000001,
          "velocity": 0.3937007874015748
        },
        {
          "duration": 0.1327432499999901,
          "durationTicks": 32,
          "midi": 68,
          "name": "G#4",
          "ticks": 22880,
          "time": 94.91142375000001,
          "velocity": 0.3937007874015748
        },
        {
          "duration": 0.3982297499999987,
          "durationTicks": 96,
          "midi": 75,
          "name": "D#5",
          "ticks": 22912,
          "time": 95.044167,
          "velocity": 0.3937007874015748
        },
        {
          "duration": 0.7964594999999974,
          "durationTicks": 192,
          "midi": 47,
          "name": "B2",
          "ticks": 22912,
          "time": 95.044167,
          "velocity": 0.3937007874015748
        },
        {
          "duration": 0.7964594999999974,
          "durationTicks": 192,
          "midi": 56,
          "name": "G#3",
          "ticks": 22912,
          "time": 95.044167,
          "velocity": 0.3937007874015748
        },
        {
          "duration": 0.7964594999999974,
          "durationTicks": 192,
          "midi": 59,
          "name": "B3",
          "ticks": 22912,
          "time": 95.044167,
          "velocity": 0.3937007874015748
        },
        {
          "duration": 0.7964594999999974,
          "durationTicks": 192,
          "midi": 64,
          "name": "E4",
          "ticks": 22912,
          "time": 95.044167,
          "velocity": 0.3937007874015748
        },
        {
          "duration": 0.7964594999999974,
          "durationTicks": 192,
          "midi": 71,
          "name": "B4",
          "ticks": 22912,
          "time": 95.044167,
          "velocity": 0.3937007874015748
        },
        {
          "duration": 0.3982297499999987,
          "durationTicks": 96,
          "midi": 75,
          "name": "D#5",
          "ticks": 23008,
          "time": 95.44239675,
          "velocity": 0.3937007874015748
        },
        {
          "duration": 0.9292027500000017,
          "durationTicks": 224,
          "midi": 66,
          "name": "F#4",
          "ticks": 23104,
          "time": 95.8406265,
          "velocity": 0.3937007874015748
        },
        {
          "duration": 0.7964595000000116,
          "durationTicks": 192,
          "midi": 73,
          "name": "C#5",
          "ticks": 23104,
          "time": 95.8406265,
          "velocity": 0.3937007874015748
        },
        {
          "duration": 0.7964595000000116,
          "durationTicks": 192,
          "midi": 61,
          "name": "C#4",
          "ticks": 23104,
          "time": 95.8406265,
          "velocity": 0.3937007874015748
        },
        {
          "duration": 1.3274325000000005,
          "durationTicks": 320,
          "midi": 58,
          "name": "A#3",
          "ticks": 23104,
          "time": 95.8406265,
          "velocity": 0.3937007874015748
        },
        {
          "duration": 1.3274325000000005,
          "durationTicks": 320,
          "midi": 49,
          "name": "C#3",
          "ticks": 23104,
          "time": 95.8406265,
          "velocity": 0.3937007874015748
        },
        {
          "duration": 0.1327432499999901,
          "durationTicks": 32,
          "midi": 66,
          "name": "F#4",
          "ticks": 23296,
          "time": 96.63708600000001,
          "velocity": 0.3937007874015748
        },
        {
          "duration": 0.5309729999999888,
          "durationTicks": 128,
          "midi": 54,
          "name": "F#3",
          "ticks": 23296,
          "time": 96.63708600000001,
          "velocity": 0.3937007874015748
        },
        {
          "duration": 0.1327432500000043,
          "durationTicks": 32,
          "midi": 68,
          "name": "G#4",
          "ticks": 23328,
          "time": 96.76982925,
          "velocity": 0.3937007874015748
        },
        {
          "duration": 0.1327432500000043,
          "durationTicks": 32,
          "midi": 71,
          "name": "B4",
          "ticks": 23360,
          "time": 96.9025725,
          "velocity": 0.3937007874015748
        },
        {
          "duration": 0.1327432499999901,
          "durationTicks": 32,
          "midi": 68,
          "name": "G#4",
          "ticks": 23392,
          "time": 97.03531575000001,
          "velocity": 0.3937007874015748
        },
        {
          "duration": 0.7964595000000116,
          "durationTicks": 192,
          "midi": 58,
          "name": "A#3",
          "ticks": 23424,
          "time": 97.168059,
          "velocity": 0.3937007874015748
        },
        {
          "duration": 0.7964595000000116,
          "durationTicks": 192,
          "midi": 51,
          "name": "D#3",
          "ticks": 23424,
          "time": 97.168059,
          "velocity": 0.3937007874015748
        },
        {
          "duration": 0.7964595000000116,
          "durationTicks": 192,
          "midi": 61,
          "name": "C#4",
          "ticks": 23424,
          "time": 97.168059,
          "velocity": 0.3937007874015748
        },
        {
          "duration": 0.7964595000000116,
          "durationTicks": 192,
          "midi": 66,
          "name": "F#4",
          "ticks": 23424,
          "time": 97.168059,
          "velocity": 0.3937007874015748
        },
        {
          "duration": 0.2654865000000086,
          "durationTicks": 64,
          "midi": 70,
          "name": "A#4",
          "ticks": 23552,
          "time": 97.699032,
          "velocity": 0.3937007874015748
        },
        {
          "duration": 0.3982297499999987,
          "durationTicks": 96,
          "midi": 71,
          "name": "B4",
          "ticks": 23616,
          "time": 97.96451850000001,
          "velocity": 0.3937007874015748
        },
        {
          "duration": 0.7964594999999974,
          "durationTicks": 192,
          "midi": 68,
          "name": "G#4",
          "ticks": 23616,
          "time": 97.96451850000001,
          "velocity": 0.3937007874015748
        },
        {
          "duration": 0.7964594999999974,
          "durationTicks": 192,
          "midi": 63,
          "name": "D#4",
          "ticks": 23616,
          "time": 97.96451850000001,
          "velocity": 0.3937007874015748
        },
        {
          "duration": 1.3274325000000005,
          "durationTicks": 320,
          "midi": 59,
          "name": "B3",
          "ticks": 23616,
          "time": 97.96451850000001,
          "velocity": 0.3937007874015748
        },
        {
          "duration": 1.3274325000000005,
          "durationTicks": 320,
          "midi": 51,
          "name": "D#3",
          "ticks": 23616,
          "time": 97.96451850000001,
          "velocity": 0.3937007874015748
        },
        {
          "duration": 0.1327432499999901,
          "durationTicks": 32,
          "midi": 70,
          "name": "A#4",
          "ticks": 23712,
          "time": 98.36274825000001,
          "velocity": 0.3937007874015748
        },
        {
          "duration": 0.2654865000000086,
          "durationTicks": 64,
          "midi": 68,
          "name": "G#4",
          "ticks": 23744,
          "time": 98.4954915,
          "velocity": 0.3937007874015748
        },
        {
          "duration": 0.1327432499999901,
          "durationTicks": 32,
          "midi": 66,
          "name": "F#4",
          "ticks": 23808,
          "time": 98.76097800000001,
          "velocity": 0.3937007874015748
        },
        {
          "duration": 0.1327432499999901,
          "durationTicks": 32,
          "midi": 66,
          "name": "F#4",
          "ticks": 23808,
          "time": 98.76097800000001,
          "velocity": 0.3937007874015748
        },
        {
          "duration": 0.1327432500000043,
          "durationTicks": 32,
          "midi": 68,
          "name": "G#4",
          "ticks": 23840,
          "time": 98.89372125,
          "velocity": 0.3937007874015748
        },
        {
          "duration": 0.1327432500000043,
          "durationTicks": 32,
          "midi": 64,
          "name": "E4",
          "ticks": 23840,
          "time": 98.89372125,
          "velocity": 0.3937007874015748
        },
        {
          "duration": 0.1327432500000043,
          "durationTicks": 32,
          "midi": 71,
          "name": "B4",
          "ticks": 23872,
          "time": 99.0264645,
          "velocity": 0.3937007874015748
        },
        {
          "duration": 0.2654865000000086,
          "durationTicks": 64,
          "midi": 63,
          "name": "D#4",
          "ticks": 23872,
          "time": 99.0264645,
          "velocity": 0.3937007874015748
        },
        {
          "duration": 0.1327432500000043,
          "durationTicks": 32,
          "midi": 68,
          "name": "G#4",
          "ticks": 23904,
          "time": 99.15920775000001,
          "velocity": 0.3937007874015748
        },
        {
          "duration": 0.5309729999999888,
          "durationTicks": 128,
          "midi": 71,
          "name": "B4",
          "ticks": 23936,
          "time": 99.29195100000001,
          "velocity": 0.3937007874015748
        },
        {
          "duration": 0.7964594999999974,
          "durationTicks": 192,
          "midi": 68,
          "name": "G#4",
          "ticks": 23936,
          "time": 99.29195100000001,
          "velocity": 0.3937007874015748
        },
        {
          "duration": 0.7964594999999974,
          "durationTicks": 192,
          "midi": 52,
          "name": "E3",
          "ticks": 23936,
          "time": 99.29195100000001,
          "velocity": 0.3937007874015748
        },
        {
          "duration": 0.7964594999999974,
          "durationTicks": 192,
          "midi": 61,
          "name": "C#4",
          "ticks": 23936,
          "time": 99.29195100000001,
          "velocity": 0.3937007874015748
        },
        {
          "duration": 0.7964594999999974,
          "durationTicks": 192,
          "midi": 59,
          "name": "B3",
          "ticks": 23936,
          "time": 99.29195100000001,
          "velocity": 0.3937007874015748
        },
        {
          "duration": 0.2654865000000086,
          "durationTicks": 64,
          "midi": 73,
          "name": "C#5",
          "ticks": 24064,
          "time": 99.822924,
          "velocity": 0.3937007874015748
        },
        {
          "duration": 1.3274325000000005,
          "durationTicks": 320,
          "midi": 54,
          "name": "F#3",
          "ticks": 24128,
          "time": 100.08841050000001,
          "velocity": 0.3937007874015748
        },
        {
          "duration": 0.3982297499999987,
          "durationTicks": 96,
          "midi": 70,
          "name": "A#4",
          "ticks": 24128,
          "time": 100.08841050000001,
          "velocity": 0.3937007874015748
        },
        {
          "duration": 0.7964594999999974,
          "durationTicks": 192,
          "midi": 61,
          "name": "C#4",
          "ticks": 24128,
          "time": 100.08841050000001,
          "velocity": 0.3937007874015748
        },
        {
          "duration": 0.7964594999999974,
          "durationTicks": 192,
          "midi": 61,
          "name": "C#4",
          "ticks": 24128,
          "time": 100.08841050000001,
          "velocity": 0.3937007874015748
        },
        {
          "duration": 0.3982297499999987,
          "durationTicks": 96,
          "midi": 70,
          "name": "A#4",
          "ticks": 24128,
          "time": 100.08841050000001,
          "velocity": 0.3937007874015748
        },
        {
          "duration": 0.1327432500000043,
          "durationTicks": 32,
          "midi": 68,
          "name": "G#4",
          "ticks": 24224,
          "time": 100.48664025000001,
          "velocity": 0.3937007874015748
        },
        {
          "duration": 0.5309729999999888,
          "durationTicks": 128,
          "midi": 66,
          "name": "F#4",
          "ticks": 24256,
          "time": 100.61938350000001,
          "velocity": 0.3937007874015748
        },
        {
          "duration": 0.530973000000003,
          "durationTicks": 128,
          "midi": 54,
          "name": "F#3",
          "ticks": 24320,
          "time": 100.88487,
          "velocity": 0.3937007874015748
        },
        {
          "duration": 0.2654865000000086,
          "durationTicks": 64,
          "midi": 66,
          "name": "F#4",
          "ticks": 24384,
          "time": 101.1503565,
          "velocity": 0.3937007874015748
        },
        {
          "duration": 0.530973000000003,
          "durationTicks": 128,
          "midi": 54,
          "name": "F#3",
          "ticks": 24448,
          "time": 101.41584300000001,
          "velocity": 0.3937007874015748
        },
        {
          "duration": 0.2654864999999944,
          "durationTicks": 64,
          "midi": 58,
          "name": "A#3",
          "ticks": 24448,
          "time": 101.41584300000001,
          "velocity": 0.3937007874015748
        },
        {
          "duration": 0.530973000000003,
          "durationTicks": 128,
          "midi": 63,
          "name": "D#4",
          "ticks": 24448,
          "time": 101.41584300000001,
          "velocity": 0.3937007874015748
        },
        {
          "duration": 0.530973000000003,
          "durationTicks": 128,
          "midi": 70,
          "name": "A#4",
          "ticks": 24448,
          "time": 101.41584300000001,
          "velocity": 0.3937007874015748
        },
        {
          "duration": 0.530973000000003,
          "durationTicks": 128,
          "midi": 73,
          "name": "C#5",
          "ticks": 24448,
          "time": 101.41584300000001,
          "velocity": 0.3937007874015748
        },
        {
          "duration": 0.2654865000000086,
          "durationTicks": 64,
          "midi": 59,
          "name": "B3",
          "ticks": 24512,
          "time": 101.6813295,
          "velocity": 0.3937007874015748
        },
        {
          "duration": 1.0619459999999918,
          "durationTicks": 256,
          "midi": 56,
          "name": "G#3",
          "ticks": 24576,
          "time": 101.94681600000001,
          "velocity": 0.3937007874015748
        },
        {
          "duration": 1.0619459999999918,
          "durationTicks": 256,
          "midi": 71,
          "name": "B4",
          "ticks": 24576,
          "time": 101.94681600000001,
          "velocity": 0.3937007874015748
        },
        {
          "duration": 0.5309729999999888,
          "durationTicks": 128,
          "midi": 59,
          "name": "B3",
          "ticks": 24576,
          "time": 101.94681600000001,
          "velocity": 0.3937007874015748
        },
        {
          "duration": 1.0619459999999918,
          "durationTicks": 256,
          "midi": 71,
          "name": "B4",
          "ticks": 24576,
          "time": 101.94681600000001,
          "velocity": 0.3937007874015748
        },
        {
          "duration": 1.0619459999999918,
          "durationTicks": 256,
          "midi": 63,
          "name": "D#4",
          "ticks": 24576,
          "time": 101.94681600000001,
          "velocity": 0.3937007874015748
        },
        {
          "duration": 0.1327432500000043,
          "durationTicks": 32,
          "midi": 66,
          "name": "F#4",
          "ticks": 24832,
          "time": 103.008762,
          "velocity": 0.3937007874015748
        },
        {
          "duration": 0.1327432500000043,
          "durationTicks": 32,
          "midi": 59,
          "name": "B3",
          "ticks": 24832,
          "time": 103.008762,
          "velocity": 0.3937007874015748
        },
        {
          "duration": 0.1327432500000043,
          "durationTicks": 32,
          "midi": 66,
          "name": "F#4",
          "ticks": 24832,
          "time": 103.008762,
          "velocity": 0.3937007874015748
        },
        {
          "duration": 0.1327432499999901,
          "durationTicks": 32,
          "midi": 68,
          "name": "G#4",
          "ticks": 24864,
          "time": 103.14150525000001,
          "velocity": 0.3937007874015748
        },
        {
          "duration": 0.1327432499999901,
          "durationTicks": 32,
          "midi": 68,
          "name": "G#4",
          "ticks": 24864,
          "time": 103.14150525000001,
          "velocity": 0.3937007874015748
        },
        {
          "duration": 0.2654864999999944,
          "durationTicks": 64,
          "midi": 59,
          "name": "B3",
          "ticks": 24864,
          "time": 103.14150525000001,
          "velocity": 0.3937007874015748
        },
        {
          "duration": 0.1327432500000043,
          "durationTicks": 32,
          "midi": 71,
          "name": "B4",
          "ticks": 24896,
          "time": 103.2742485,
          "velocity": 0.3937007874015748
        },
        {
          "duration": 0.1327432500000043,
          "durationTicks": 32,
          "midi": 71,
          "name": "B4",
          "ticks": 24896,
          "time": 103.2742485,
          "velocity": 0.3937007874015748
        },
        {
          "duration": 0.1327432500000043,
          "durationTicks": 32,
          "midi": 59,
          "name": "B3",
          "ticks": 24928,
          "time": 103.40699175,
          "velocity": 0.3937007874015748
        },
        {
          "duration": 0.1327432500000043,
          "durationTicks": 32,
          "midi": 68,
          "name": "G#4",
          "ticks": 24928,
          "time": 103.40699175,
          "velocity": 0.3937007874015748
        },
        {
          "duration": 0.1327432500000043,
          "durationTicks": 32,
          "midi": 68,
          "name": "G#4",
          "ticks": 24928,
          "time": 103.40699175,
          "velocity": 0.3937007874015748
        },
        {
          "duration": 0.3982297499999987,
          "durationTicks": 96,
          "midi": 75,
          "name": "D#5",
          "ticks": 24960,
          "time": 103.53973500000001,
          "velocity": 0.3937007874015748
        },
        {
          "duration": 0.7964594999999974,
          "durationTicks": 192,
          "midi": 40,
          "name": "E2",
          "ticks": 24960,
          "time": 103.53973500000001,
          "velocity": 0.3937007874015748
        },
        {
          "duration": 0.3982297499999987,
          "durationTicks": 96,
          "midi": 75,
          "name": "D#5",
          "ticks": 24960,
          "time": 103.53973500000001,
          "velocity": 0.3937007874015748
        },
        {
          "duration": 0.7964594999999974,
          "durationTicks": 192,
          "midi": 47,
          "name": "B2",
          "ticks": 24960,
          "time": 103.53973500000001,
          "velocity": 0.3937007874015748
        },
        {
          "duration": 0.3982297499999987,
          "durationTicks": 96,
          "midi": 52,
          "name": "E3",
          "ticks": 24960,
          "time": 103.53973500000001,
          "velocity": 0.3937007874015748
        },
        {
          "duration": 0.3982297499999987,
          "durationTicks": 96,
          "midi": 75,
          "name": "D#5",
          "ticks": 24960,
          "time": 103.53973500000001,
          "velocity": 0.3937007874015748
        },
        {
          "duration": 0.7964594999999974,
          "durationTicks": 192,
          "midi": 56,
          "name": "G#3",
          "ticks": 24960,
          "time": 103.53973500000001,
          "velocity": 0.3937007874015748
        },
        {
          "duration": 0.7964594999999974,
          "durationTicks": 192,
          "midi": 59,
          "name": "B3",
          "ticks": 24960,
          "time": 103.53973500000001,
          "velocity": 0.3937007874015748
        },
        {
          "duration": 0.7964594999999974,
          "durationTicks": 192,
          "midi": 59,
          "name": "B3",
          "ticks": 24960,
          "time": 103.53973500000001,
          "velocity": 0.3937007874015748
        },
        {
          "duration": 0.1327432500000043,
          "durationTicks": 32,
          "midi": 52,
          "name": "E3",
          "ticks": 25056,
          "time": 103.93796475,
          "velocity": 0.3937007874015748
        },
        {
          "duration": 0.3982297499999987,
          "durationTicks": 96,
          "midi": 75,
          "name": "D#5",
          "ticks": 25056,
          "time": 103.93796475,
          "velocity": 0.3937007874015748
        },
        {
          "duration": 0.3982297499999987,
          "durationTicks": 96,
          "midi": 75,
          "name": "D#5",
          "ticks": 25056,
          "time": 103.93796475,
          "velocity": 0.3937007874015748
        },
        {
          "duration": 0.3982297499999987,
          "durationTicks": 96,
          "midi": 75,
          "name": "D#5",
          "ticks": 25056,
          "time": 103.93796475,
          "velocity": 0.3937007874015748
        },
        {
          "duration": 0.2654864999999944,
          "durationTicks": 64,
          "midi": 52,
          "name": "E3",
          "ticks": 25088,
          "time": 104.07070800000001,
          "velocity": 0.3937007874015748
        },
        {
          "duration": 0.7964594999999974,
          "durationTicks": 192,
          "midi": 73,
          "name": "C#5",
          "ticks": 25152,
          "time": 104.3361945,
          "velocity": 0.3937007874015748
        },
        {
          "duration": 0.7964594999999974,
          "durationTicks": 192,
          "midi": 73,
          "name": "C#5",
          "ticks": 25152,
          "time": 104.3361945,
          "velocity": 0.3937007874015748
        },
        {
          "duration": 0.7964594999999974,
          "durationTicks": 192,
          "midi": 73,
          "name": "C#5",
          "ticks": 25152,
          "time": 104.3361945,
          "velocity": 0.3937007874015748
        },
        {
          "duration": 0.7964594999999974,
          "durationTicks": 192,
          "midi": 61,
          "name": "C#4",
          "ticks": 25152,
          "time": 104.3361945,
          "velocity": 0.3937007874015748
        },
        {
          "duration": 0.7964594999999974,
          "durationTicks": 192,
          "midi": 61,
          "name": "C#4",
          "ticks": 25152,
          "time": 104.3361945,
          "velocity": 0.3937007874015748
        },
        {
          "duration": 1.3274325000000005,
          "durationTicks": 320,
          "midi": 58,
          "name": "A#3",
          "ticks": 25152,
          "time": 104.3361945,
          "velocity": 0.3937007874015748
        },
        {
          "duration": 0.530973000000003,
          "durationTicks": 128,
          "midi": 54,
          "name": "F#3",
          "ticks": 25152,
          "time": 104.3361945,
          "velocity": 0.3937007874015748
        },
        {
          "duration": 1.3274325000000005,
          "durationTicks": 320,
          "midi": 49,
          "name": "C#3",
          "ticks": 25152,
          "time": 104.3361945,
          "velocity": 0.3937007874015748
        },
        {
          "duration": 1.3274325000000005,
          "durationTicks": 320,
          "midi": 42,
          "name": "F#2",
          "ticks": 25152,
          "time": 104.3361945,
          "velocity": 0.3937007874015748
        },
        {
          "duration": 0.2654864999999944,
          "durationTicks": 64,
          "midi": 54,
          "name": "F#3",
          "ticks": 25280,
          "time": 104.86716750000001,
          "velocity": 0.3937007874015748
        },
        {
          "duration": 0.1327432500000043,
          "durationTicks": 32,
          "midi": 66,
          "name": "F#4",
          "ticks": 25344,
          "time": 105.132654,
          "velocity": 0.3937007874015748
        },
        {
          "duration": 0.2654865000000086,
          "durationTicks": 64,
          "midi": 54,
          "name": "F#3",
          "ticks": 25344,
          "time": 105.132654,
          "velocity": 0.3937007874015748
        },
        {
          "duration": 0.1327432500000043,
          "durationTicks": 32,
          "midi": 66,
          "name": "F#4",
          "ticks": 25344,
          "time": 105.132654,
          "velocity": 0.3937007874015748
        },
        {
          "duration": 0.2654865000000086,
          "durationTicks": 64,
          "midi": 54,
          "name": "F#3",
          "ticks": 25344,
          "time": 105.132654,
          "velocity": 0.3937007874015748
        },
        {
          "duration": 0.2654865000000086,
          "durationTicks": 64,
          "midi": 54,
          "name": "F#3",
          "ticks": 25344,
          "time": 105.132654,
          "velocity": 0.3937007874015748
        },
        {
          "duration": 0.1327432500000043,
          "durationTicks": 32,
          "midi": 68,
          "name": "G#4",
          "ticks": 25376,
          "time": 105.26539725,
          "velocity": 0.3937007874015748
        },
        {
          "duration": 0.1327432500000043,
          "durationTicks": 32,
          "midi": 68,
          "name": "G#4",
          "ticks": 25376,
          "time": 105.26539725,
          "velocity": 0.3937007874015748
        },
        {
          "duration": 0.1327432499999901,
          "durationTicks": 32,
          "midi": 71,
          "name": "B4",
          "ticks": 25408,
          "time": 105.39814050000001,
          "velocity": 0.3937007874015748
        },
        {
          "duration": 0.2654864999999944,
          "durationTicks": 64,
          "midi": 54,
          "name": "F#3",
          "ticks": 25408,
          "time": 105.39814050000001,
          "velocity": 0.3937007874015748
        },
        {
          "duration": 0.1327432499999901,
          "durationTicks": 32,
          "midi": 71,
          "name": "B4",
          "ticks": 25408,
          "time": 105.39814050000001,
          "velocity": 0.3937007874015748
        },
        {
          "duration": 0.1327432500000043,
          "durationTicks": 32,
          "midi": 68,
          "name": "G#4",
          "ticks": 25440,
          "time": 105.53088375,
          "velocity": 0.3937007874015748
        },
        {
          "duration": 0.1327432500000043,
          "durationTicks": 32,
          "midi": 68,
          "name": "G#4",
          "ticks": 25440,
          "time": 105.53088375,
          "velocity": 0.3937007874015748
        },
        {
          "duration": 0.3982297499999987,
          "durationTicks": 96,
          "midi": 73,
          "name": "C#5",
          "ticks": 25472,
          "time": 105.663627,
          "velocity": 0.3937007874015748
        },
        {
          "duration": 0.7964594999999974,
          "durationTicks": 192,
          "midi": 42,
          "name": "F#2",
          "ticks": 25472,
          "time": 105.663627,
          "velocity": 0.3937007874015748
        },
        {
          "duration": 0.3982297499999987,
          "durationTicks": 96,
          "midi": 73,
          "name": "C#5",
          "ticks": 25472,
          "time": 105.663627,
          "velocity": 0.3937007874015748
        },
        {
          "duration": 0.3982297499999987,
          "durationTicks": 96,
          "midi": 51,
          "name": "D#3",
          "ticks": 25472,
          "time": 105.663627,
          "velocity": 0.3937007874015748
        },
        {
          "duration": 0.3982297499999987,
          "durationTicks": 96,
          "midi": 51,
          "name": "D#3",
          "ticks": 25472,
          "time": 105.663627,
          "velocity": 0.3937007874015748
        },
        {
          "duration": 0.3982297499999987,
          "durationTicks": 96,
          "midi": 73,
          "name": "C#5",
          "ticks": 25472,
          "time": 105.663627,
          "velocity": 0.3937007874015748
        },
        {
          "duration": 0.7964594999999974,
          "durationTicks": 192,
          "midi": 58,
          "name": "A#3",
          "ticks": 25472,
          "time": 105.663627,
          "velocity": 0.3937007874015748
        },
        {
          "duration": 0.7964594999999974,
          "durationTicks": 192,
          "midi": 61,
          "name": "C#4",
          "ticks": 25472,
          "time": 105.663627,
          "velocity": 0.3937007874015748
        },
        {
          "duration": 0.7964594999999974,
          "durationTicks": 192,
          "midi": 61,
          "name": "C#4",
          "ticks": 25472,
          "time": 105.663627,
          "velocity": 0.3937007874015748
        },
        {
          "duration": 0.3982297499999987,
          "durationTicks": 96,
          "midi": 73,
          "name": "C#5",
          "ticks": 25568,
          "time": 106.06185675,
          "velocity": 0.3937007874015748
        },
        {
          "duration": 0.1327432500000043,
          "durationTicks": 32,
          "midi": 51,
          "name": "D#3",
          "ticks": 25568,
          "time": 106.06185675,
          "velocity": 0.3937007874015748
        },
        {
          "duration": 0.3982297499999987,
          "durationTicks": 96,
          "midi": 73,
          "name": "C#5",
          "ticks": 25568,
          "time": 106.06185675,
          "velocity": 0.3937007874015748
        },
        {
          "duration": 0.3982297499999987,
          "durationTicks": 96,
          "midi": 73,
          "name": "C#5",
          "ticks": 25568,
          "time": 106.06185675,
          "velocity": 0.3937007874015748
        },
        {
          "duration": 0.2654864999999944,
          "durationTicks": 64,
          "midi": 51,
          "name": "D#3",
          "ticks": 25600,
          "time": 106.19460000000001,
          "velocity": 0.3937007874015748
        },
        {
          "duration": 0.530973000000003,
          "durationTicks": 128,
          "midi": 44,
          "name": "G#2",
          "ticks": 25664,
          "time": 106.4600865,
          "velocity": 0.3937007874015748
        },
        {
          "duration": 0.3982297499999987,
          "durationTicks": 96,
          "midi": 71,
          "name": "B4",
          "ticks": 25664,
          "time": 106.4600865,
          "velocity": 0.3937007874015748
        },
        {
          "duration": 0.3982297499999987,
          "durationTicks": 96,
          "midi": 71,
          "name": "B4",
          "ticks": 25664,
          "time": 106.4600865,
          "velocity": 0.3937007874015748
        },
        {
          "duration": 0.3982297499999987,
          "durationTicks": 96,
          "midi": 71,
          "name": "B4",
          "ticks": 25664,
          "time": 106.4600865,
          "velocity": 0.3937007874015748
        },
        {
          "duration": 0.7964594999999974,
          "durationTicks": 192,
          "midi": 63,
          "name": "D#4",
          "ticks": 25664,
          "time": 106.4600865,
          "velocity": 0.3937007874015748
        },
        {
          "duration": 0.7964594999999974,
          "durationTicks": 192,
          "midi": 63,
          "name": "D#4",
          "ticks": 25664,
          "time": 106.4600865,
          "velocity": 0.3937007874015748
        },
        {
          "duration": 1.3274325000000005,
          "durationTicks": 320,
          "midi": 59,
          "name": "B3",
          "ticks": 25664,
          "time": 106.4600865,
          "velocity": 0.3937007874015748
        },
        {
          "duration": 0.530973000000003,
          "durationTicks": 128,
          "midi": 44,
          "name": "G#2",
          "ticks": 25664,
          "time": 106.4600865,
          "velocity": 0.3937007874015748
        },
        {
          "duration": 1.3274325000000005,
          "durationTicks": 320,
          "midi": 51,
          "name": "D#3",
          "ticks": 25664,
          "time": 106.4600865,
          "velocity": 0.3937007874015748
        },
        {
          "duration": 0.1327432500000043,
          "durationTicks": 32,
          "midi": 70,
          "name": "A#4",
          "ticks": 25760,
          "time": 106.85831625,
          "velocity": 0.3937007874015748
        },
        {
          "duration": 0.1327432500000043,
          "durationTicks": 32,
          "midi": 70,
          "name": "A#4",
          "ticks": 25760,
          "time": 106.85831625,
          "velocity": 0.3937007874015748
        },
        {
          "duration": 0.2654864999999944,
          "durationTicks": 64,
          "midi": 68,
          "name": "G#4",
          "ticks": 25792,
          "time": 106.9910595,
          "velocity": 0.3937007874015748
        },
        {
          "duration": 0.2654864999999944,
          "durationTicks": 64,
          "midi": 68,
          "name": "G#4",
          "ticks": 25792,
          "time": 106.9910595,
          "velocity": 0.3937007874015748
        },
        {
          "duration": 0.2654864999999944,
          "durationTicks": 64,
          "midi": 44,
          "name": "G#2",
          "ticks": 25792,
          "time": 106.9910595,
          "velocity": 0.3937007874015748
        },
        {
          "duration": 0.1327432500000043,
          "durationTicks": 32,
          "midi": 66,
          "name": "F#4",
          "ticks": 25856,
          "time": 107.256546,
          "velocity": 0.3937007874015748
        },
        {
          "duration": 0.1327432500000043,
          "durationTicks": 32,
          "midi": 66,
          "name": "F#4",
          "ticks": 25856,
          "time": 107.256546,
          "velocity": 0.3937007874015748
        },
        {
          "duration": 0.1327432500000043,
          "durationTicks": 32,
          "midi": 66,
          "name": "F#4",
          "ticks": 25856,
          "time": 107.256546,
          "velocity": 0.3937007874015748
        },
        {
          "duration": 0.1327432500000043,
          "durationTicks": 32,
          "midi": 66,
          "name": "F#4",
          "ticks": 25856,
          "time": 107.256546,
          "velocity": 0.3937007874015748
        },
        {
          "duration": 0.2654865000000086,
          "durationTicks": 64,
          "midi": 44,
          "name": "G#2",
          "ticks": 25856,
          "time": 107.256546,
          "velocity": 0.3937007874015748
        },
        {
          "duration": 0.1327432500000043,
          "durationTicks": 32,
          "midi": 68,
          "name": "G#4",
          "ticks": 25888,
          "time": 107.38928925,
          "velocity": 0.3937007874015748
        },
        {
          "duration": 0.1327432500000043,
          "durationTicks": 32,
          "midi": 68,
          "name": "G#4",
          "ticks": 25888,
          "time": 107.38928925,
          "velocity": 0.3937007874015748
        },
        {
          "duration": 0.1327432500000043,
          "durationTicks": 32,
          "midi": 64,
          "name": "E4",
          "ticks": 25888,
          "time": 107.38928925,
          "velocity": 0.3937007874015748
        },
        {
          "duration": 0.1327432500000043,
          "durationTicks": 32,
          "midi": 64,
          "name": "E4",
          "ticks": 25888,
          "time": 107.38928925,
          "velocity": 0.3937007874015748
        },
        {
          "duration": 0.2654864999999944,
          "durationTicks": 64,
          "midi": 44,
          "name": "G#2",
          "ticks": 25920,
          "time": 107.52203250000001,
          "velocity": 0.3937007874015748
        },
        {
          "duration": 0.1327432499999901,
          "durationTicks": 32,
          "midi": 71,
          "name": "B4",
          "ticks": 25920,
          "time": 107.52203250000001,
          "velocity": 0.3937007874015748
        },
        {
          "duration": 0.1327432499999901,
          "durationTicks": 32,
          "midi": 71,
          "name": "B4",
          "ticks": 25920,
          "time": 107.52203250000001,
          "velocity": 0.3937007874015748
        },
        {
          "duration": 0.2654864999999944,
          "durationTicks": 64,
          "midi": 63,
          "name": "D#4",
          "ticks": 25920,
          "time": 107.52203250000001,
          "velocity": 0.3937007874015748
        },
        {
          "duration": 0.2654864999999944,
          "durationTicks": 64,
          "midi": 63,
          "name": "D#4",
          "ticks": 25920,
          "time": 107.52203250000001,
          "velocity": 0.3937007874015748
        },
        {
          "duration": 0.1327432500000043,
          "durationTicks": 32,
          "midi": 68,
          "name": "G#4",
          "ticks": 25952,
          "time": 107.65477575,
          "velocity": 0.3937007874015748
        },
        {
          "duration": 0.1327432500000043,
          "durationTicks": 32,
          "midi": 68,
          "name": "G#4",
          "ticks": 25952,
          "time": 107.65477575,
          "velocity": 0.3937007874015748
        },
        {
          "duration": 0.530973000000003,
          "durationTicks": 128,
          "midi": 71,
          "name": "B4",
          "ticks": 25984,
          "time": 107.787519,
          "velocity": 0.3937007874015748
        },
        {
          "duration": 0.7964594999999974,
          "durationTicks": 192,
          "midi": 44,
          "name": "G#2",
          "ticks": 25984,
          "time": 107.787519,
          "velocity": 0.3937007874015748
        },
        {
          "duration": 0.530973000000003,
          "durationTicks": 128,
          "midi": 71,
          "name": "B4",
          "ticks": 25984,
          "time": 107.787519,
          "velocity": 0.3937007874015748
        },
        {
          "duration": 0.3982297499999987,
          "durationTicks": 96,
          "midi": 52,
          "name": "E3",
          "ticks": 25984,
          "time": 107.787519,
          "velocity": 0.3937007874015748
        },
        {
          "duration": 0.3982297499999987,
          "durationTicks": 96,
          "midi": 52,
          "name": "E3",
          "ticks": 25984,
          "time": 107.787519,
          "velocity": 0.3937007874015748
        },
        {
          "duration": 0.7964594999999974,
          "durationTicks": 192,
          "midi": 59,
          "name": "B3",
          "ticks": 25984,
          "time": 107.787519,
          "velocity": 0.3937007874015748
        },
        {
          "duration": 0.7964594999999974,
          "durationTicks": 192,
          "midi": 61,
          "name": "C#4",
          "ticks": 25984,
          "time": 107.787519,
          "velocity": 0.3937007874015748
        },
        {
          "duration": 0.7964594999999974,
          "durationTicks": 192,
          "midi": 59,
          "name": "B3",
          "ticks": 25984,
          "time": 107.787519,
          "velocity": 0.3937007874015748
        },
        {
          "duration": 0.1327432500000043,
          "durationTicks": 32,
          "midi": 52,
          "name": "E3",
          "ticks": 26080,
          "time": 108.18574875,
          "velocity": 0.3937007874015748
        },
        {
          "duration": 0.2654864999999944,
          "durationTicks": 64,
          "midi": 52,
          "name": "E3",
          "ticks": 26112,
          "time": 108.318492,
          "velocity": 0.3937007874015748
        },
        {
          "duration": 0.2654864999999944,
          "durationTicks": 64,
          "midi": 73,
          "name": "C#5",
          "ticks": 26112,
          "time": 108.318492,
          "velocity": 0.3937007874015748
        },
        {
          "duration": 0.2654864999999944,
          "durationTicks": 64,
          "midi": 73,
          "name": "C#5",
          "ticks": 26112,
          "time": 108.318492,
          "velocity": 0.3937007874015748
        },
        {
          "duration": 1.3274325000000005,
          "durationTicks": 320,
          "midi": 46,
          "name": "A#2",
          "ticks": 26176,
          "time": 108.5839785,
          "velocity": 0.3937007874015748
        },
        {
          "duration": 0.530973000000003,
          "durationTicks": 128,
          "midi": 54,
          "name": "F#3",
          "ticks": 26176,
          "time": 108.5839785,
          "velocity": 0.3937007874015748
        },
        {
          "duration": 0.530973000000003,
          "durationTicks": 128,
          "midi": 54,
          "name": "F#3",
          "ticks": 26176,
          "time": 108.5839785,
          "velocity": 0.3937007874015748
        },
        {
          "duration": 0.7964595000000116,
          "durationTicks": 192,
          "midi": 61,
          "name": "C#4",
          "ticks": 26176,
          "time": 108.5839785,
          "velocity": 0.3937007874015748
        },
        {
          "duration": 0.7964595000000116,
          "durationTicks": 192,
          "midi": 61,
          "name": "C#4",
          "ticks": 26176,
          "time": 108.5839785,
          "velocity": 0.3937007874015748
        },
        {
          "duration": 0.7964595000000116,
          "durationTicks": 192,
          "midi": 61,
          "name": "C#4",
          "ticks": 26176,
          "time": 108.5839785,
          "velocity": 0.3937007874015748
        },
        {
          "duration": 0.3982297499999987,
          "durationTicks": 96,
          "midi": 70,
          "name": "A#4",
          "ticks": 26176,
          "time": 108.5839785,
          "velocity": 0.3937007874015748
        },
        {
          "duration": 0.3982297499999987,
          "durationTicks": 96,
          "midi": 70,
          "name": "A#4",
          "ticks": 26176,
          "time": 108.5839785,
          "velocity": 0.3937007874015748
        },
        {
          "duration": 0.1327432500000043,
          "durationTicks": 32,
          "midi": 68,
          "name": "G#4",
          "ticks": 26272,
          "time": 108.98220825,
          "velocity": 0.3937007874015748
        },
        {
          "duration": 0.1327432500000043,
          "durationTicks": 32,
          "midi": 68,
          "name": "G#4",
          "ticks": 26272,
          "time": 108.98220825,
          "velocity": 0.3937007874015748
        },
        {
          "duration": 0.530973000000003,
          "durationTicks": 128,
          "midi": 66,
          "name": "F#4",
          "ticks": 26304,
          "time": 109.1149515,
          "velocity": 0.3937007874015748
        },
        {
          "duration": 0.530973000000003,
          "durationTicks": 128,
          "midi": 66,
          "name": "F#4",
          "ticks": 26304,
          "time": 109.1149515,
          "velocity": 0.3937007874015748
        },
        {
          "duration": 0.2654865000000086,
          "durationTicks": 64,
          "midi": 49,
          "name": "C#3",
          "ticks": 26304,
          "time": 109.1149515,
          "velocity": 0.3937007874015748
        },
        {
          "duration": 0.2654864999999944,
          "durationTicks": 64,
          "midi": 54,
          "name": "F#3",
          "ticks": 26368,
          "time": 109.38043800000001,
          "velocity": 0.3937007874015748
        },
        {
          "duration": 0.2654864999999944,
          "durationTicks": 64,
          "midi": 54,
          "name": "F#3",
          "ticks": 26368,
          "time": 109.38043800000001,
          "velocity": 0.3937007874015748
        },
        {
          "duration": 0.2654864999999944,
          "durationTicks": 64,
          "midi": 54,
          "name": "F#3",
          "ticks": 26368,
          "time": 109.38043800000001,
          "velocity": 0.3937007874015748
        },
        {
          "duration": 0.2654864999999944,
          "durationTicks": 64,
          "midi": 66,
          "name": "F#4",
          "ticks": 26432,
          "time": 109.6459245,
          "velocity": 0.3937007874015748
        },
        {
          "duration": 0.2654864999999944,
          "durationTicks": 64,
          "midi": 49,
          "name": "C#3",
          "ticks": 26432,
          "time": 109.6459245,
          "velocity": 0.3937007874015748
        },
        {
          "duration": 0.2654864999999944,
          "durationTicks": 64,
          "midi": 66,
          "name": "F#4",
          "ticks": 26432,
          "time": 109.6459245,
          "velocity": 0.3937007874015748
        },
        {
          "duration": 0.530973000000003,
          "durationTicks": 128,
          "midi": 73,
          "name": "C#5",
          "ticks": 26496,
          "time": 109.911411,
          "velocity": 0.3937007874015748
        },
        {
          "duration": 0.3982297499999987,
          "durationTicks": 96,
          "midi": 51,
          "name": "D#3",
          "ticks": 26496,
          "time": 109.911411,
          "velocity": 0.3937007874015748
        },
        {
          "duration": 0.530973000000003,
          "durationTicks": 128,
          "midi": 73,
          "name": "C#5",
          "ticks": 26496,
          "time": 109.911411,
          "velocity": 0.3937007874015748
        },
        {
          "duration": 0.530973000000003,
          "durationTicks": 128,
          "midi": 46,
          "name": "A#2",
          "ticks": 26496,
          "time": 109.911411,
          "velocity": 0.3937007874015748
        },
        {
          "duration": 0.530973000000003,
          "durationTicks": 128,
          "midi": 73,
          "name": "C#5",
          "ticks": 26496,
          "time": 109.911411,
          "velocity": 0.3937007874015748
        },
        {
          "duration": 0.530973000000003,
          "durationTicks": 128,
          "midi": 63,
          "name": "D#4",
          "ticks": 26496,
          "time": 109.911411,
          "velocity": 0.3937007874015748
        },
        {
          "duration": 0.530973000000003,
          "durationTicks": 128,
          "midi": 54,
          "name": "F#3",
          "ticks": 26496,
          "time": 109.911411,
          "velocity": 0.3937007874015748
        },
        {
          "duration": 0.1327432500000043,
          "durationTicks": 32,
          "midi": 51,
          "name": "D#3",
          "ticks": 26592,
          "time": 110.30964075,
          "velocity": 0.3937007874015748
        },
        {
          "duration": 1.5929189999999949,
          "durationTicks": 384,
          "midi": 63,
          "name": "D#4",
          "ticks": 26624,
          "time": 110.442384,
          "velocity": 0.3937007874015748
        },
        {
          "duration": 0.530973000000003,
          "durationTicks": 128,
          "midi": 71,
          "name": "B4",
          "ticks": 26624,
          "time": 110.442384,
          "velocity": 0.3937007874015748
        },
        {
          "duration": 0.530973000000003,
          "durationTicks": 128,
          "midi": 71,
          "name": "B4",
          "ticks": 26624,
          "time": 110.442384,
          "velocity": 0.3937007874015748
        },
        {
          "duration": 0.530973000000003,
          "durationTicks": 128,
          "midi": 71,
          "name": "B4",
          "ticks": 26624,
          "time": 110.442384,
          "velocity": 0.3937007874015748
        },
        {
          "duration": 1.1946892499999962,
          "durationTicks": 288,
          "midi": 56,
          "name": "G#3",
          "ticks": 26624,
          "time": 110.442384,
          "velocity": 0.3937007874015748
        },
        {
          "duration": 0.2654865000000086,
          "durationTicks": 64,
          "midi": 51,
          "name": "D#3",
          "ticks": 26624,
          "time": 110.442384,
          "velocity": 0.3937007874015748
        },
        {
          "duration": 1.3274325000000005,
          "durationTicks": 320,
          "midi": 47,
          "name": "B2",
          "ticks": 26624,
          "time": 110.442384,
          "velocity": 0.3937007874015748
        },
        {
          "duration": 0.5309729999999888,
          "durationTicks": 128,
          "midi": 44,
          "name": "G#2",
          "ticks": 26688,
          "time": 110.70787050000001,
          "velocity": 0.3937007874015748
        },
        {
          "duration": 0.1327432500000043,
          "durationTicks": 32,
          "midi": 54,
          "name": "F#3",
          "ticks": 26816,
          "time": 111.2388435,
          "velocity": 0.3937007874015748
        },
        {
          "duration": 0.2654865000000086,
          "durationTicks": 64,
          "midi": 44,
          "name": "G#2",
          "ticks": 26816,
          "time": 111.2388435,
          "velocity": 0.3937007874015748
        },
        {
          "duration": 0.1327432500000043,
          "durationTicks": 32,
          "midi": 54,
          "name": "F#3",
          "ticks": 26816,
          "time": 111.2388435,
          "velocity": 0.3937007874015748
        },
        {
          "duration": 0.1327432500000043,
          "durationTicks": 32,
          "midi": 66,
          "name": "F#4",
          "ticks": 26816,
          "time": 111.2388435,
          "velocity": 0.3937007874015748
        },
        {
          "duration": 0.1327432500000043,
          "durationTicks": 32,
          "midi": 54,
          "name": "F#3",
          "ticks": 26848,
          "time": 111.37158675,
          "velocity": 0.3937007874015748
        },
        {
          "duration": 0.1327432500000043,
          "durationTicks": 32,
          "midi": 66,
          "name": "F#4",
          "ticks": 26848,
          "time": 111.37158675,
          "velocity": 0.3937007874015748
        },
        {
          "duration": 0.1327432500000043,
          "durationTicks": 32,
          "midi": 54,
          "name": "F#3",
          "ticks": 26848,
          "time": 111.37158675,
          "velocity": 0.3937007874015748
        },
        {
          "duration": 0.2654864999999944,
          "durationTicks": 64,
          "midi": 47,
          "name": "B2",
          "ticks": 26880,
          "time": 111.50433000000001,
          "velocity": 0.3937007874015748
        },
        {
          "duration": 0.1327432499999901,
          "durationTicks": 32,
          "midi": 68,
          "name": "G#4",
          "ticks": 26880,
          "time": 111.50433000000001,
          "velocity": 0.3937007874015748
        },
        {
          "duration": 0.1327432499999901,
          "durationTicks": 32,
          "midi": 56,
          "name": "G#3",
          "ticks": 26880,
          "time": 111.50433000000001,
          "velocity": 0.3937007874015748
        },
        {
          "duration": 0.1327432499999901,
          "durationTicks": 32,
          "midi": 66,
          "name": "F#4",
          "ticks": 26880,
          "time": 111.50433000000001,
          "velocity": 0.3937007874015748
        },
        {
          "duration": 0.1327432499999901,
          "durationTicks": 32,
          "midi": 66,
          "name": "F#4",
          "ticks": 26880,
          "time": 111.50433000000001,
          "velocity": 0.3937007874015748
        },
        {
          "duration": 0.1327432499999901,
          "durationTicks": 32,
          "midi": 56,
          "name": "G#3",
          "ticks": 26880,
          "time": 111.50433000000001,
          "velocity": 0.3937007874015748
        },
        {
          "duration": 0.1327432500000043,
          "durationTicks": 32,
          "midi": 68,
          "name": "G#4",
          "ticks": 26912,
          "time": 111.63707325,
          "velocity": 0.3937007874015748
        },
        {
          "duration": 0.1327432500000043,
          "durationTicks": 32,
          "midi": 68,
          "name": "G#4",
          "ticks": 26912,
          "time": 111.63707325,
          "velocity": 0.3937007874015748
        },
        {
          "duration": 0.2654865000000086,
          "durationTicks": 64,
          "midi": 59,
          "name": "B3",
          "ticks": 26912,
          "time": 111.63707325,
          "velocity": 0.3937007874015748
        },
        {
          "duration": 0.2654865000000086,
          "durationTicks": 64,
          "midi": 71,
          "name": "B4",
          "ticks": 26912,
          "time": 111.63707325,
          "velocity": 0.3937007874015748
        },
        {
          "duration": 0.2654865000000086,
          "durationTicks": 64,
          "midi": 59,
          "name": "B3",
          "ticks": 26912,
          "time": 111.63707325,
          "velocity": 0.3937007874015748
        },
        {
          "duration": 0.1327432500000043,
          "durationTicks": 32,
          "midi": 71,
          "name": "B4",
          "ticks": 26944,
          "time": 111.7698165,
          "velocity": 0.3937007874015748
        },
        {
          "duration": 0.1327432500000043,
          "durationTicks": 32,
          "midi": 71,
          "name": "B4",
          "ticks": 26944,
          "time": 111.7698165,
          "velocity": 0.3937007874015748
        },
        {
          "duration": 0.2654864999999944,
          "durationTicks": 64,
          "midi": 51,
          "name": "D#3",
          "ticks": 26944,
          "time": 111.7698165,
          "velocity": 0.3937007874015748
        },
        {
          "duration": 0.1327432499999901,
          "durationTicks": 32,
          "midi": 68,
          "name": "G#4",
          "ticks": 26976,
          "time": 111.90255975000001,
          "velocity": 0.3937007874015748
        },
        {
          "duration": 0.1327432499999901,
          "durationTicks": 32,
          "midi": 59,
          "name": "B3",
          "ticks": 26976,
          "time": 111.90255975000001,
          "velocity": 0.3937007874015748
        },
        {
          "duration": 0.1327432499999901,
          "durationTicks": 32,
          "midi": 59,
          "name": "B3",
          "ticks": 26976,
          "time": 111.90255975000001,
          "velocity": 0.3937007874015748
        },
        {
          "duration": 0.1327432499999901,
          "durationTicks": 32,
          "midi": 68,
          "name": "G#4",
          "ticks": 26976,
          "time": 111.90255975000001,
          "velocity": 0.3937007874015748
        },
        {
          "duration": 0.1327432499999901,
          "durationTicks": 32,
          "midi": 71,
          "name": "B4",
          "ticks": 26976,
          "time": 111.90255975000001,
          "velocity": 0.3937007874015748
        },
        {
          "duration": 0.7964595000000116,
          "durationTicks": 192,
          "midi": 59,
          "name": "B3",
          "ticks": 27008,
          "time": 112.035303,
          "velocity": 0.3937007874015748
        },
        {
          "duration": 0.7964595000000116,
          "durationTicks": 192,
          "midi": 64,
          "name": "E4",
          "ticks": 27008,
          "time": 112.035303,
          "velocity": 0.3937007874015748
        },
        {
          "duration": 0.3982297500000129,
          "durationTicks": 96,
          "midi": 75,
          "name": "D#5",
          "ticks": 27008,
          "time": 112.035303,
          "velocity": 0.3937007874015748
        },
        {
          "duration": 0.7964595000000116,
          "durationTicks": 192,
          "midi": 59,
          "name": "B3",
          "ticks": 27008,
          "time": 112.035303,
          "velocity": 0.3937007874015748
        },
        {
          "duration": 0.7964595000000116,
          "durationTicks": 192,
          "midi": 56,
          "name": "G#3",
          "ticks": 27008,
          "time": 112.035303,
          "velocity": 0.3937007874015748
        },
        {
          "duration": 0.3982297500000129,
          "durationTicks": 96,
          "midi": 75,
          "name": "D#5",
          "ticks": 27008,
          "time": 112.035303,
          "velocity": 0.3937007874015748
        },
        {
          "duration": 0.7964595000000116,
          "durationTicks": 192,
          "midi": 71,
          "name": "B4",
          "ticks": 27008,
          "time": 112.035303,
          "velocity": 0.3937007874015748
        },
        {
          "duration": 0.3982297500000129,
          "durationTicks": 96,
          "midi": 52,
          "name": "E3",
          "ticks": 27008,
          "time": 112.035303,
          "velocity": 0.3937007874015748
        },
        {
          "duration": 0.7964595000000116,
          "durationTicks": 192,
          "midi": 47,
          "name": "B2",
          "ticks": 27008,
          "time": 112.035303,
          "velocity": 0.3937007874015748
        },
        {
          "duration": 0.3982297499999987,
          "durationTicks": 96,
          "midi": 75,
          "name": "D#5",
          "ticks": 27104,
          "time": 112.43353275000001,
          "velocity": 0.3937007874015748
        },
        {
          "duration": 0.3982297499999987,
          "durationTicks": 96,
          "midi": 75,
          "name": "D#5",
          "ticks": 27104,
          "time": 112.43353275000001,
          "velocity": 0.3937007874015748
        },
        {
          "duration": 0.1327432499999901,
          "durationTicks": 32,
          "midi": 52,
          "name": "E3",
          "ticks": 27104,
          "time": 112.43353275000001,
          "velocity": 0.3937007874015748
        },
        {
          "duration": 0.2654865000000086,
          "durationTicks": 64,
          "midi": 52,
          "name": "E3",
          "ticks": 27136,
          "time": 112.566276,
          "velocity": 0.3937007874015748
        },
        {
          "duration": 0.7964594999999974,
          "durationTicks": 192,
          "midi": 73,
          "name": "C#5",
          "ticks": 27200,
          "time": 112.83176250000001,
          "velocity": 0.3937007874015748
        },
        {
          "duration": 0.7964594999999974,
          "durationTicks": 192,
          "midi": 73,
          "name": "C#5",
          "ticks": 27200,
          "time": 112.83176250000001,
          "velocity": 0.3937007874015748
        },
        {
          "duration": 0.9292027500000017,
          "durationTicks": 224,
          "midi": 66,
          "name": "F#4",
          "ticks": 27200,
          "time": 112.83176250000001,
          "velocity": 0.3937007874015748
        },
        {
          "duration": 1.3274325000000005,
          "durationTicks": 320,
          "midi": 49,
          "name": "C#3",
          "ticks": 27200,
          "time": 112.83176250000001,
          "velocity": 0.3937007874015748
        },
        {
          "duration": 0.7964594999999974,
          "durationTicks": 192,
          "midi": 61,
          "name": "C#4",
          "ticks": 27200,
          "time": 112.83176250000001,
          "velocity": 0.3937007874015748
        },
        {
          "duration": 0.7964594999999974,
          "durationTicks": 192,
          "midi": 61,
          "name": "C#4",
          "ticks": 27200,
          "time": 112.83176250000001,
          "velocity": 0.3937007874015748
        },
        {
          "duration": 0.5309729999999888,
          "durationTicks": 128,
          "midi": 54,
          "name": "F#3",
          "ticks": 27200,
          "time": 112.83176250000001,
          "velocity": 0.3937007874015748
        },
        {
          "duration": 1.3274325000000005,
          "durationTicks": 320,
          "midi": 58,
          "name": "A#3",
          "ticks": 27200,
          "time": 112.83176250000001,
          "velocity": 0.3937007874015748
        },
        {
          "duration": 0.2654865000000086,
          "durationTicks": 64,
          "midi": 54,
          "name": "F#3",
          "ticks": 27328,
          "time": 113.3627355,
          "velocity": 0.3937007874015748
        },
        {
          "duration": 0.2654864999999944,
          "durationTicks": 64,
          "midi": 54,
          "name": "F#3",
          "ticks": 27392,
          "time": 113.62822200000001,
          "velocity": 0.3937007874015748
        },
        {
          "duration": 0.2654864999999944,
          "durationTicks": 64,
          "midi": 54,
          "name": "F#3",
          "ticks": 27392,
          "time": 113.62822200000001,
          "velocity": 0.3937007874015748
        },
        {
          "duration": 0.1327432500000043,
          "durationTicks": 32,
          "midi": 66,
          "name": "F#4",
          "ticks": 27392,
          "time": 113.62822200000001,
          "velocity": 0.3937007874015748
        },
        {
          "duration": 0.1327432500000043,
          "durationTicks": 32,
          "midi": 66,
          "name": "F#4",
          "ticks": 27392,
          "time": 113.62822200000001,
          "velocity": 0.3937007874015748
        },
        {
          "duration": 0.2654864999999944,
          "durationTicks": 64,
          "midi": 54,
          "name": "F#3",
          "ticks": 27392,
          "time": 113.62822200000001,
          "velocity": 0.3937007874015748
        },
        {
          "duration": 0.1327432499999901,
          "durationTicks": 32,
          "midi": 68,
          "name": "G#4",
          "ticks": 27424,
          "time": 113.76096525000001,
          "velocity": 0.3937007874015748
        },
        {
          "duration": 0.1327432499999901,
          "durationTicks": 32,
          "midi": 68,
          "name": "G#4",
          "ticks": 27424,
          "time": 113.76096525000001,
          "velocity": 0.3937007874015748
        },
        {
          "duration": 0.1327432500000043,
          "durationTicks": 32,
          "midi": 71,
          "name": "B4",
          "ticks": 27456,
          "time": 113.8937085,
          "velocity": 0.3937007874015748
        },
        {
          "duration": 0.1327432500000043,
          "durationTicks": 32,
          "midi": 71,
          "name": "B4",
          "ticks": 27456,
          "time": 113.8937085,
          "velocity": 0.3937007874015748
        },
        {
          "duration": 0.2654865000000086,
          "durationTicks": 64,
          "midi": 54,
          "name": "F#3",
          "ticks": 27456,
          "time": 113.8937085,
          "velocity": 0.3937007874015748
        },
        {
          "duration": 0.1327432500000043,
          "durationTicks": 32,
          "midi": 68,
          "name": "G#4",
          "ticks": 27488,
          "time": 114.02645175,
          "velocity": 0.3937007874015748
        },
        {
          "duration": 0.1327432500000043,
          "durationTicks": 32,
          "midi": 68,
          "name": "G#4",
          "ticks": 27488,
          "time": 114.02645175,
          "velocity": 0.3937007874015748
        },
        {
          "duration": 0.7964594999999974,
          "durationTicks": 192,
          "midi": 66,
          "name": "F#4",
          "ticks": 27520,
          "time": 114.15919500000001,
          "velocity": 0.3937007874015748
        },
        {
          "duration": 0.7964594999999974,
          "durationTicks": 192,
          "midi": 61,
          "name": "C#4",
          "ticks": 27520,
          "time": 114.15919500000001,
          "velocity": 0.3937007874015748
        },
        {
          "duration": 0.7964594999999974,
          "durationTicks": 192,
          "midi": 61,
          "name": "C#4",
          "ticks": 27520,
          "time": 114.15919500000001,
          "velocity": 0.3937007874015748
        },
        {
          "duration": 0.7964594999999974,
          "durationTicks": 192,
          "midi": 58,
          "name": "A#3",
          "ticks": 27520,
          "time": 114.15919500000001,
          "velocity": 0.3937007874015748
        },
        {
          "duration": 0.3982297499999987,
          "durationTicks": 96,
          "midi": 51,
          "name": "D#3",
          "ticks": 27520,
          "time": 114.15919500000001,
          "velocity": 0.3937007874015748
        },
        {
          "duration": 0.3982297499999987,
          "durationTicks": 96,
          "midi": 51,
          "name": "D#3",
          "ticks": 27520,
          "time": 114.15919500000001,
          "velocity": 0.3937007874015748
        },
        {
          "duration": 0.1327432499999901,
          "durationTicks": 32,
          "midi": 51,
          "name": "D#3",
          "ticks": 27616,
          "time": 114.55742475000001,
          "velocity": 0.3937007874015748
        },
        {
          "duration": 0.2654865000000086,
          "durationTicks": 64,
          "midi": 70,
          "name": "A#4",
          "ticks": 27648,
          "time": 114.690168,
          "velocity": 0.3937007874015748
        },
        {
          "duration": 0.2654865000000086,
          "durationTicks": 64,
          "midi": 70,
          "name": "A#4",
          "ticks": 27648,
          "time": 114.690168,
          "velocity": 0.3937007874015748
        },
        {
          "duration": 0.2654865000000086,
          "durationTicks": 64,
          "midi": 70,
          "name": "A#4",
          "ticks": 27648,
          "time": 114.690168,
          "velocity": 0.3937007874015748
        },
        {
          "duration": 0.2654865000000086,
          "durationTicks": 64,
          "midi": 51,
          "name": "D#3",
          "ticks": 27648,
          "time": 114.690168,
          "velocity": 0.3937007874015748
        },
        {
          "duration": 0.3982297499999987,
          "durationTicks": 96,
          "midi": 71,
          "name": "B4",
          "ticks": 27712,
          "time": 114.95565450000001,
          "velocity": 0.3937007874015748
        },
        {
          "duration": 0.7964594999999974,
          "durationTicks": 192,
          "midi": 68,
          "name": "G#4",
          "ticks": 27712,
          "time": 114.95565450000001,
          "velocity": 0.3937007874015748
        },
        {
          "duration": 0.3982297499999987,
          "durationTicks": 96,
          "midi": 71,
          "name": "B4",
          "ticks": 27712,
          "time": 114.95565450000001,
          "velocity": 0.3937007874015748
        },
        {
          "duration": 0.7964594999999974,
          "durationTicks": 192,
          "midi": 63,
          "name": "D#4",
          "ticks": 27712,
          "time": 114.95565450000001,
          "velocity": 0.3937007874015748
        },
        {
          "duration": 0.3982297499999987,
          "durationTicks": 96,
          "midi": 71,
          "name": "B4",
          "ticks": 27712,
          "time": 114.95565450000001,
          "velocity": 0.3937007874015748
        },
        {
          "duration": 1.3274325000000005,
          "durationTicks": 320,
          "midi": 59,
          "name": "B3",
          "ticks": 27712,
          "time": 114.95565450000001,
          "velocity": 0.3937007874015748
        },
        {
          "duration": 1.3274325000000005,
          "durationTicks": 320,
          "midi": 51,
          "name": "D#3",
          "ticks": 27712,
          "time": 114.95565450000001,
          "velocity": 0.3937007874015748
        },
        {
          "duration": 0.530973000000003,
          "durationTicks": 128,
          "midi": 44,
          "name": "G#2",
          "ticks": 27712,
          "time": 114.95565450000001,
          "velocity": 0.3937007874015748
        },
        {
          "duration": 0.7964594999999974,
          "durationTicks": 192,
          "midi": 63,
          "name": "D#4",
          "ticks": 27712,
          "time": 114.95565450000001,
          "velocity": 0.3937007874015748
        },
        {
          "duration": 0.1327432500000043,
          "durationTicks": 32,
          "midi": 70,
          "name": "A#4",
          "ticks": 27808,
          "time": 115.35388425000001,
          "velocity": 0.3937007874015748
        },
        {
          "duration": 0.1327432500000043,
          "durationTicks": 32,
          "midi": 70,
          "name": "A#4",
          "ticks": 27808,
          "time": 115.35388425000001,
          "velocity": 0.3937007874015748
        },
        {
          "duration": 0.1327432500000043,
          "durationTicks": 32,
          "midi": 70,
          "name": "A#4",
          "ticks": 27808,
          "time": 115.35388425000001,
          "velocity": 0.3937007874015748
        },
        {
          "duration": 0.2654864999999944,
          "durationTicks": 64,
          "midi": 44,
          "name": "G#2",
          "ticks": 27840,
          "time": 115.48662750000001,
          "velocity": 0.3937007874015748
        },
        {
          "duration": 0.2654864999999944,
          "durationTicks": 64,
          "midi": 68,
          "name": "G#4",
          "ticks": 27840,
          "time": 115.48662750000001,
          "velocity": 0.3937007874015748
        },
        {
          "duration": 0.2654864999999944,
          "durationTicks": 64,
          "midi": 68,
          "name": "G#4",
          "ticks": 27840,
          "time": 115.48662750000001,
          "velocity": 0.3937007874015748
        },
        {
          "duration": 0.2654864999999944,
          "durationTicks": 64,
          "midi": 68,
          "name": "G#4",
          "ticks": 27840,
          "time": 115.48662750000001,
          "velocity": 0.3937007874015748
        },
        {
          "duration": 0.1327432500000043,
          "durationTicks": 32,
          "midi": 66,
          "name": "F#4",
          "ticks": 27904,
          "time": 115.752114,
          "velocity": 0.3937007874015748
        },
        {
          "duration": 0.2654864999999944,
          "durationTicks": 64,
          "midi": 44,
          "name": "G#2",
          "ticks": 27904,
          "time": 115.752114,
          "velocity": 0.3937007874015748
        },
        {
          "duration": 0.1327432500000043,
          "durationTicks": 32,
          "midi": 66,
          "name": "F#4",
          "ticks": 27904,
          "time": 115.752114,
          "velocity": 0.3937007874015748
        },
        {
          "duration": 0.1327432500000043,
          "durationTicks": 32,
          "midi": 66,
          "name": "F#4",
          "ticks": 27904,
          "time": 115.752114,
          "velocity": 0.3937007874015748
        },
        {
          "duration": 0.1327432500000043,
          "durationTicks": 32,
          "midi": 66,
          "name": "F#4",
          "ticks": 27904,
          "time": 115.752114,
          "velocity": 0.3937007874015748
        },
        {
          "duration": 0.1327432499999901,
          "durationTicks": 32,
          "midi": 64,
          "name": "E4",
          "ticks": 27936,
          "time": 115.88485725000001,
          "velocity": 0.3937007874015748
        },
        {
          "duration": 0.1327432499999901,
          "durationTicks": 32,
          "midi": 68,
          "name": "G#4",
          "ticks": 27936,
          "time": 115.88485725000001,
          "velocity": 0.3937007874015748
        },
        {
          "duration": 0.1327432499999901,
          "durationTicks": 32,
          "midi": 68,
          "name": "G#4",
          "ticks": 27936,
          "time": 115.88485725000001,
          "velocity": 0.3937007874015748
        },
        {
          "duration": 0.1327432499999901,
          "durationTicks": 32,
          "midi": 64,
          "name": "E4",
          "ticks": 27936,
          "time": 115.88485725000001,
          "velocity": 0.3937007874015748
        },
        {
          "duration": 0.2654865000000086,
          "durationTicks": 64,
          "midi": 44,
          "name": "G#2",
          "ticks": 27968,
          "time": 116.0176005,
          "velocity": 0.3937007874015748
        },
        {
          "duration": 0.2654865000000086,
          "durationTicks": 64,
          "midi": 63,
          "name": "D#4",
          "ticks": 27968,
          "time": 116.0176005,
          "velocity": 0.3937007874015748
        },
        {
          "duration": 0.2654865000000086,
          "durationTicks": 64,
          "midi": 63,
          "name": "D#4",
          "ticks": 27968,
          "time": 116.0176005,
          "velocity": 0.3937007874015748
        },
        {
          "duration": 0.1327432500000043,
          "durationTicks": 32,
          "midi": 71,
          "name": "B4",
          "ticks": 27968,
          "time": 116.0176005,
          "velocity": 0.3937007874015748
        },
        {
          "duration": 0.1327432500000043,
          "durationTicks": 32,
          "midi": 71,
          "name": "B4",
          "ticks": 27968,
          "time": 116.0176005,
          "velocity": 0.3937007874015748
        },
        {
          "duration": 0.1327432500000043,
          "durationTicks": 32,
          "midi": 68,
          "name": "G#4",
          "ticks": 28000,
          "time": 116.15034375,
          "velocity": 0.3937007874015748
        },
        {
          "duration": 0.1327432500000043,
          "durationTicks": 32,
          "midi": 68,
          "name": "G#4",
          "ticks": 28000,
          "time": 116.15034375,
          "velocity": 0.3937007874015748
        },
        {
          "duration": 0.7964594999999974,
          "durationTicks": 192,
          "midi": 59,
          "name": "B3",
          "ticks": 28032,
          "time": 116.28308700000001,
          "velocity": 0.3937007874015748
        },
        {
          "duration": 0.530973000000003,
          "durationTicks": 128,
          "midi": 71,
          "name": "B4",
          "ticks": 28032,
          "time": 116.28308700000001,
          "velocity": 0.3937007874015748
        },
        {
          "duration": 0.530973000000003,
          "durationTicks": 128,
          "midi": 71,
          "name": "B4",
          "ticks": 28032,
          "time": 116.28308700000001,
          "velocity": 0.3937007874015748
        },
        {
          "duration": 0.7964594999999974,
          "durationTicks": 192,
          "midi": 68,
          "name": "G#4",
          "ticks": 28032,
          "time": 116.28308700000001,
          "velocity": 0.3937007874015748
        },
        {
          "duration": 0.7964594999999974,
          "durationTicks": 192,
          "midi": 61,
          "name": "C#4",
          "ticks": 28032,
          "time": 116.28308700000001,
          "velocity": 0.3937007874015748
        },
        {
          "duration": 0.7964594999999974,
          "durationTicks": 192,
          "midi": 59,
          "name": "B3",
          "ticks": 28032,
          "time": 116.28308700000001,
          "velocity": 0.3937007874015748
        },
        {
          "duration": 0.3982297499999987,
          "durationTicks": 96,
          "midi": 52,
          "name": "E3",
          "ticks": 28032,
          "time": 116.28308700000001,
          "velocity": 0.3937007874015748
        },
        {
          "duration": 0.3982297499999987,
          "durationTicks": 96,
          "midi": 52,
          "name": "E3",
          "ticks": 28032,
          "time": 116.28308700000001,
          "velocity": 0.3937007874015748
        },
        {
          "duration": 0.1327432500000043,
          "durationTicks": 32,
          "midi": 52,
          "name": "E3",
          "ticks": 28128,
          "time": 116.68131675000001,
          "velocity": 0.3937007874015748
        },
        {
          "duration": 0.2654864999999944,
          "durationTicks": 64,
          "midi": 73,
          "name": "C#5",
          "ticks": 28160,
          "time": 116.81406000000001,
          "velocity": 0.3937007874015748
        },
        {
          "duration": 0.2654864999999944,
          "durationTicks": 64,
          "midi": 52,
          "name": "E3",
          "ticks": 28160,
          "time": 116.81406000000001,
          "velocity": 0.3937007874015748
        },
        {
          "duration": 0.2654864999999944,
          "durationTicks": 64,
          "midi": 73,
          "name": "C#5",
          "ticks": 28160,
          "time": 116.81406000000001,
          "velocity": 0.3937007874015748
        },
        {
          "duration": 0.7964594999999974,
          "durationTicks": 192,
          "midi": 61,
          "name": "C#4",
          "ticks": 28224,
          "time": 117.0795465,
          "velocity": 0.3937007874015748
        },
        {
          "duration": 0.7964594999999974,
          "durationTicks": 192,
          "midi": 61,
          "name": "C#4",
          "ticks": 28224,
          "time": 117.0795465,
          "velocity": 0.3937007874015748
        },
        {
          "duration": 0.3982297499999987,
          "durationTicks": 96,
          "midi": 70,
          "name": "A#4",
          "ticks": 28224,
          "time": 117.0795465,
          "velocity": 0.3937007874015748
        },
        {
          "duration": 0.7964594999999974,
          "durationTicks": 192,
          "midi": 61,
          "name": "C#4",
          "ticks": 28224,
          "time": 117.0795465,
          "velocity": 0.3937007874015748
        },
        {
          "duration": 0.530973000000003,
          "durationTicks": 128,
          "midi": 54,
          "name": "F#3",
          "ticks": 28224,
          "time": 117.0795465,
          "velocity": 0.3937007874015748
        },
        {
          "duration": 0.530973000000003,
          "durationTicks": 128,
          "midi": 54,
          "name": "F#3",
          "ticks": 28224,
          "time": 117.0795465,
          "velocity": 0.3937007874015748
        },
        {
          "duration": 0.3982297499999987,
          "durationTicks": 96,
          "midi": 70,
          "name": "A#4",
          "ticks": 28224,
          "time": 117.0795465,
          "velocity": 0.3937007874015748
        },
        {
          "duration": 0.3982297499999987,
          "durationTicks": 96,
          "midi": 70,
          "name": "A#4",
          "ticks": 28224,
          "time": 117.0795465,
          "velocity": 0.3937007874015748
        },
        {
          "duration": 0.1327432500000043,
          "durationTicks": 32,
          "midi": 68,
          "name": "G#4",
          "ticks": 28320,
          "time": 117.47777625,
          "velocity": 0.3937007874015748
        },
        {
          "duration": 0.1327432500000043,
          "durationTicks": 32,
          "midi": 68,
          "name": "G#4",
          "ticks": 28320,
          "time": 117.47777625,
          "velocity": 0.3937007874015748
        },
        {
          "duration": 0.2654864999999944,
          "durationTicks": 64,
          "midi": 49,
          "name": "C#3",
          "ticks": 28352,
          "time": 117.61051950000001,
          "velocity": 0.3937007874015748
        },
        {
          "duration": 0.530973000000003,
          "durationTicks": 128,
          "midi": 66,
          "name": "F#4",
          "ticks": 28352,
          "time": 117.61051950000001,
          "velocity": 0.3937007874015748
        },
        {
          "duration": 0.530973000000003,
          "durationTicks": 128,
          "midi": 66,
          "name": "F#4",
          "ticks": 28352,
          "time": 117.61051950000001,
          "velocity": 0.3937007874015748
        },
        {
          "duration": 0.2654865000000086,
          "durationTicks": 64,
          "midi": 54,
          "name": "F#3",
          "ticks": 28416,
          "time": 117.876006,
          "velocity": 0.3937007874015748
        },
        {
          "duration": 0.2654865000000086,
          "durationTicks": 64,
          "midi": 54,
          "name": "F#3",
          "ticks": 28416,
          "time": 117.876006,
          "velocity": 0.3937007874015748
        },
        {
          "duration": 0.2654865000000086,
          "durationTicks": 64,
          "midi": 54,
          "name": "F#3",
          "ticks": 28416,
          "time": 117.876006,
          "velocity": 0.3937007874015748
        },
        {
          "duration": 0.2654864999999944,
          "durationTicks": 64,
          "midi": 66,
          "name": "F#4",
          "ticks": 28480,
          "time": 118.14149250000001,
          "velocity": 0.3937007874015748
        },
        {
          "duration": 0.2654864999999944,
          "durationTicks": 64,
          "midi": 66,
          "name": "F#4",
          "ticks": 28480,
          "time": 118.14149250000001,
          "velocity": 0.3937007874015748
        },
        {
          "duration": 0.2654864999999944,
          "durationTicks": 64,
          "midi": 49,
          "name": "C#3",
          "ticks": 28480,
          "time": 118.14149250000001,
          "velocity": 0.3937007874015748
        },
        {
          "duration": 0.530973000000003,
          "durationTicks": 128,
          "midi": 73,
          "name": "C#5",
          "ticks": 28544,
          "time": 118.406979,
          "velocity": 0.3937007874015748
        },
        {
          "duration": 0.3982297499999987,
          "durationTicks": 96,
          "midi": 51,
          "name": "D#3",
          "ticks": 28544,
          "time": 118.406979,
          "velocity": 0.3937007874015748
        },
        {
          "duration": 0.530973000000003,
          "durationTicks": 128,
          "midi": 73,
          "name": "C#5",
          "ticks": 28544,
          "time": 118.406979,
          "velocity": 0.3937007874015748
        },
        {
          "duration": 0.530973000000003,
          "durationTicks": 128,
          "midi": 54,
          "name": "F#3",
          "ticks": 28544,
          "time": 118.406979,
          "velocity": 0.3937007874015748
        },
        {
          "duration": 0.530973000000003,
          "durationTicks": 128,
          "midi": 73,
          "name": "C#5",
          "ticks": 28544,
          "time": 118.406979,
          "velocity": 0.3937007874015748
        },
        {
          "duration": 0.2654864999999944,
          "durationTicks": 64,
          "midi": 58,
          "name": "A#3",
          "ticks": 28544,
          "time": 118.406979,
          "velocity": 0.3937007874015748
        },
        {
          "duration": 0.530973000000003,
          "durationTicks": 128,
          "midi": 70,
          "name": "A#4",
          "ticks": 28544,
          "time": 118.406979,
          "velocity": 0.3937007874015748
        },
        {
          "duration": 0.2654864999999944,
          "durationTicks": 64,
          "midi": 58,
          "name": "A#3",
          "ticks": 28544,
          "time": 118.406979,
          "velocity": 0.3937007874015748
        },
        {
          "duration": 0.530973000000003,
          "durationTicks": 128,
          "midi": 63,
          "name": "D#4",
          "ticks": 28544,
          "time": 118.406979,
          "velocity": 0.3937007874015748
        },
        {
          "duration": 0.2654865000000086,
          "durationTicks": 64,
          "midi": 59,
          "name": "B3",
          "ticks": 28608,
          "time": 118.6724655,
          "velocity": 0.3937007874015748
        },
        {
          "duration": 0.2654865000000086,
          "durationTicks": 64,
          "midi": 59,
          "name": "B3",
          "ticks": 28608,
          "time": 118.6724655,
          "velocity": 0.3937007874015748
        },
        {
          "duration": 0.1327432500000043,
          "durationTicks": 32,
          "midi": 51,
          "name": "D#3",
          "ticks": 28640,
          "time": 118.80520875,
          "velocity": 0.3937007874015748
        },
        {
          "duration": 0.530973000000003,
          "durationTicks": 128,
          "midi": 71,
          "name": "B4",
          "ticks": 28672,
          "time": 118.93795200000001,
          "velocity": 0.3937007874015748
        },
        {
          "duration": 0.530973000000003,
          "durationTicks": 128,
          "midi": 71,
          "name": "B4",
          "ticks": 28672,
          "time": 118.93795200000001,
          "velocity": 0.3937007874015748
        },
        {
          "duration": 1.0619459999999918,
          "durationTicks": 256,
          "midi": 63,
          "name": "D#4",
          "ticks": 28672,
          "time": 118.93795200000001,
          "velocity": 0.3937007874015748
        },
        {
          "duration": 0.530973000000003,
          "durationTicks": 128,
          "midi": 71,
          "name": "B4",
          "ticks": 28672,
          "time": 118.93795200000001,
          "velocity": 0.3937007874015748
        },
        {
          "duration": 0.530973000000003,
          "durationTicks": 128,
          "midi": 59,
          "name": "B3",
          "ticks": 28672,
          "time": 118.93795200000001,
          "velocity": 0.3937007874015748
        },
        {
          "duration": 0.530973000000003,
          "durationTicks": 128,
          "midi": 71,
          "name": "B4",
          "ticks": 28672,
          "time": 118.93795200000001,
          "velocity": 0.3937007874015748
        },
        {
          "duration": 0.530973000000003,
          "durationTicks": 128,
          "midi": 59,
          "name": "B3",
          "ticks": 28672,
          "time": 118.93795200000001,
          "velocity": 0.3937007874015748
        },
        {
          "duration": 1.0619459999999918,
          "durationTicks": 256,
          "midi": 56,
          "name": "G#3",
          "ticks": 28672,
          "time": 118.93795200000001,
          "velocity": 0.3937007874015748
        },
        {
          "duration": 0.2654864999999944,
          "durationTicks": 64,
          "midi": 44,
          "name": "G#2",
          "ticks": 28672,
          "time": 118.93795200000001,
          "velocity": 0.3937007874015748
        },
        {
          "duration": 0.530973000000003,
          "durationTicks": 128,
          "midi": 44,
          "name": "G#2",
          "ticks": 28736,
          "time": 119.2034385,
          "velocity": 0.3937007874015748
        },
        {
          "duration": 0.2654864999999944,
          "durationTicks": 64,
          "midi": 44,
          "name": "G#2",
          "ticks": 28864,
          "time": 119.73441150000001,
          "velocity": 0.3937007874015748
        },
        {
          "duration": 0.2654865000000086,
          "durationTicks": 64,
          "midi": 47,
          "name": "B2",
          "ticks": 28928,
          "time": 119.999898,
          "velocity": 0.3937007874015748
        },
        {
          "duration": 0.1327432500000043,
          "durationTicks": 32,
          "midi": 59,
          "name": "B3",
          "ticks": 28928,
          "time": 119.999898,
          "velocity": 0.3937007874015748
        },
        {
          "duration": 0.1327432500000043,
          "durationTicks": 32,
          "midi": 59,
          "name": "B3",
          "ticks": 28928,
          "time": 119.999898,
          "velocity": 0.3937007874015748
        },
        {
          "duration": 0.2654864999999944,
          "durationTicks": 64,
          "midi": 59,
          "name": "B3",
          "ticks": 28960,
          "time": 120.13264125,
          "velocity": 0.3937007874015748
        },
        {
          "duration": 0.2654864999999944,
          "durationTicks": 64,
          "midi": 59,
          "name": "B3",
          "ticks": 28960,
          "time": 120.13264125,
          "velocity": 0.3937007874015748
        },
        {
          "duration": 0.2654864999999944,
          "durationTicks": 64,
          "midi": 47,
          "name": "B2",
          "ticks": 28992,
          "time": 120.26538450000001,
          "velocity": 0.3937007874015748
        },
        {
          "duration": 0.1327432500000043,
          "durationTicks": 32,
          "midi": 59,
          "name": "B3",
          "ticks": 29024,
          "time": 120.39812775,
          "velocity": 0.3937007874015748
        },
        {
          "duration": 0.1327432500000043,
          "durationTicks": 32,
          "midi": 59,
          "name": "B3",
          "ticks": 29024,
          "time": 120.39812775,
          "velocity": 0.3937007874015748
        }
      ],
      "endOfTrackTicks": 29056
    },
    {
      "channel": 0,
      "controlChanges": {},
      "pitchBends": [],
      "instrument": {
        "family": "piano",
        "name": "acoustic grand piano",
        "number": 0
      },
      "name": "bassdrum_acoustic01.ogg",
      "notes": [
        {
          "duration": 0.5309729999999995,
          "durationTicks": 128,
          "midi": 42,
          "name": "F#2",
          "ticks": 3968,
          "time": 16.460163,
          "velocity": 0.3937007874015748
        },
        {
          "duration": 0.26548649999999796,
          "durationTicks": 64,
          "midi": 42,
          "name": "F#2",
          "ticks": 4160,
          "time": 17.256622500000002,
          "velocity": 0.3937007874015748
        },
        {
          "duration": 0.530973000000003,
          "durationTicks": 128,
          "midi": 42,
          "name": "F#2",
          "ticks": 4480,
          "time": 18.584055,
          "velocity": 0.3937007874015748
        },
        {
          "duration": 0.26548649999999796,
          "durationTicks": 64,
          "midi": 42,
          "name": "F#2",
          "ticks": 4736,
          "time": 19.646001000000002,
          "velocity": 0.3937007874015748
        },
        {
          "duration": 0.2654865000000015,
          "durationTicks": 64,
          "midi": 42,
          "name": "F#2",
          "ticks": 4800,
          "time": 19.9114875,
          "velocity": 0.3937007874015748
        },
        {
          "duration": 0.5309729999999995,
          "durationTicks": 128,
          "midi": 42,
          "name": "F#2",
          "ticks": 4992,
          "time": 20.707947,
          "velocity": 0.3937007874015748
        },
        {
          "duration": 0.2654865000000015,
          "durationTicks": 64,
          "midi": 42,
          "name": "F#2",
          "ticks": 5248,
          "time": 21.769893,
          "velocity": 0.3937007874015748
        },
        {
          "duration": 0.2654865000000015,
          "durationTicks": 64,
          "midi": 42,
          "name": "F#2",
          "ticks": 5312,
          "time": 22.0353795,
          "velocity": 0.3937007874015748
        },
        {
          "duration": 0.5309729999999995,
          "durationTicks": 128,
          "midi": 42,
          "name": "F#2",
          "ticks": 5504,
          "time": 22.831839000000002,
          "velocity": 0.3937007874015748
        },
        {
          "duration": 0.2654865000000015,
          "durationTicks": 64,
          "midi": 42,
          "name": "F#2",
          "ticks": 5760,
          "time": 23.893785,
          "velocity": 0.3937007874015748
        },
        {
          "duration": 0.26548649999999796,
          "durationTicks": 64,
          "midi": 42,
          "name": "F#2",
          "ticks": 5824,
          "time": 24.159271500000003,
          "velocity": 0.3937007874015748
        },
        {
          "duration": 0.13274325000000076,
          "durationTicks": 32,
          "midi": 42,
          "name": "F#2",
          "ticks": 6016,
          "time": 24.955731,
          "velocity": 0.3937007874015748
        },
        {
          "duration": 0.5309729999999995,
          "durationTicks": 128,
          "midi": 42,
          "name": "F#2",
          "ticks": 6528,
          "time": 27.079623,
          "velocity": 0.3937007874015748
        },
        {
          "duration": 0.2654865000000015,
          "durationTicks": 64,
          "midi": 42,
          "name": "F#2",
          "ticks": 6784,
          "time": 28.141569,
          "velocity": 0.3937007874015748
        },
        {
          "duration": 0.26548649999999796,
          "durationTicks": 64,
          "midi": 42,
          "name": "F#2",
          "ticks": 6848,
          "time": 28.407055500000002,
          "velocity": 0.3937007874015748
        },
        {
          "duration": 0.5309729999999995,
          "durationTicks": 128,
          "midi": 42,
          "name": "F#2",
          "ticks": 7040,
          "time": 29.203515000000003,
          "velocity": 0.3937007874015748
        },
        {
          "duration": 0.26548649999999796,
          "durationTicks": 64,
          "midi": 42,
          "name": "F#2",
          "ticks": 7296,
          "time": 30.265461000000002,
          "velocity": 0.3937007874015748
        },
        {
          "duration": 0.2654865000000015,
          "durationTicks": 64,
          "midi": 42,
          "name": "F#2",
          "ticks": 7360,
          "time": 30.5309475,
          "velocity": 0.3937007874015748
        },
        {
          "duration": 0.5309729999999995,
          "durationTicks": 128,
          "midi": 42,
          "name": "F#2",
          "ticks": 7552,
          "time": 31.327407,
          "velocity": 0.3937007874015748
        },
        {
          "duration": 0.2654865000000015,
          "durationTicks": 64,
          "midi": 42,
          "name": "F#2",
          "ticks": 7808,
          "time": 32.389353,
          "velocity": 0.3937007874015748
        },
        {
          "duration": 0.2654865000000015,
          "durationTicks": 64,
          "midi": 42,
          "name": "F#2",
          "ticks": 7872,
          "time": 32.6548395,
          "velocity": 0.3937007874015748
        },
        {
          "duration": 0.530973000000003,
          "durationTicks": 128,
          "midi": 42,
          "name": "F#2",
          "ticks": 8064,
          "time": 33.451299,
          "velocity": 0.3937007874015748
        },
        {
          "duration": 0.5309729999999959,
          "durationTicks": 128,
          "midi": 42,
          "name": "F#2",
          "ticks": 8320,
          "time": 34.513245000000005,
          "velocity": 0.3937007874015748
        },
        {
          "duration": 0.5309729999999959,
          "durationTicks": 128,
          "midi": 42,
          "name": "F#2",
          "ticks": 8576,
          "time": 35.575191000000004,
          "velocity": 0.3937007874015748
        },
        {
          "duration": 0.530973000000003,
          "durationTicks": 128,
          "midi": 42,
          "name": "F#2",
          "ticks": 8704,
          "time": 36.106164,
          "velocity": 0.3937007874015748
        },
        {
          "duration": 0.5309729999999959,
          "durationTicks": 128,
          "midi": 42,
          "name": "F#2",
          "ticks": 8832,
          "time": 36.637137,
          "velocity": 0.3937007874015748
        },
        {
          "duration": 0.530973000000003,
          "durationTicks": 128,
          "midi": 42,
          "name": "F#2",
          "ticks": 8960,
          "time": 37.16811,
          "velocity": 0.3937007874015748
        },
        {
          "duration": 0.530973000000003,
          "durationTicks": 128,
          "midi": 42,
          "name": "F#2",
          "ticks": 9088,
          "time": 37.699083,
          "velocity": 0.3937007874015748
        },
        {
          "duration": 0.5309729999999959,
          "durationTicks": 128,
          "midi": 42,
          "name": "F#2",
          "ticks": 9216,
          "time": 38.230056000000005,
          "velocity": 0.3937007874015748
        },
        {
          "duration": 0.530973000000003,
          "durationTicks": 128,
          "midi": 42,
          "name": "F#2",
          "ticks": 9344,
          "time": 38.761029,
          "velocity": 0.3937007874015748
        },
        {
          "duration": 0.5309729999999959,
          "durationTicks": 128,
          "midi": 42,
          "name": "F#2",
          "ticks": 9472,
          "time": 39.292002000000004,
          "velocity": 0.3937007874015748
        },
        {
          "duration": 0.530973000000003,
          "durationTicks": 128,
          "midi": 42,
          "name": "F#2",
          "ticks": 9600,
          "time": 39.822975,
          "velocity": 0.3937007874015748
        },
        {
          "duration": 0.530973000000003,
          "durationTicks": 128,
          "midi": 42,
          "name": "F#2",
          "ticks": 9728,
          "time": 40.353948,
          "velocity": 0.3937007874015748
        },
        {
          "duration": 0.5309729999999959,
          "durationTicks": 128,
          "midi": 42,
          "name": "F#2",
          "ticks": 9856,
          "time": 40.884921000000006,
          "velocity": 0.3937007874015748
        },
        {
          "duration": 0.530973000000003,
          "durationTicks": 128,
          "midi": 42,
          "name": "F#2",
          "ticks": 9984,
          "time": 41.415894,
          "velocity": 0.3937007874015748
        },
        {
          "duration": 0.2654864999999944,
          "durationTicks": 64,
          "midi": 42,
          "name": "F#2",
          "ticks": 10112,
          "time": 41.946867000000005,
          "velocity": 0.3937007874015748
        },
        {
          "duration": 0.530973000000003,
          "durationTicks": 128,
          "midi": 42,
          "name": "F#2",
          "ticks": 10624,
          "time": 44.070759,
          "velocity": 0.3937007874015748
        },
        {
          "duration": 0.530973000000003,
          "durationTicks": 128,
          "midi": 42,
          "name": "F#2",
          "ticks": 10816,
          "time": 44.8672185,
          "velocity": 0.3937007874015748
        },
        {
          "duration": 0.2654865000000015,
          "durationTicks": 64,
          "midi": 42,
          "name": "F#2",
          "ticks": 10944,
          "time": 45.3981915,
          "velocity": 0.3937007874015748
        },
        {
          "duration": 0.530973000000003,
          "durationTicks": 128,
          "midi": 42,
          "name": "F#2",
          "ticks": 11136,
          "time": 46.194651,
          "velocity": 0.3937007874015748
        },
        {
          "duration": 0.5309729999999959,
          "durationTicks": 128,
          "midi": 42,
          "name": "F#2",
          "ticks": 11328,
          "time": 46.991110500000005,
          "velocity": 0.3937007874015748
        },
        {
          "duration": 0.2654865000000015,
          "durationTicks": 64,
          "midi": 42,
          "name": "F#2",
          "ticks": 11456,
          "time": 47.5220835,
          "velocity": 0.3937007874015748
        },
        {
          "duration": 0.5309729999999959,
          "durationTicks": 128,
          "midi": 42,
          "name": "F#2",
          "ticks": 11648,
          "time": 48.318543000000005,
          "velocity": 0.3937007874015748
        },
        {
          "duration": 0.530973000000003,
          "durationTicks": 128,
          "midi": 42,
          "name": "F#2",
          "ticks": 11840,
          "time": 49.1150025,
          "velocity": 0.3937007874015748
        },
        {
          "duration": 0.2654864999999944,
          "durationTicks": 64,
          "midi": 42,
          "name": "F#2",
          "ticks": 11968,
          "time": 49.645975500000006,
          "velocity": 0.3937007874015748
        },
        {
          "duration": 0.530973000000003,
          "durationTicks": 128,
          "midi": 42,
          "name": "F#2",
          "ticks": 12160,
          "time": 50.442435,
          "velocity": 0.3937007874015748
        },
        {
          "duration": 0.530973000000003,
          "durationTicks": 128,
          "midi": 42,
          "name": "F#2",
          "ticks": 12352,
          "time": 51.2388945,
          "velocity": 0.3937007874015748
        },
        {
          "duration": 0.2654865000000015,
          "durationTicks": 64,
          "midi": 42,
          "name": "F#2",
          "ticks": 12480,
          "time": 51.769867500000004,
          "velocity": 0.3937007874015748
        },
        {
          "duration": 0.530973000000003,
          "durationTicks": 128,
          "midi": 42,
          "name": "F#2",
          "ticks": 12672,
          "time": 52.566327,
          "velocity": 0.3937007874015748
        },
        {
          "duration": 0.5309729999999959,
          "durationTicks": 128,
          "midi": 42,
          "name": "F#2",
          "ticks": 12864,
          "time": 53.362786500000006,
          "velocity": 0.3937007874015748
        },
        {
          "duration": 0.2654865000000015,
          "durationTicks": 64,
          "midi": 42,
          "name": "F#2",
          "ticks": 12992,
          "time": 53.8937595,
          "velocity": 0.3937007874015748
        },
        {
          "duration": 0.5309729999999959,
          "durationTicks": 128,
          "midi": 42,
          "name": "F#2",
          "ticks": 13184,
          "time": 54.690219000000006,
          "velocity": 0.3937007874015748
        },
        {
          "duration": 0.5309729999999959,
          "durationTicks": 128,
          "midi": 42,
          "name": "F#2",
          "ticks": 13376,
          "time": 55.486678500000004,
          "velocity": 0.3937007874015748
        },
        {
          "duration": 0.2654865000000015,
          "durationTicks": 64,
          "midi": 42,
          "name": "F#2",
          "ticks": 13504,
          "time": 56.0176515,
          "velocity": 0.3937007874015748
        },
        {
          "duration": 0.5309729999999959,
          "durationTicks": 128,
          "midi": 42,
          "name": "F#2",
          "ticks": 13696,
          "time": 56.814111000000004,
          "velocity": 0.3937007874015748
        },
        {
          "duration": 0.530973000000003,
          "durationTicks": 128,
          "midi": 42,
          "name": "F#2",
          "ticks": 13888,
          "time": 57.6105705,
          "velocity": 0.3937007874015748
        },
        {
          "duration": 0.2654865000000015,
          "durationTicks": 64,
          "midi": 42,
          "name": "F#2",
          "ticks": 14016,
          "time": 58.141543500000004,
          "velocity": 0.3937007874015748
        },
        {
          "duration": 0.530973000000003,
          "durationTicks": 128,
          "midi": 42,
          "name": "F#2",
          "ticks": 14208,
          "time": 58.938003,
          "velocity": 0.3937007874015748
        },
        {
          "duration": 0.5309729999999959,
          "durationTicks": 128,
          "midi": 42,
          "name": "F#2",
          "ticks": 14400,
          "time": 59.73446250000001,
          "velocity": 0.3937007874015748
        },
        {
          "duration": 0.2654865000000015,
          "durationTicks": 64,
          "midi": 42,
          "name": "F#2",
          "ticks": 14528,
          "time": 60.2654355,
          "velocity": 0.3937007874015748
        },
        {
          "duration": 0.2654865000000015,
          "durationTicks": 64,
          "midi": 42,
          "name": "F#2",
          "ticks": 14720,
          "time": 61.061895,
          "velocity": 0.3937007874015748
        }
      ],
      "endOfTrackTicks": 14784
    },
    {
      "channel": 0,
      "controlChanges": {},
      "pitchBends": [],
      "instrument": {
        "family": "piano",
        "name": "acoustic grand piano",
        "number": 0
      },
      "name": "snare07.ogg",
      "notes": [
        {
          "duration": 0.2654865000000015,
          "durationTicks": 64,
          "midi": 66,
          "name": "F#4",
          "ticks": 4096,
          "time": 16.991136,
          "velocity": 0.3937007874015748
        },
        {
          "duration": 0.2654865000000015,
          "durationTicks": 64,
          "midi": 66,
          "name": "F#4",
          "ticks": 4352,
          "time": 18.053082,
          "velocity": 0.3937007874015748
        },
        {
          "duration": 0.26548649999999796,
          "durationTicks": 64,
          "midi": 66,
          "name": "F#4",
          "ticks": 4608,
          "time": 19.115028000000002,
          "velocity": 0.3937007874015748
        },
        {
          "duration": 0.2654865000000015,
          "durationTicks": 64,
          "midi": 66,
          "name": "F#4",
          "ticks": 4864,
          "time": 20.176974,
          "velocity": 0.3937007874015748
        },
        {
          "duration": 0.2654865000000015,
          "durationTicks": 64,
          "midi": 66,
          "name": "F#4",
          "ticks": 5120,
          "time": 21.23892,
          "velocity": 0.3937007874015748
        },
        {
          "duration": 0.26548649999999796,
          "durationTicks": 64,
          "midi": 66,
          "name": "F#4",
          "ticks": 5376,
          "time": 22.300866000000003,
          "velocity": 0.3937007874015748
        },
        {
          "duration": 0.26548649999999796,
          "durationTicks": 64,
          "midi": 66,
          "name": "F#4",
          "ticks": 5632,
          "time": 23.362812,
          "velocity": 0.3937007874015748
        },
        {
          "duration": 0.2654865000000015,
          "durationTicks": 64,
          "midi": 66,
          "name": "F#4",
          "ticks": 5888,
          "time": 24.424758,
          "velocity": 0.3937007874015748
        },
        {
          "duration": 0.26548649999999796,
          "durationTicks": 64,
          "midi": 66,
          "name": "F#4",
          "ticks": 6400,
          "time": 26.548650000000002,
          "velocity": 0.3937007874015748
        },
        {
          "duration": 0.13274325000000076,
          "durationTicks": 32,
          "midi": 66,
          "name": "F#4",
          "ticks": 6464,
          "time": 26.8141365,
          "velocity": 0.3937007874015748
        },
        {
          "duration": 0.13274325000000076,
          "durationTicks": 32,
          "midi": 66,
          "name": "F#4",
          "ticks": 6496,
          "time": 26.94687975,
          "velocity": 0.3937007874015748
        },
        {
          "duration": 0.2654865000000015,
          "durationTicks": 64,
          "midi": 66,
          "name": "F#4",
          "ticks": 6656,
          "time": 27.610596,
          "velocity": 0.3937007874015748
        },
        {
          "duration": 0.2654865000000015,
          "durationTicks": 64,
          "midi": 66,
          "name": "F#4",
          "ticks": 6912,
          "time": 28.672542,
          "velocity": 0.3937007874015748
        },
        {
          "duration": 0.26548649999999796,
          "durationTicks": 64,
          "midi": 66,
          "name": "F#4",
          "ticks": 7168,
          "time": 29.734488000000002,
          "velocity": 0.3937007874015748
        },
        {
          "duration": 0.2654865000000015,
          "durationTicks": 64,
          "midi": 66,
          "name": "F#4",
          "ticks": 7424,
          "time": 30.796434,
          "velocity": 0.3937007874015748
        },
        {
          "duration": 0.26548649999999796,
          "durationTicks": 64,
          "midi": 66,
          "name": "F#4",
          "ticks": 7680,
          "time": 31.85838,
          "velocity": 0.3937007874015748
        },
        {
          "duration": 0.2654865000000015,
          "durationTicks": 64,
          "midi": 66,
          "name": "F#4",
          "ticks": 7936,
          "time": 32.920326,
          "velocity": 0.3937007874015748
        },
        {
          "duration": 0.2654865000000015,
          "durationTicks": 64,
          "midi": 66,
          "name": "F#4",
          "ticks": 8192,
          "time": 33.982272,
          "velocity": 0.3937007874015748
        },
        {
          "duration": 0.1327432500000043,
          "durationTicks": 32,
          "midi": 66,
          "name": "F#4",
          "ticks": 10496,
          "time": 43.539786,
          "velocity": 0.3937007874015748
        },
        {
          "duration": 0.1327432499999972,
          "durationTicks": 32,
          "midi": 66,
          "name": "F#4",
          "ticks": 10528,
          "time": 43.672529250000004,
          "velocity": 0.3937007874015748
        },
        {
          "duration": 0.1327432500000043,
          "durationTicks": 32,
          "midi": 66,
          "name": "F#4",
          "ticks": 10560,
          "time": 43.8052725,
          "velocity": 0.3937007874015748
        },
        {
          "duration": 0.1327432499999972,
          "durationTicks": 32,
          "midi": 66,
          "name": "F#4",
          "ticks": 10592,
          "time": 43.938015750000005,
          "velocity": 0.3937007874015748
        },
        {
          "duration": 0.2654864999999944,
          "durationTicks": 64,
          "midi": 66,
          "name": "F#4",
          "ticks": 10752,
          "time": 44.601732000000005,
          "velocity": 0.3937007874015748
        },
        {
          "duration": 0.2654865000000015,
          "durationTicks": 64,
          "midi": 66,
          "name": "F#4",
          "ticks": 11008,
          "time": 45.663678000000004,
          "velocity": 0.3937007874015748
        },
        {
          "duration": 0.2654865000000015,
          "durationTicks": 64,
          "midi": 66,
          "name": "F#4",
          "ticks": 11264,
          "time": 46.725624,
          "velocity": 0.3937007874015748
        },
        {
          "duration": 0.2654865000000015,
          "durationTicks": 64,
          "midi": 66,
          "name": "F#4",
          "ticks": 11520,
          "time": 47.78757,
          "velocity": 0.3937007874015748
        },
        {
          "duration": 0.2654865000000015,
          "durationTicks": 64,
          "midi": 66,
          "name": "F#4",
          "ticks": 11776,
          "time": 48.849516,
          "velocity": 0.3937007874015748
        },
        {
          "duration": 0.2654865000000015,
          "durationTicks": 64,
          "midi": 66,
          "name": "F#4",
          "ticks": 12032,
          "time": 49.911462,
          "velocity": 0.3937007874015748
        },
        {
          "duration": 0.2654864999999944,
          "durationTicks": 64,
          "midi": 66,
          "name": "F#4",
          "ticks": 12288,
          "time": 50.973408000000006,
          "velocity": 0.3937007874015748
        },
        {
          "duration": 0.2654864999999944,
          "durationTicks": 64,
          "midi": 66,
          "name": "F#4",
          "ticks": 12544,
          "time": 52.035354000000005,
          "velocity": 0.3937007874015748
        },
        {
          "duration": 0.1327432500000043,
          "durationTicks": 32,
          "midi": 66,
          "name": "F#4",
          "ticks": 12608,
          "time": 52.3008405,
          "velocity": 0.3937007874015748
        },
        {
          "duration": 0.1327432499999972,
          "durationTicks": 32,
          "midi": 66,
          "name": "F#4",
          "ticks": 12640,
          "time": 52.433583750000004,
          "velocity": 0.3937007874015748
        },
        {
          "duration": 0.2654865000000015,
          "durationTicks": 64,
          "midi": 66,
          "name": "F#4",
          "ticks": 12800,
          "time": 53.097300000000004,
          "velocity": 0.3937007874015748
        },
        {
          "duration": 0.2654865000000015,
          "durationTicks": 64,
          "midi": 66,
          "name": "F#4",
          "ticks": 13056,
          "time": 54.159246,
          "velocity": 0.3937007874015748
        },
        {
          "duration": 0.2654865000000015,
          "durationTicks": 64,
          "midi": 66,
          "name": "F#4",
          "ticks": 13312,
          "time": 55.221192,
          "velocity": 0.3937007874015748
        },
        {
          "duration": 0.2654865000000015,
          "durationTicks": 64,
          "midi": 66,
          "name": "F#4",
          "ticks": 13568,
          "time": 56.283138,
          "velocity": 0.3937007874015748
        },
        {
          "duration": 0.2654865000000015,
          "durationTicks": 64,
          "midi": 66,
          "name": "F#4",
          "ticks": 13824,
          "time": 57.345084,
          "velocity": 0.3937007874015748
        },
        {
          "duration": 0.2654864999999944,
          "durationTicks": 64,
          "midi": 66,
          "name": "F#4",
          "ticks": 14080,
          "time": 58.407030000000006,
          "velocity": 0.3937007874015748
        },
        {
          "duration": 0.2654865000000015,
          "durationTicks": 64,
          "midi": 66,
          "name": "F#4",
          "ticks": 14336,
          "time": 59.468976000000005,
          "velocity": 0.3937007874015748
        },
        {
          "duration": 0.1327432499999972,
          "durationTicks": 32,
          "midi": 66,
          "name": "F#4",
          "ticks": 14592,
          "time": 60.530922000000004,
          "velocity": 0.3937007874015748
        },
        {
          "duration": 0.2654865000000015,
          "durationTicks": 64,
          "midi": 66,
          "name": "F#4",
          "ticks": 14624,
          "time": 60.66366525,
          "velocity": 0.3937007874015748
        },
        {
          "duration": 0.1327432499999972,
          "durationTicks": 32,
          "midi": 66,
          "name": "F#4",
          "ticks": 14688,
          "time": 60.92915175,
          "velocity": 0.3937007874015748
        }
      ],
      "endOfTrackTicks": 14720
    },
    {
      "channel": 0,
      "controlChanges": {},
      "pitchBends": [],
      "instrument": {
        "family": "piano",
        "name": "acoustic grand piano",
        "number": 0
      },
      "name": "hihat_closed04.ogg",
      "notes": [
        {
          "duration": 0.26548649999999796,
          "durationTicks": 64,
          "midi": 48,
          "name": "C3",
          "ticks": 3968,
          "time": 16.460163,
          "velocity": 0.3937007874015748
        },
        {
          "duration": 0.2654865000000015,
          "durationTicks": 64,
          "midi": 48,
          "name": "C3",
          "ticks": 4032,
          "time": 16.7256495,
          "velocity": 0.3937007874015748
        },
        {
          "duration": 0.2654865000000015,
          "durationTicks": 64,
          "midi": 48,
          "name": "C3",
          "ticks": 4096,
          "time": 16.991136,
          "velocity": 0.3937007874015748
        },
        {
          "duration": 0.26548649999999796,
          "durationTicks": 64,
          "midi": 48,
          "name": "C3",
          "ticks": 4160,
          "time": 17.256622500000002,
          "velocity": 0.3937007874015748
        },
        {
          "duration": 0.2654865000000015,
          "durationTicks": 64,
          "midi": 48,
          "name": "C3",
          "ticks": 4224,
          "time": 17.522109,
          "velocity": 0.3937007874015748
        },
        {
          "duration": 0.26548649999999796,
          "durationTicks": 64,
          "midi": 48,
          "name": "C3",
          "ticks": 4288,
          "time": 17.787595500000002,
          "velocity": 0.3937007874015748
        },
        {
          "duration": 0.2654865000000015,
          "durationTicks": 64,
          "midi": 48,
          "name": "C3",
          "ticks": 4352,
          "time": 18.053082,
          "velocity": 0.3937007874015748
        },
        {
          "duration": 0.26548649999999796,
          "durationTicks": 64,
          "midi": 48,
          "name": "C3",
          "ticks": 4416,
          "time": 18.3185685,
          "velocity": 0.3937007874015748
        },
        {
          "duration": 0.2654865000000015,
          "durationTicks": 64,
          "midi": 48,
          "name": "C3",
          "ticks": 4544,
          "time": 18.8495415,
          "velocity": 0.3937007874015748
        },
        {
          "duration": 0.26548649999999796,
          "durationTicks": 64,
          "midi": 48,
          "name": "C3",
          "ticks": 4608,
          "time": 19.115028000000002,
          "velocity": 0.3937007874015748
        },
        {
          "duration": 0.2654865000000015,
          "durationTicks": 64,
          "midi": 48,
          "name": "C3",
          "ticks": 4672,
          "time": 19.3805145,
          "velocity": 0.3937007874015748
        },
        {
          "duration": 0.26548649999999796,
          "durationTicks": 64,
          "midi": 48,
          "name": "C3",
          "ticks": 4736,
          "time": 19.646001000000002,
          "velocity": 0.3937007874015748
        },
        {
          "duration": 0.2654865000000015,
          "durationTicks": 64,
          "midi": 48,
          "name": "C3",
          "ticks": 4800,
          "time": 19.9114875,
          "velocity": 0.3937007874015748
        },
        {
          "duration": 0.2654865000000015,
          "durationTicks": 64,
          "midi": 48,
          "name": "C3",
          "ticks": 4864,
          "time": 20.176974,
          "velocity": 0.3937007874015748
        },
        {
          "duration": 0.2654865000000015,
          "durationTicks": 64,
          "midi": 48,
          "name": "C3",
          "ticks": 4992,
          "time": 20.707947,
          "velocity": 0.3937007874015748
        },
        {
          "duration": 0.26548649999999796,
          "durationTicks": 64,
          "midi": 48,
          "name": "C3",
          "ticks": 5056,
          "time": 20.973433500000002,
          "velocity": 0.3937007874015748
        },
        {
          "duration": 0.2654865000000015,
          "durationTicks": 64,
          "midi": 48,
          "name": "C3",
          "ticks": 5120,
          "time": 21.23892,
          "velocity": 0.3937007874015748
        },
        {
          "duration": 0.26548649999999796,
          "durationTicks": 64,
          "midi": 48,
          "name": "C3",
          "ticks": 5184,
          "time": 21.5044065,
          "velocity": 0.3937007874015748
        },
        {
          "duration": 0.2654865000000015,
          "durationTicks": 64,
          "midi": 48,
          "name": "C3",
          "ticks": 5248,
          "time": 21.769893,
          "velocity": 0.3937007874015748
        },
        {
          "duration": 0.2654865000000015,
          "durationTicks": 64,
          "midi": 48,
          "name": "C3",
          "ticks": 5312,
          "time": 22.0353795,
          "velocity": 0.3937007874015748
        },
        {
          "duration": 0.2654865000000015,
          "durationTicks": 64,
          "midi": 48,
          "name": "C3",
          "ticks": 5440,
          "time": 22.5663525,
          "velocity": 0.3937007874015748
        },
        {
          "duration": 0.2654865000000015,
          "durationTicks": 64,
          "midi": 48,
          "name": "C3",
          "ticks": 5568,
          "time": 23.0973255,
          "velocity": 0.3937007874015748
        },
        {
          "duration": 0.26548649999999796,
          "durationTicks": 64,
          "midi": 48,
          "name": "C3",
          "ticks": 5632,
          "time": 23.362812,
          "velocity": 0.3937007874015748
        },
        {
          "duration": 0.2654865000000015,
          "durationTicks": 64,
          "midi": 48,
          "name": "C3",
          "ticks": 5696,
          "time": 23.6282985,
          "velocity": 0.3937007874015748
        },
        {
          "duration": 0.2654865000000015,
          "durationTicks": 64,
          "midi": 48,
          "name": "C3",
          "ticks": 5760,
          "time": 23.893785,
          "velocity": 0.3937007874015748
        },
        {
          "duration": 0.26548649999999796,
          "durationTicks": 64,
          "midi": 48,
          "name": "C3",
          "ticks": 5824,
          "time": 24.159271500000003,
          "velocity": 0.3937007874015748
        },
        {
          "duration": 0.2654865000000015,
          "durationTicks": 64,
          "midi": 48,
          "name": "C3",
          "ticks": 5888,
          "time": 24.424758,
          "velocity": 0.3937007874015748
        },
        {
          "duration": 0.26548649999999796,
          "durationTicks": 64,
          "midi": 48,
          "name": "C3",
          "ticks": 5952,
          "time": 24.690244500000002,
          "velocity": 0.3937007874015748
        },
        {
          "duration": 0.26548649999999796,
          "durationTicks": 64,
          "midi": 48,
          "name": "C3",
          "ticks": 6592,
          "time": 27.345109500000003,
          "velocity": 0.3937007874015748
        },
        {
          "duration": 0.2654865000000015,
          "durationTicks": 64,
          "midi": 48,
          "name": "C3",
          "ticks": 6656,
          "time": 27.610596,
          "velocity": 0.3937007874015748
        },
        {
          "duration": 0.26548649999999796,
          "durationTicks": 64,
          "midi": 48,
          "name": "C3",
          "ticks": 6720,
          "time": 27.876082500000003,
          "velocity": 0.3937007874015748
        },
        {
          "duration": 0.2654865000000015,
          "durationTicks": 64,
          "midi": 48,
          "name": "C3",
          "ticks": 6784,
          "time": 28.141569,
          "velocity": 0.3937007874015748
        },
        {
          "duration": 0.26548649999999796,
          "durationTicks": 64,
          "midi": 48,
          "name": "C3",
          "ticks": 6848,
          "time": 28.407055500000002,
          "velocity": 0.3937007874015748
        },
        {
          "duration": 0.2654865000000015,
          "durationTicks": 64,
          "midi": 48,
          "name": "C3",
          "ticks": 6912,
          "time": 28.672542,
          "velocity": 0.3937007874015748
        },
        {
          "duration": 0.2654865000000015,
          "durationTicks": 64,
          "midi": 48,
          "name": "C3",
          "ticks": 6976,
          "time": 28.9380285,
          "velocity": 0.3937007874015748
        },
        {
          "duration": 0.2654865000000015,
          "durationTicks": 64,
          "midi": 48,
          "name": "C3",
          "ticks": 7104,
          "time": 29.4690015,
          "velocity": 0.3937007874015748
        },
        {
          "duration": 0.26548649999999796,
          "durationTicks": 64,
          "midi": 48,
          "name": "C3",
          "ticks": 7168,
          "time": 29.734488000000002,
          "velocity": 0.3937007874015748
        },
        {
          "duration": 0.2654865000000015,
          "durationTicks": 64,
          "midi": 48,
          "name": "C3",
          "ticks": 7232,
          "time": 29.9999745,
          "velocity": 0.3937007874015748
        },
        {
          "duration": 0.26548649999999796,
          "durationTicks": 64,
          "midi": 48,
          "name": "C3",
          "ticks": 7296,
          "time": 30.265461000000002,
          "velocity": 0.3937007874015748
        },
        {
          "duration": 0.2654865000000015,
          "durationTicks": 64,
          "midi": 48,
          "name": "C3",
          "ticks": 7360,
          "time": 30.5309475,
          "velocity": 0.3937007874015748
        },
        {
          "duration": 0.26548649999999796,
          "durationTicks": 64,
          "midi": 48,
          "name": "C3",
          "ticks": 7488,
          "time": 31.061920500000003,
          "velocity": 0.3937007874015748
        },
        {
          "duration": 0.26548649999999796,
          "durationTicks": 64,
          "midi": 48,
          "name": "C3",
          "ticks": 7616,
          "time": 31.592893500000002,
          "velocity": 0.3937007874015748
        },
        {
          "duration": 0.26548649999999796,
          "durationTicks": 64,
          "midi": 48,
          "name": "C3",
          "ticks": 7680,
          "time": 31.85838,
          "velocity": 0.3937007874015748
        },
        {
          "duration": 0.2654865000000015,
          "durationTicks": 64,
          "midi": 48,
          "name": "C3",
          "ticks": 7744,
          "time": 32.1238665,
          "velocity": 0.3937007874015748
        },
        {
          "duration": 0.2654865000000015,
          "durationTicks": 64,
          "midi": 48,
          "name": "C3",
          "ticks": 7872,
          "time": 32.6548395,
          "velocity": 0.3937007874015748
        },
        {
          "duration": 0.2654865000000015,
          "durationTicks": 64,
          "midi": 48,
          "name": "C3",
          "ticks": 7936,
          "time": 32.920326,
          "velocity": 0.3937007874015748
        },
        {
          "duration": 0.2654864999999944,
          "durationTicks": 64,
          "midi": 48,
          "name": "C3",
          "ticks": 8000,
          "time": 33.185812500000004,
          "velocity": 0.3937007874015748
        },
        {
          "duration": 0.1327432499999972,
          "durationTicks": 32,
          "midi": 48,
          "name": "C3",
          "ticks": 8576,
          "time": 35.575191000000004,
          "velocity": 0.3937007874015748
        },
        {
          "duration": 0.1327432500000043,
          "durationTicks": 32,
          "midi": 48,
          "name": "C3",
          "ticks": 8608,
          "time": 35.70793425,
          "velocity": 0.3937007874015748
        },
        {
          "duration": 0.1327432499999972,
          "durationTicks": 32,
          "midi": 48,
          "name": "C3",
          "ticks": 8640,
          "time": 35.840677500000005,
          "velocity": 0.3937007874015748
        },
        {
          "duration": 0.1327432499999972,
          "durationTicks": 32,
          "midi": 48,
          "name": "C3",
          "ticks": 8672,
          "time": 35.97342075,
          "velocity": 0.3937007874015748
        },
        {
          "duration": 0.1327432500000043,
          "durationTicks": 32,
          "midi": 48,
          "name": "C3",
          "ticks": 8704,
          "time": 36.106164,
          "velocity": 0.3937007874015748
        },
        {
          "duration": 0.1327432499999972,
          "durationTicks": 32,
          "midi": 48,
          "name": "C3",
          "ticks": 8736,
          "time": 36.238907250000004,
          "velocity": 0.3937007874015748
        },
        {
          "duration": 0.1327432499999972,
          "durationTicks": 32,
          "midi": 48,
          "name": "C3",
          "ticks": 8768,
          "time": 36.3716505,
          "velocity": 0.3937007874015748
        },
        {
          "duration": 0.1327432500000043,
          "durationTicks": 32,
          "midi": 48,
          "name": "C3",
          "ticks": 8800,
          "time": 36.50439375,
          "velocity": 0.3937007874015748
        },
        {
          "duration": 0.1327432499999972,
          "durationTicks": 32,
          "midi": 48,
          "name": "C3",
          "ticks": 8832,
          "time": 36.637137,
          "velocity": 0.3937007874015748
        },
        {
          "duration": 0.1327432500000043,
          "durationTicks": 32,
          "midi": 48,
          "name": "C3",
          "ticks": 8864,
          "time": 36.76988025,
          "velocity": 0.3937007874015748
        },
        {
          "duration": 0.1327432499999972,
          "durationTicks": 32,
          "midi": 48,
          "name": "C3",
          "ticks": 8896,
          "time": 36.902623500000004,
          "velocity": 0.3937007874015748
        },
        {
          "duration": 0.1327432499999972,
          "durationTicks": 32,
          "midi": 48,
          "name": "C3",
          "ticks": 8928,
          "time": 37.03536675,
          "velocity": 0.3937007874015748
        },
        {
          "duration": 0.1327432500000043,
          "durationTicks": 32,
          "midi": 48,
          "name": "C3",
          "ticks": 8960,
          "time": 37.16811,
          "velocity": 0.3937007874015748
        },
        {
          "duration": 0.1327432499999972,
          "durationTicks": 32,
          "midi": 48,
          "name": "C3",
          "ticks": 8992,
          "time": 37.30085325,
          "velocity": 0.3937007874015748
        },
        {
          "duration": 0.1327432500000043,
          "durationTicks": 32,
          "midi": 48,
          "name": "C3",
          "ticks": 9024,
          "time": 37.4335965,
          "velocity": 0.3937007874015748
        },
        {
          "duration": 0.1327432499999972,
          "durationTicks": 32,
          "midi": 48,
          "name": "C3",
          "ticks": 9056,
          "time": 37.566339750000004,
          "velocity": 0.3937007874015748
        },
        {
          "duration": 0.1327432499999972,
          "durationTicks": 32,
          "midi": 48,
          "name": "C3",
          "ticks": 9088,
          "time": 37.699083,
          "velocity": 0.3937007874015748
        },
        {
          "duration": 0.1327432500000043,
          "durationTicks": 32,
          "midi": 48,
          "name": "C3",
          "ticks": 9120,
          "time": 37.83182625,
          "velocity": 0.3937007874015748
        },
        {
          "duration": 0.1327432499999972,
          "durationTicks": 32,
          "midi": 48,
          "name": "C3",
          "ticks": 9152,
          "time": 37.9645695,
          "velocity": 0.3937007874015748
        },
        {
          "duration": 0.1327432500000043,
          "durationTicks": 32,
          "midi": 48,
          "name": "C3",
          "ticks": 9184,
          "time": 38.09731275,
          "velocity": 0.3937007874015748
        },
        {
          "duration": 0.1327432499999972,
          "durationTicks": 32,
          "midi": 48,
          "name": "C3",
          "ticks": 9216,
          "time": 38.230056000000005,
          "velocity": 0.3937007874015748
        },
        {
          "duration": 0.1327432499999972,
          "durationTicks": 32,
          "midi": 48,
          "name": "C3",
          "ticks": 9248,
          "time": 38.36279925,
          "velocity": 0.3937007874015748
        },
        {
          "duration": 0.1327432500000043,
          "durationTicks": 32,
          "midi": 48,
          "name": "C3",
          "ticks": 9280,
          "time": 38.4955425,
          "velocity": 0.3937007874015748
        },
        {
          "duration": 0.1327432499999972,
          "durationTicks": 32,
          "midi": 48,
          "name": "C3",
          "ticks": 9312,
          "time": 38.62828575,
          "velocity": 0.3937007874015748
        },
        {
          "duration": 0.1327432500000043,
          "durationTicks": 32,
          "midi": 48,
          "name": "C3",
          "ticks": 9344,
          "time": 38.761029,
          "velocity": 0.3937007874015748
        },
        {
          "duration": 0.1327432499999972,
          "durationTicks": 32,
          "midi": 48,
          "name": "C3",
          "ticks": 9376,
          "time": 38.893772250000005,
          "velocity": 0.3937007874015748
        },
        {
          "duration": 0.1327432499999972,
          "durationTicks": 32,
          "midi": 48,
          "name": "C3",
          "ticks": 9408,
          "time": 39.0265155,
          "velocity": 0.3937007874015748
        },
        {
          "duration": 0.1327432500000043,
          "durationTicks": 32,
          "midi": 48,
          "name": "C3",
          "ticks": 9440,
          "time": 39.15925875,
          "velocity": 0.3937007874015748
        },
        {
          "duration": 0.1327432499999972,
          "durationTicks": 32,
          "midi": 48,
          "name": "C3",
          "ticks": 9472,
          "time": 39.292002000000004,
          "velocity": 0.3937007874015748
        },
        {
          "duration": 0.1327432500000043,
          "durationTicks": 32,
          "midi": 48,
          "name": "C3",
          "ticks": 9504,
          "time": 39.42474525,
          "velocity": 0.3937007874015748
        },
        {
          "duration": 0.1327432499999972,
          "durationTicks": 32,
          "midi": 48,
          "name": "C3",
          "ticks": 9536,
          "time": 39.557488500000005,
          "velocity": 0.3937007874015748
        },
        {
          "duration": 0.1327432499999972,
          "durationTicks": 32,
          "midi": 48,
          "name": "C3",
          "ticks": 9568,
          "time": 39.69023175,
          "velocity": 0.3937007874015748
        },
        {
          "duration": 0.1327432500000043,
          "durationTicks": 32,
          "midi": 48,
          "name": "C3",
          "ticks": 9600,
          "time": 39.822975,
          "velocity": 0.3937007874015748
        },
        {
          "duration": 0.1327432499999972,
          "durationTicks": 32,
          "midi": 48,
          "name": "C3",
          "ticks": 9632,
          "time": 39.955718250000004,
          "velocity": 0.3937007874015748
        },
        {
          "duration": 0.1327432500000043,
          "durationTicks": 32,
          "midi": 48,
          "name": "C3",
          "ticks": 9664,
          "time": 40.0884615,
          "velocity": 0.3937007874015748
        },
        {
          "duration": 0.1327432499999972,
          "durationTicks": 32,
          "midi": 48,
          "name": "C3",
          "ticks": 9696,
          "time": 40.221204750000005,
          "velocity": 0.3937007874015748
        },
        {
          "duration": 0.1327432499999972,
          "durationTicks": 32,
          "midi": 48,
          "name": "C3",
          "ticks": 9728,
          "time": 40.353948,
          "velocity": 0.3937007874015748
        },
        {
          "duration": 0.1327432500000043,
          "durationTicks": 32,
          "midi": 48,
          "name": "C3",
          "ticks": 9760,
          "time": 40.48669125,
          "velocity": 0.3937007874015748
        },
        {
          "duration": 0.1327432499999972,
          "durationTicks": 32,
          "midi": 48,
          "name": "C3",
          "ticks": 9792,
          "time": 40.619434500000004,
          "velocity": 0.3937007874015748
        },
        {
          "duration": 0.1327432500000043,
          "durationTicks": 32,
          "midi": 48,
          "name": "C3",
          "ticks": 9824,
          "time": 40.75217775,
          "velocity": 0.3937007874015748
        },
        {
          "duration": 0.1327432499999972,
          "durationTicks": 32,
          "midi": 48,
          "name": "C3",
          "ticks": 9856,
          "time": 40.884921000000006,
          "velocity": 0.3937007874015748
        },
        {
          "duration": 0.1327432499999972,
          "durationTicks": 32,
          "midi": 48,
          "name": "C3",
          "ticks": 9888,
          "time": 41.01766425,
          "velocity": 0.3937007874015748
        },
        {
          "duration": 0.1327432500000043,
          "durationTicks": 32,
          "midi": 48,
          "name": "C3",
          "ticks": 9920,
          "time": 41.1504075,
          "velocity": 0.3937007874015748
        },
        {
          "duration": 0.1327432499999972,
          "durationTicks": 32,
          "midi": 48,
          "name": "C3",
          "ticks": 9952,
          "time": 41.283150750000004,
          "velocity": 0.3937007874015748
        },
        {
          "duration": 0.1327432499999972,
          "durationTicks": 32,
          "midi": 48,
          "name": "C3",
          "ticks": 9984,
          "time": 41.415894,
          "velocity": 0.3937007874015748
        },
        {
          "duration": 0.1327432500000043,
          "durationTicks": 32,
          "midi": 48,
          "name": "C3",
          "ticks": 10016,
          "time": 41.54863725,
          "velocity": 0.3937007874015748
        },
        {
          "duration": 0.1327432499999972,
          "durationTicks": 32,
          "midi": 48,
          "name": "C3",
          "ticks": 10048,
          "time": 41.6813805,
          "velocity": 0.3937007874015748
        },
        {
          "duration": 0.1327432500000043,
          "durationTicks": 32,
          "midi": 48,
          "name": "C3",
          "ticks": 10080,
          "time": 41.81412375,
          "velocity": 0.3937007874015748
        },
        {
          "duration": 0.2654865000000015,
          "durationTicks": 64,
          "midi": 48,
          "name": "C3",
          "ticks": 10688,
          "time": 44.336245500000004,
          "velocity": 0.3937007874015748
        },
        {
          "duration": 0.2654864999999944,
          "durationTicks": 64,
          "midi": 48,
          "name": "C3",
          "ticks": 10752,
          "time": 44.601732000000005,
          "velocity": 0.3937007874015748
        },
        {
          "duration": 0.2654865000000015,
          "durationTicks": 64,
          "midi": 48,
          "name": "C3",
          "ticks": 10816,
          "time": 44.8672185,
          "velocity": 0.3937007874015748
        },
        {
          "duration": 0.2654865000000015,
          "durationTicks": 64,
          "midi": 48,
          "name": "C3",
          "ticks": 10880,
          "time": 45.132705,
          "velocity": 0.3937007874015748
        },
        {
          "duration": 0.2654865000000015,
          "durationTicks": 64,
          "midi": 48,
          "name": "C3",
          "ticks": 10944,
          "time": 45.3981915,
          "velocity": 0.3937007874015748
        },
        {
          "duration": 0.2654865000000015,
          "durationTicks": 64,
          "midi": 48,
          "name": "C3",
          "ticks": 11008,
          "time": 45.663678000000004,
          "velocity": 0.3937007874015748
        },
        {
          "duration": 0.2654864999999944,
          "durationTicks": 64,
          "midi": 48,
          "name": "C3",
          "ticks": 11072,
          "time": 45.929164500000006,
          "velocity": 0.3937007874015748
        },
        {
          "duration": 0.2654865000000015,
          "durationTicks": 64,
          "midi": 48,
          "name": "C3",
          "ticks": 11136,
          "time": 46.194651,
          "velocity": 0.3937007874015748
        },
        {
          "duration": 0.2654865000000015,
          "durationTicks": 64,
          "midi": 48,
          "name": "C3",
          "ticks": 11200,
          "time": 46.4601375,
          "velocity": 0.3937007874015748
        },
        {
          "duration": 0.2654865000000015,
          "durationTicks": 64,
          "midi": 48,
          "name": "C3",
          "ticks": 11264,
          "time": 46.725624,
          "velocity": 0.3937007874015748
        },
        {
          "duration": 0.2654864999999944,
          "durationTicks": 64,
          "midi": 48,
          "name": "C3",
          "ticks": 11328,
          "time": 46.991110500000005,
          "velocity": 0.3937007874015748
        },
        {
          "duration": 0.2654865000000015,
          "durationTicks": 64,
          "midi": 48,
          "name": "C3",
          "ticks": 11392,
          "time": 47.256597,
          "velocity": 0.3937007874015748
        },
        {
          "duration": 0.2654865000000015,
          "durationTicks": 64,
          "midi": 48,
          "name": "C3",
          "ticks": 11456,
          "time": 47.5220835,
          "velocity": 0.3937007874015748
        },
        {
          "duration": 0.2654865000000015,
          "durationTicks": 64,
          "midi": 48,
          "name": "C3",
          "ticks": 11520,
          "time": 47.78757,
          "velocity": 0.3937007874015748
        },
        {
          "duration": 0.2654865000000015,
          "durationTicks": 64,
          "midi": 48,
          "name": "C3",
          "ticks": 11584,
          "time": 48.053056500000004,
          "velocity": 0.3937007874015748
        },
        {
          "duration": 0.2654864999999944,
          "durationTicks": 64,
          "midi": 48,
          "name": "C3",
          "ticks": 11648,
          "time": 48.318543000000005,
          "velocity": 0.3937007874015748
        },
        {
          "duration": 0.2654865000000015,
          "durationTicks": 64,
          "midi": 48,
          "name": "C3",
          "ticks": 11712,
          "time": 48.5840295,
          "velocity": 0.3937007874015748
        },
        {
          "duration": 0.2654865000000015,
          "durationTicks": 64,
          "midi": 48,
          "name": "C3",
          "ticks": 11776,
          "time": 48.849516,
          "velocity": 0.3937007874015748
        },
        {
          "duration": 0.2654865000000015,
          "durationTicks": 64,
          "midi": 48,
          "name": "C3",
          "ticks": 11840,
          "time": 49.1150025,
          "velocity": 0.3937007874015748
        },
        {
          "duration": 0.2654865000000015,
          "durationTicks": 64,
          "midi": 48,
          "name": "C3",
          "ticks": 11904,
          "time": 49.380489000000004,
          "velocity": 0.3937007874015748
        },
        {
          "duration": 0.2654864999999944,
          "durationTicks": 64,
          "midi": 48,
          "name": "C3",
          "ticks": 11968,
          "time": 49.645975500000006,
          "velocity": 0.3937007874015748
        },
        {
          "duration": 0.2654865000000015,
          "durationTicks": 64,
          "midi": 48,
          "name": "C3",
          "ticks": 12032,
          "time": 49.911462,
          "velocity": 0.3937007874015748
        },
        {
          "duration": 0.2654865000000015,
          "durationTicks": 64,
          "midi": 48,
          "name": "C3",
          "ticks": 12096,
          "time": 50.1769485,
          "velocity": 0.3937007874015748
        },
        {
          "duration": 0.2654865000000015,
          "durationTicks": 64,
          "midi": 48,
          "name": "C3",
          "ticks": 12160,
          "time": 50.442435,
          "velocity": 0.3937007874015748
        },
        {
          "duration": 0.2654865000000015,
          "durationTicks": 64,
          "midi": 48,
          "name": "C3",
          "ticks": 12224,
          "time": 50.707921500000005,
          "velocity": 0.3937007874015748
        },
        {
          "duration": 0.2654864999999944,
          "durationTicks": 64,
          "midi": 48,
          "name": "C3",
          "ticks": 12288,
          "time": 50.973408000000006,
          "velocity": 0.3937007874015748
        },
        {
          "duration": 0.2654865000000015,
          "durationTicks": 64,
          "midi": 48,
          "name": "C3",
          "ticks": 12352,
          "time": 51.2388945,
          "velocity": 0.3937007874015748
        },
        {
          "duration": 0.2654865000000015,
          "durationTicks": 64,
          "midi": 48,
          "name": "C3",
          "ticks": 12416,
          "time": 51.504381,
          "velocity": 0.3937007874015748
        },
        {
          "duration": 0.2654865000000015,
          "durationTicks": 64,
          "midi": 48,
          "name": "C3",
          "ticks": 12480,
          "time": 51.769867500000004,
          "velocity": 0.3937007874015748
        },
        {
          "duration": 0.2654865000000015,
          "durationTicks": 64,
          "midi": 48,
          "name": "C3",
          "ticks": 12736,
          "time": 52.8318135,
          "velocity": 0.3937007874015748
        },
        {
          "duration": 0.2654865000000015,
          "durationTicks": 64,
          "midi": 48,
          "name": "C3",
          "ticks": 12800,
          "time": 53.097300000000004,
          "velocity": 0.3937007874015748
        },
        {
          "duration": 0.2654864999999944,
          "durationTicks": 64,
          "midi": 48,
          "name": "C3",
          "ticks": 12864,
          "time": 53.362786500000006,
          "velocity": 0.3937007874015748
        },
        {
          "duration": 0.2654865000000015,
          "durationTicks": 64,
          "midi": 48,
          "name": "C3",
          "ticks": 12928,
          "time": 53.628273,
          "velocity": 0.3937007874015748
        },
        {
          "duration": 0.2654865000000015,
          "durationTicks": 64,
          "midi": 48,
          "name": "C3",
          "ticks": 12992,
          "time": 53.8937595,
          "velocity": 0.3937007874015748
        },
        {
          "duration": 0.2654865000000015,
          "durationTicks": 64,
          "midi": 48,
          "name": "C3",
          "ticks": 13056,
          "time": 54.159246,
          "velocity": 0.3937007874015748
        },
        {
          "duration": 0.2654865000000015,
          "durationTicks": 64,
          "midi": 48,
          "name": "C3",
          "ticks": 13120,
          "time": 54.424732500000005,
          "velocity": 0.3937007874015748
        },
        {
          "duration": 0.2654864999999944,
          "durationTicks": 64,
          "midi": 48,
          "name": "C3",
          "ticks": 13184,
          "time": 54.690219000000006,
          "velocity": 0.3937007874015748
        },
        {
          "duration": 0.2654865000000015,
          "durationTicks": 64,
          "midi": 48,
          "name": "C3",
          "ticks": 13248,
          "time": 54.9557055,
          "velocity": 0.3937007874015748
        },
        {
          "duration": 0.2654865000000015,
          "durationTicks": 64,
          "midi": 48,
          "name": "C3",
          "ticks": 13312,
          "time": 55.221192,
          "velocity": 0.3937007874015748
        },
        {
          "duration": 0.2654865000000015,
          "durationTicks": 64,
          "midi": 48,
          "name": "C3",
          "ticks": 13376,
          "time": 55.486678500000004,
          "velocity": 0.3937007874015748
        },
        {
          "duration": 0.2654864999999944,
          "durationTicks": 64,
          "midi": 48,
          "name": "C3",
          "ticks": 13440,
          "time": 55.752165000000005,
          "velocity": 0.3937007874015748
        },
        {
          "duration": 0.2654865000000015,
          "durationTicks": 64,
          "midi": 48,
          "name": "C3",
          "ticks": 13504,
          "time": 56.0176515,
          "velocity": 0.3937007874015748
        },
        {
          "duration": 0.2654865000000015,
          "durationTicks": 64,
          "midi": 48,
          "name": "C3",
          "ticks": 13568,
          "time": 56.283138,
          "velocity": 0.3937007874015748
        },
        {
          "duration": 0.2654865000000015,
          "durationTicks": 64,
          "midi": 48,
          "name": "C3",
          "ticks": 13632,
          "time": 56.5486245,
          "velocity": 0.3937007874015748
        },
        {
          "duration": 0.2654865000000015,
          "durationTicks": 64,
          "midi": 48,
          "name": "C3",
          "ticks": 13696,
          "time": 56.814111000000004,
          "velocity": 0.3937007874015748
        },
        {
          "duration": 0.2654864999999944,
          "durationTicks": 64,
          "midi": 48,
          "name": "C3",
          "ticks": 13760,
          "time": 57.079597500000006,
          "velocity": 0.3937007874015748
        },
        {
          "duration": 0.2654865000000015,
          "durationTicks": 64,
          "midi": 48,
          "name": "C3",
          "ticks": 13824,
          "time": 57.345084,
          "velocity": 0.3937007874015748
        },
        {
          "duration": 0.2654865000000015,
          "durationTicks": 64,
          "midi": 48,
          "name": "C3",
          "ticks": 13888,
          "time": 57.6105705,
          "velocity": 0.3937007874015748
        },
        {
          "duration": 0.2654865000000015,
          "durationTicks": 64,
          "midi": 48,
          "name": "C3",
          "ticks": 13952,
          "time": 57.876057,
          "velocity": 0.3937007874015748
        },
        {
          "duration": 0.2654865000000015,
          "durationTicks": 64,
          "midi": 48,
          "name": "C3",
          "ticks": 14016,
          "time": 58.141543500000004,
          "velocity": 0.3937007874015748
        },
        {
          "duration": 0.2654864999999944,
          "durationTicks": 64,
          "midi": 48,
          "name": "C3",
          "ticks": 14080,
          "time": 58.407030000000006,
          "velocity": 0.3937007874015748
        },
        {
          "duration": 0.2654865000000015,
          "durationTicks": 64,
          "midi": 48,
          "name": "C3",
          "ticks": 14144,
          "time": 58.6725165,
          "velocity": 0.3937007874015748
        },
        {
          "duration": 0.2654865000000015,
          "durationTicks": 64,
          "midi": 48,
          "name": "C3",
          "ticks": 14208,
          "time": 58.938003,
          "velocity": 0.3937007874015748
        },
        {
          "duration": 0.2654865000000015,
          "durationTicks": 64,
          "midi": 48,
          "name": "C3",
          "ticks": 14272,
          "time": 59.2034895,
          "velocity": 0.3937007874015748
        },
        {
          "duration": 0.2654865000000015,
          "durationTicks": 64,
          "midi": 48,
          "name": "C3",
          "ticks": 14336,
          "time": 59.468976000000005,
          "velocity": 0.3937007874015748
        },
        {
          "duration": 0.2654864999999944,
          "durationTicks": 64,
          "midi": 48,
          "name": "C3",
          "ticks": 14400,
          "time": 59.73446250000001,
          "velocity": 0.3937007874015748
        },
        {
          "duration": 0.2654865000000015,
          "durationTicks": 64,
          "midi": 48,
          "name": "C3",
          "ticks": 14464,
          "time": 59.999949,
          "velocity": 0.3937007874015748
        },
        {
          "duration": 0.2654865000000015,
          "durationTicks": 64,
          "midi": 48,
          "name": "C3",
          "ticks": 14528,
          "time": 60.2654355,
          "velocity": 0.3937007874015748
        }
      ],
      "endOfTrackTicks": 14592
    },
    {
      "channel": 0,
      "controlChanges": {},
      "pitchBends": [],
      "instrument": {
        "family": "piano",
        "name": "acoustic grand piano",
        "number": 0
      },
      "name": "hihat_opened01.ogg",
      "notes": [
        {
          "duration": 0.26548649999999796,
          "durationTicks": 64,
          "midi": 55,
          "name": "G3",
          "ticks": 4608,
          "time": 19.115028000000002,
          "velocity": 0.3937007874015748
        },
        {
          "duration": 0.26548649999999796,
          "durationTicks": 64,
          "midi": 55,
          "name": "G3",
          "ticks": 5056,
          "time": 20.973433500000002,
          "velocity": 0.3937007874015748
        },
        {
          "duration": 0.26548649999999796,
          "durationTicks": 64,
          "midi": 55,
          "name": "G3",
          "ticks": 5504,
          "time": 22.831839000000002,
          "velocity": 0.3937007874015748
        },
        {
          "duration": 0.26548649999999796,
          "durationTicks": 64,
          "midi": 55,
          "name": "G3",
          "ticks": 5632,
          "time": 23.362812,
          "velocity": 0.3937007874015748
        },
        {
          "duration": 0.1327432499999972,
          "durationTicks": 32,
          "midi": 55,
          "name": "G3",
          "ticks": 6144,
          "time": 25.486704000000003,
          "velocity": 0.3937007874015748
        },
        {
          "duration": 0.2654865000000015,
          "durationTicks": 64,
          "midi": 55,
          "name": "G3",
          "ticks": 6656,
          "time": 27.610596,
          "velocity": 0.3937007874015748
        },
        {
          "duration": 0.26548649999999796,
          "durationTicks": 64,
          "midi": 55,
          "name": "G3",
          "ticks": 7168,
          "time": 29.734488000000002,
          "velocity": 0.3937007874015748
        },
        {
          "duration": 0.2654865000000015,
          "durationTicks": 64,
          "midi": 55,
          "name": "G3",
          "ticks": 7552,
          "time": 31.327407,
          "velocity": 0.3937007874015748
        },
        {
          "duration": 0.26548649999999796,
          "durationTicks": 64,
          "midi": 55,
          "name": "G3",
          "ticks": 7680,
          "time": 31.85838,
          "velocity": 0.3937007874015748
        },
        {
          "duration": 0.2654865000000015,
          "durationTicks": 64,
          "midi": 55,
          "name": "G3",
          "ticks": 7936,
          "time": 32.920326,
          "velocity": 0.3937007874015748
        },
        {
          "duration": 0.2654865000000015,
          "durationTicks": 64,
          "midi": 55,
          "name": "G3",
          "ticks": 8192,
          "time": 33.982272,
          "velocity": 0.3937007874015748
        },
        {
          "duration": 0.2654865000000015,
          "durationTicks": 64,
          "midi": 55,
          "name": "G3",
          "ticks": 8256,
          "time": 34.2477585,
          "velocity": 0.3937007874015748
        },
        {
          "duration": 0.2654864999999944,
          "durationTicks": 64,
          "midi": 55,
          "name": "G3",
          "ticks": 8320,
          "time": 34.513245000000005,
          "velocity": 0.3937007874015748
        },
        {
          "duration": 0.2654865000000015,
          "durationTicks": 64,
          "midi": 55,
          "name": "G3",
          "ticks": 8384,
          "time": 34.7787315,
          "velocity": 0.3937007874015748
        },
        {
          "duration": 0.530973000000003,
          "durationTicks": 128,
          "midi": 55,
          "name": "G3",
          "ticks": 8448,
          "time": 35.044218,
          "velocity": 0.3937007874015748
        },
        {
          "duration": 0.2654865000000015,
          "durationTicks": 64,
          "midi": 55,
          "name": "G3",
          "ticks": 10240,
          "time": 42.47784,
          "velocity": 0.3937007874015748
        },
        {
          "duration": 0.2654864999999944,
          "durationTicks": 64,
          "midi": 55,
          "name": "G3",
          "ticks": 10752,
          "time": 44.601732000000005,
          "velocity": 0.3937007874015748
        },
        {
          "duration": 0.2654865000000015,
          "durationTicks": 64,
          "midi": 55,
          "name": "G3",
          "ticks": 12800,
          "time": 53.097300000000004,
          "velocity": 0.3937007874015748
        },
        {
          "duration": 0.2654865000000015,
          "durationTicks": 64,
          "midi": 55,
          "name": "G3",
          "ticks": 14848,
          "time": 61.592868,
          "velocity": 0.3937007874015748
        }
      ],
      "endOfTrackTicks": 14912
    },
    {
      "channel": 0,
      "controlChanges": {},
      "pitchBends": [],
      "instrument": {
        "family": "piano",
        "name": "acoustic grand piano",
        "number": 0
      },
      "name": "SUBSTANCE - HH - 002.wav",
      "notes": [],
      "endOfTrackTicks": 0
    },
    {
      "channel": 0,
      "controlChanges": {},
      "pitchBends": [],
      "instrument": {
        "family": "piano",
        "name": "acoustic grand piano",
        "number": 0
      },
      "name": "SUBSTANCE - CLAP - 002.wav",
      "notes": [],
      "endOfTrackTicks": 0
    },
    {
      "channel": 0,
      "controlChanges": {},
      "pitchBends": [],
      "instrument": {
        "family": "piano",
        "name": "acoustic grand piano",
        "number": 0
      },
      "name": "SUBSTANCE - CYM - 005.wav",
      "notes": [],
      "endOfTrackTicks": 0
    },
    {
      "channel": 0,
      "controlChanges": {},
      "pitchBends": [],
      "instrument": {
        "family": "piano",
        "name": "acoustic grand piano",
        "number": 0
      },
      "name": "SUBSTANCE - KICK - 004.wav",
      "notes": [],
      "endOfTrackTicks": 0
    },
    {
      "channel": 0,
      "controlChanges": {},
      "pitchBends": [],
      "instrument": {
        "family": "piano",
        "name": "acoustic grand piano",
        "number": 0
      },
      "name": "SUBSTANCE - SNARE - 008.wav",
      "notes": [],
      "endOfTrackTicks": 0
    },
    {
      "channel": 0,
      "controlChanges": {},
      "pitchBends": [],
      "instrument": {
        "family": "piano",
        "name": "acoustic grand piano",
        "number": 0
      },
      "name": "Kick power",
      "notes": [],
      "endOfTrackTicks": 0
    },
    {
      "channel": 0,
      "controlChanges": {},
      "pitchBends": [],
      "instrument": {
        "family": "piano",
        "name": "acoustic grand piano",
        "number": 0
      },
      "name": "Kick power",
      "notes": [],
      "endOfTrackTicks": 0
    },
    {
      "channel": 0,
      "controlChanges": {},
      "pitchBends": [],
      "instrument": {
        "family": "piano",
        "name": "acoustic grand piano",
        "number": 0
      },
      "name": "kick_hiphop01.ogg",
      "notes": [],
      "endOfTrackTicks": 0
    }
  ]
};
var songname = 'rickroll';
var songlength = 0;
var instruments = [
  'pling','bass','basedrum','snare','hat','hat'
]; // index is track number
var veryoutput = [];
var comparator = [];
function biggestNumberInArray (arr) {
  // The largest number at first should be the first element or null for empty array
  var largest = arr[0] || null;

  // Current number, handled by the loop
  var number = null;
  for (var i = 0; i < arr.length; i++) {
      // Update current number
      number = arr[i];

      // Compares stored largest number with current number, stores the largest one
      largest = Math.max(largest, number);
  }

  return largest;
}
$.each(midi.tracks,function(i,val){
if(val.notes.length!=0){
  var lol = give(val.notes,instruments[i],i);
veryoutput.push(lol.a);
}
});
veryoutput.push('scoreboard players add @a[scores={song_'+songname+'=..99999999}] song_'+songname+' 1');
veryoutput.push("#generated using htmlcomputer's midi to mcfunction converter");
songlength = biggestNumberInArray(comparator);
veryoutput.push('#length of '+songname+' is '+songlength+' ticks or '+(songlength/20)+' seconds if there isn"t any lag');
veryoutput = veryoutput.join('\n');
console.log(veryoutput);
function give(nott,instrumen,track){
  var out = {};
  var notes = nott;
  var output = [];
  var mccommand;
  var instrument = instrumen;
  var pushed = '2';
  $.each(notes, function( i, value ) {
      value.time = Math.floor(Math.round(value.time*20)/2);  //adapting for minecraft tick
      var naaaame = value.name;
      value.name = tonum(value.name);
      notes[i]=value;
      output.push('execute at @a[scores={song_'+songname+'='+value.time*2+'}] run playsound minecraft:block.note_block.'+instrument+' master @a ~ ~ ~ '+value.velocity+' '+topitch(value.name));
      comparator.push(value.time*2);
      //output.push('say '+naaaame)
      //console.log(tonum(naaaame))
      //console.log(topitch(value.name))
  });
  mccommand = output.join('\n');
  function topitch(num){
      if(num<12){
          return 2**((num-12)/12);
      }
      if(num==12){
          return 1;
      }
      if(num>12){
          return 2**((num-12)/12);
      }
  }
  function tonum(note){
     
      var nota = note.split('');
      var pitch =0;
      var octave=0;
      var notee;
      if(note.includes('#')){
          notee=nota[0]+nota[1];
          octave=nota[2];
      }else{
          
          notee=nota[0];
          octave=nota[1];
      }
      
      pitch = getdb(notee,octave);
      return pitch;
  }
  
  
  
  function getdb(note,oct){
    var middle = 4; //treshold
    var result =0;
    var db = {
      'F#':0,
      'G':1,
      'G#':2,
      'A':3,
      'A#':4,
      'B':5,
      'B#':6,
      'C':6,
      'C#':7,
      'D':8,
      'D#':9,
      'E':10,
      'E#':11,
      'F':11,
  
  };
  var db2 = {
      'F#':12,
      'G':13,
      'G#':14,
      'A':15,
      'A#':16,
      'B':17,
      'B#':18,
      'C':18,
      'C#':19,
      'D':20,
      'D#':21,
      'E':21,
      'E#':22,
      'F':23,
  };
  
  if(oct>middle){
    result = db2[note];
    
  }else{
    
    result = db[note];
  }
  if(note=='F#'&&oct>=middle){
    result = result + 12;
  }
  return result;
  }
  out.a = mccommand;
  return out;
}
